<?xml version="1.0" standalone="no"?>
<!DOCTYPE svg PUBLIC "-//W3C//DTD SVG 20010904//EN"
 "http://www.w3.org/TR/2001/REC-SVG-20010904/DTD/svg10.dtd">
<svg version="1.0" xmlns="http://www.w3.org/2000/svg"
 width="1024.000000pt" height="1024.000000pt" viewBox="0 0 1024.000000 1024.000000"
 preserveAspectRatio="xMidYMid meet">
<metadata>
Created by potrace 1.11, written by Peter Selinger 2001-2013
</metadata>
<g transform="translate(0.000000,1024.000000) scale(0.100000,-0.100000)"
fill="#000000" stroke="none">
<path d="M0 5120 l0 -5120 5120 0 5120 0 0 5120 0 5120 -5120 0 -5120 0 0
-5120z m4086 2227 c61 -19 129 -46 150 -61 21 -14 44 -26 50 -26 6 0 28 -13
50 -30 21 -16 44 -30 49 -30 6 0 16 -9 23 -20 7 -11 19 -20 27 -20 8 0 15 -7
15 -15 0 -9 8 -19 18 -22 19 -7 65 -46 91 -77 9 -11 28 -33 44 -49 15 -16 27
-32 27 -35 0 -4 14 -21 30 -39 17 -18 30 -37 30 -43 0 -6 6 -13 14 -16 7 -3
21 -30 31 -59 9 -30 26 -66 36 -79 17 -22 18 -31 10 -64 -6 -21 -10 -56 -8
-77 2 -33 -1 -40 -17 -40 -15 0 -19 -9 -20 -44 -2 -25 -8 -47 -14 -49 -7 -2
-12 -15 -12 -29 0 -32 -35 -89 -58 -95 -10 -3 -24 -23 -32 -49 -28 -91 -62
-157 -87 -168 -13 -6 -21 -15 -18 -21 6 -10 -29 -85 -45 -95 -5 -3 -10 -13
-10 -21 0 -8 -9 -33 -19 -57 -11 -23 -22 -56 -26 -73 -3 -17 -17 -41 -31 -53
-14 -12 -22 -26 -19 -32 4 -5 2 -15 -3 -22 -5 -7 -12 -23 -15 -37 -3 -14 -11
-41 -18 -60 -53 -147 -65 -173 -81 -178 -11 -2 -18 -14 -18 -28 0 -12 -4 -26
-10 -29 -5 -3 -10 -15 -10 -26 0 -11 -7 -22 -15 -25 -8 -4 -15 -16 -15 -28 0
-11 -20 -43 -45 -69 -25 -27 -45 -53 -45 -58 0 -5 -6 -9 -13 -9 -7 0 -28 -16
-47 -35 -19 -19 -43 -35 -55 -35 -12 0 -34 -14 -50 -30 -16 -17 -35 -28 -42
-26 -7 3 -29 -2 -49 -10 l-37 -16 29 -24 c16 -13 40 -26 54 -30 44 -10 135
-44 171 -64 9 -5 33 -12 52 -15 20 -4 43 -16 53 -26 9 -10 23 -19 31 -19 7 0
13 -8 13 -18 0 -27 10 -33 32 -21 16 8 25 7 41 -9 12 -11 36 -26 52 -33 24
-11 31 -22 33 -49 2 -19 7 -39 12 -44 6 -6 5 -15 -1 -23 -9 -10 -8 -13 2 -13
8 0 3 -6 -11 -13 -21 -11 -25 -20 -26 -57 0 -25 -4 -53 -9 -63 -4 -9 -5 -26
-2 -37 4 -16 1 -18 -23 -14 -15 4 -31 1 -34 -5 -9 -14 -66 -14 -66 -1 0 7 -13
9 -33 5 -19 -4 -51 0 -80 10 -34 11 -52 13 -66 5 -11 -5 -35 -9 -53 -9 -51 3
-122 -10 -133 -24 -5 -6 -21 -11 -36 -9 -15 2 -32 -5 -43 -16 -15 -17 -17 -45
-18 -223 -1 -172 2 -218 18 -289 11 -47 26 -95 32 -107 7 -12 12 -32 12 -45 1
-33 17 -50 90 -89 62 -34 125 -55 252 -84 32 -7 64 -17 70 -22 7 -6 45 -21 83
-33 39 -13 88 -31 110 -40 22 -10 61 -25 88 -35 26 -9 47 -21 47 -25 0 -5 20
-18 44 -29 28 -12 50 -31 60 -49 9 -17 25 -33 36 -37 11 -3 20 -11 20 -17 0
-6 6 -19 14 -27 18 -22 37 -102 29 -129 -3 -12 -1 -22 3 -22 5 0 10 -18 11
-40 1 -36 -1 -40 -24 -40 -17 0 -27 -7 -30 -21 -4 -14 -12 -19 -25 -16 -14 4
-22 -3 -33 -29 -10 -25 -26 -40 -57 -53 -24 -10 -65 -39 -93 -65 -27 -25 -55
-46 -62 -46 -7 0 -13 -7 -13 -15 0 -8 -6 -15 -12 -15 -7 -1 -29 -14 -48 -30
-19 -17 -42 -30 -52 -30 -9 0 -47 -29 -83 -65 -36 -36 -74 -65 -85 -65 -10 0
-21 -4 -24 -9 -7 -10 -91 -21 -117 -14 -13 4 -19 14 -19 34 0 20 -5 29 -16 29
-10 0 3 18 35 48 28 26 51 56 51 65 0 9 14 47 32 84 17 38 35 79 41 93 5 14
14 34 20 45 6 11 17 34 26 50 8 17 20 42 28 57 7 14 13 40 13 57 0 28 -5 34
-44 51 -24 10 -47 23 -50 29 -9 14 -130 70 -231 106 -27 10 -69 31 -93 47 -24
15 -55 34 -70 42 -77 40 -205 197 -244 298 -15 41 -16 58 -7 120 7 48 7 139 2
263 l-8 190 -26 3 c-14 2 -31 -4 -39 -12 -7 -9 -23 -16 -36 -16 -13 0 -28 -9
-34 -20 -6 -11 -29 -24 -53 -30 -23 -6 -58 -17 -77 -25 -73 -29 -92 -28 -161
10 -89 51 -209 151 -209 175 0 4 25 8 56 9 49 1 134 29 154 52 3 3 21 13 40
23 19 9 67 37 105 61 39 25 81 49 95 55 14 6 34 15 45 20 11 5 55 25 98 44 53
24 80 42 86 58 11 28 5 166 -7 182 -5 6 -12 23 -16 39 -3 15 -12 27 -19 27 -7
0 -20 16 -29 36 -13 29 -14 40 -5 56 10 16 9 22 -5 32 -18 14 -24 36 -10 36 4
0 13 -5 20 -12 9 -9 17 -5 37 16 20 21 29 25 43 17 11 -6 35 -8 55 -4 26 4 44
0 62 -11 15 -10 33 -16 41 -14 20 4 -24 68 -48 68 -19 0 -96 99 -128 164 -12
26 -25 46 -28 46 -3 0 -23 -17 -44 -37 -38 -37 -40 -38 -136 -44 -103 -7 -135
-16 -222 -65 -30 -17 -79 -38 -108 -48 -52 -16 -52 -16 -89 9 -30 20 -45 23
-75 19 -23 -4 -43 -2 -52 5 -8 7 -36 13 -63 15 -40 2 -49 6 -51 23 -4 28 -48
57 -70 47 -20 -9 -28 -11 -43 -13 -6 0 -8 -11 -4 -23 6 -22 5 -22 -9 -4 -8 10
-17 23 -18 28 -2 5 -16 10 -33 11 -21 1 -41 15 -70 48 -63 72 -77 86 -130 134
-27 25 -60 48 -72 51 -37 10 -53 59 -43 134 4 36 13 78 19 94 7 16 9 37 6 45
-4 9 -9 61 -11 116 -3 55 -7 127 -9 160 -2 33 -4 85 -4 116 0 37 -5 60 -15 68
-8 7 -12 19 -9 27 8 22 -18 134 -31 134 -13 0 -31 94 -42 215 -4 39 -10 75
-15 80 -8 11 -37 254 -45 380 -3 39 -6 83 -7 100 -2 24 3 31 26 39 23 9 39 4
102 -27 42 -20 75 -43 75 -51 0 -8 16 -20 35 -27 19 -7 35 -17 35 -22 0 -9 44
-65 111 -140 36 -40 36 -40 56 -20 10 10 25 17 31 15 7 -2 12 3 12 11 0 9 13
18 30 22 17 4 30 13 30 21 0 14 5 15 58 18 17 0 48 16 73 36 24 20 56 41 71
47 16 7 30 23 34 38 5 20 13 25 38 26 46 1 77 8 116 25 64 28 122 49 195 71
28 8 73 25 100 38 46 22 156 48 310 73 33 6 150 9 260 7 197 -3 202 -3 311
-38z m2422 -649 c37 -17 84 -44 104 -59 41 -29 80 -31 173 -9 195 46 324 39
421 -20 33 -21 154 -170 154 -190 0 -6 4 -18 9 -28 16 -28 24 -56 24 -77 0
-47 -4 -55 -24 -55 -15 0 -19 -5 -15 -15 3 -8 1 -15 -5 -15 -6 0 -9 -6 -6 -13
3 -7 -4 -19 -14 -25 -10 -7 -19 -21 -19 -31 0 -23 -16 -36 -25 -21 -3 5 -16
10 -28 10 -16 0 -18 -3 -9 -12 7 -7 12 -15 12 -19 0 -9 -52 1 -67 13 -12 9
-68 -3 -103 -23 -59 -34 -110 -51 -110 -39 0 6 -7 10 -15 10 -18 0 -19 -12 -2
-29 10 -11 7 -12 -13 -6 -19 5 -21 4 -10 -4 18 -13 13 -17 -31 -25 -26 -5 -40
-2 -49 9 -7 8 -20 15 -30 15 -39 0 -50 68 -15 94 11 8 16 18 11 23 -5 4 -11 2
-13 -4 -6 -16 -33 -17 -33 -3 0 11 -61 41 -70 35 -3 -2 -15 10 -25 26 -11 16
-26 29 -34 29 -17 0 -61 39 -61 53 0 5 -11 17 -24 28 -44 34 -93 133 -109 216
-8 43 -15 87 -15 98 0 11 -2 37 -4 58 -2 20 -2 37 0 37 2 0 34 -14 70 -32z
m627 -1193 c6 -5 28 -19 48 -29 19 -11 38 -29 41 -40 10 -37 -5 -305 -19 -351
-7 -26 -11 -62 -8 -82 5 -29 9 -34 27 -29 35 10 117 34 187 55 89 26 411 61
504 55 122 -8 365 -77 365 -104 0 -6 10 -10 23 -10 56 -1 152 -104 219 -235
77 -150 88 -200 89 -405 0 -85 -23 -202 -41 -208 -6 -2 -10 -12 -10 -22 0 -10
-4 -22 -10 -25 -5 -3 -10 -14 -10 -25 0 -10 -7 -21 -16 -24 -9 -4 -13 -13 -10
-24 4 -10 -4 -29 -20 -47 -15 -17 -42 -62 -61 -102 -19 -39 -48 -82 -64 -94
-16 -12 -29 -31 -29 -42 0 -36 -88 -137 -119 -137 -13 0 -26 -15 -42 -47 -21
-46 -80 -113 -98 -113 -4 0 -19 -11 -32 -24 -57 -57 -241 -88 -285 -48 -44 41
-97 62 -173 71 -104 11 -190 58 -269 148 -31 35 -64 77 -72 91 -8 15 -18 29
-21 32 -3 3 -14 23 -25 45 -10 22 -22 45 -26 50 -5 6 -26 38 -48 72 -23 34
-61 84 -86 112 -49 55 -72 110 -51 123 7 4 22 -3 37 -17 15 -14 31 -25 36 -25
6 0 43 -30 84 -67 40 -38 85 -75 99 -84 14 -9 41 -31 60 -48 43 -38 128 -71
186 -71 24 0 67 9 95 20 28 11 58 20 66 20 8 0 42 14 76 30 33 17 70 30 82 30
63 1 178 98 259 222 118 178 168 294 174 403 3 70 -9 114 -40 143 -34 32 -109
69 -155 77 -23 4 -42 10 -42 13 0 8 -53 27 -115 43 -22 6 -56 7 -75 3 -68 -13
-126 -14 -173 -2 -37 9 -76 9 -175 -1 -191 -18 -194 -19 -235 -36 -30 -12 -36
-20 -33 -38 3 -12 8 -53 12 -92 7 -84 29 -192 41 -208 5 -7 15 -32 22 -57 7
-25 18 -51 23 -58 6 -7 8 -15 5 -19 -3 -3 0 -17 7 -32 12 -23 20 -64 32 -158
3 -21 -1 -35 -10 -40 -8 -4 -16 -24 -18 -43 -3 -31 -6 -35 -30 -32 -14 2 -29
-1 -32 -6 -3 -5 -18 -7 -33 -5 -26 4 -48 27 -88 92 -5 9 -22 32 -37 52 -16 20
-28 41 -28 47 0 7 -3 12 -7 12 -10 0 -36 66 -57 140 -8 30 -18 119 -22 198 -7
140 -8 143 -28 137 -12 -4 -36 -9 -54 -12 -18 -3 -35 -9 -38 -14 -3 -5 -16 -9
-28 -9 -13 0 -29 -7 -36 -15 -7 -8 -18 -15 -25 -15 -28 0 -70 -31 -72 -52 -1
-13 -9 -54 -19 -93 -9 -38 -17 -79 -17 -90 -1 -11 -8 -25 -16 -31 -14 -11 -13
-40 5 -104 24 -88 7 -180 -34 -180 -32 0 -166 158 -156 184 2 6 -9 25 -26 41
-22 21 -28 34 -24 52 8 30 -6 29 -40 -2 -15 -14 -30 -25 -34 -25 -4 0 -22 -22
-39 -48 -18 -26 -53 -69 -78 -97 -26 -27 -58 -71 -73 -97 -15 -27 -30 -48 -34
-48 -5 0 -8 -5 -8 -12 0 -6 -8 -20 -17 -30 -13 -15 -17 -39 -17 -113 -1 -72
-4 -95 -14 -95 -7 0 -21 -7 -29 -16 -13 -12 -17 -13 -24 -2 -7 10 -11 10 -21
0 -6 -6 -22 -12 -35 -12 -13 0 -23 -5 -23 -12 0 -6 -12 0 -27 14 -16 14 -42
33 -58 41 -30 15 -78 65 -134 140 -31 40 -45 101 -56 247 -4 47 -11 117 -15
155 -19 160 1 590 30 646 4 9 11 42 15 74 8 58 40 135 60 142 20 6 63 -113 84
-237 12 -69 27 -143 32 -165 6 -22 17 -65 24 -95 8 -30 21 -82 29 -115 15 -60
23 -104 32 -180 2 -22 9 -65 14 -95 6 -30 12 -66 15 -78 2 -13 6 -26 8 -29 12
-12 47 11 66 43 11 19 27 37 36 40 8 4 15 12 15 19 0 10 58 90 95 131 5 6 28
33 50 59 22 26 53 59 69 74 16 14 37 33 46 41 8 9 37 31 63 50 l48 34 0 145
c-1 256 2 304 19 309 8 3 20 12 26 20 16 22 41 -96 49 -228 9 -152 13 -170 39
-170 39 0 106 94 106 149 0 22 19 59 65 127 36 53 65 101 65 108 0 17 52 96
86 130 16 16 23 26 17 22 -8 -4 -13 -1 -13 8 0 9 4 16 9 16 10 0 10 0 13 102
2 60 3 66 19 57 28 -14 36 -11 42 19 8 33 15 43 47 63 25 16 44 12 75 -16z
m-4705 -512 c0 -15 13 -37 32 -55 28 -26 32 -35 32 -86 0 -31 -3 -77 -6 -102
-4 -25 -10 -101 -13 -170 -4 -69 -12 -130 -17 -137 -5 -7 -7 -17 -3 -22 3 -6
8 -41 10 -78 6 -95 17 -306 16 -318 0 -5 -2 -72 -5 -147 -2 -75 -7 -141 -10
-146 -7 -12 21 -166 34 -191 5 -9 12 -33 15 -55 4 -21 17 -49 30 -62 l24 -24
58 33 c32 17 91 64 130 103 40 39 75 69 77 66 14 -13 -25 -172 -45 -186 -10
-7 -32 -39 -49 -72 -17 -32 -62 -91 -98 -130 -66 -70 -68 -71 -127 -77 -58 -6
-62 -5 -107 31 -26 20 -81 63 -122 95 -41 31 -89 78 -106 104 -31 45 -32 50
-36 177 -2 72 -4 169 -4 216 0 96 17 347 24 358 2 4 8 52 11 107 4 55 9 103
11 107 2 3 7 30 10 60 15 147 67 347 124 483 10 22 21 50 24 63 4 12 19 40 33
62 21 31 29 37 40 29 7 -6 13 -23 13 -36z m1993 -274 l22 -21 -22 11 c-12 6
-25 16 -28 21 -11 17 5 11 28 -11z m2556 -798 c11 -7 13 -24 8 -73 -6 -57 -10
-66 -44 -96 -30 -26 -44 -32 -68 -27 -16 3 -47 8 -69 11 -43 8 -101 62 -124
118 -7 17 -21 39 -30 49 -17 19 -15 19 83 15 55 -2 116 -1 135 3 52 10 93 10
109 0z"/>
<path d="M3450 7059 c-83 -14 -105 -20 -140 -39 -33 -17 -241 -77 -305 -88
-27 -4 -71 -27 -85 -42 -3 -3 -27 -19 -55 -35 -108 -62 -304 -227 -304 -256
-1 -9 -10 -24 -21 -34 -11 -10 -20 -26 -18 -34 1 -9 -6 -41 -15 -71 -18 -61
-17 -52 -21 -210 -2 -115 9 -173 35 -182 7 -2 12 -19 11 -37 0 -19 7 -45 15
-58 12 -18 19 -61 23 -151 8 -139 23 -214 52 -251 10 -13 18 -34 18 -47 0 -13
6 -27 13 -31 28 -16 36 -45 20 -70 -9 -13 -13 -33 -9 -47 4 -16 1 -26 -8 -29
-17 -7 -30 -59 -21 -87 4 -13 15 -20 32 -20 21 0 24 2 13 15 -8 9 -9 15 -2 15
6 0 14 -4 17 -10 9 -14 43 -12 52 3 4 8 16 16 26 20 23 9 22 58 -3 99 -28 46
-25 63 15 99 19 18 35 36 35 40 0 18 139 218 220 316 6 7 10 15 10 18 0 4 10
21 23 38 48 69 93 155 84 163 -3 3 -45 -6 -94 -21 -48 -15 -110 -31 -138 -34
-87 -11 -199 19 -237 63 -24 28 -58 92 -58 109 0 8 -9 22 -20 32 -22 20 -29
54 -7 38 6 -5 31 -15 55 -23 57 -18 125 1 280 79 91 46 137 63 207 76 50 9
104 20 121 25 43 14 67 12 90 -5 10 -8 29 -15 41 -15 12 0 25 -4 28 -10 3 -5
15 -10 25 -10 24 0 52 -36 75 -96 17 -45 17 -50 2 -77 -10 -16 -15 -33 -12
-38 4 -5 -14 -28 -38 -51 -23 -24 -57 -63 -74 -88 -17 -25 -41 -55 -54 -66
-13 -12 -42 -46 -64 -75 -22 -29 -82 -94 -133 -144 -50 -49 -92 -95 -92 -101
0 -5 -16 -25 -35 -44 -20 -19 -35 -44 -35 -57 0 -26 11 -29 40 -11 16 10 24
10 40 0 30 -18 39 -15 86 28 44 40 62 47 80 31 12 -11 99 -37 153 -46 43 -7
44 -7 37 19 -5 20 -3 24 9 20 8 -4 15 -10 15 -15 0 -5 5 -9 12 -9 6 0 22 -10
35 -22 21 -19 35 -22 101 -23 118 0 127 5 163 83 17 37 42 90 55 118 13 28 24
57 24 65 0 8 8 28 18 44 10 17 35 73 56 125 21 52 41 100 45 105 6 8 33 87 36
105 0 3 10 30 21 60 77 202 184 530 194 595 11 66 10 67 -21 106 -22 28 -57
52 -116 81 -78 37 -89 40 -118 30 -25 -10 -42 -9 -82 3 -28 8 -96 17 -151 20
-133 6 -195 14 -206 26 -6 5 -12 8 -15 8 -4 -1 -26 -5 -51 -10z"/>
<path d="M2588 5339 c-10 -6 -18 -14 -18 -19 0 -14 37 -12 46 1 10 17 -9 29
-28 18z"/>
<path d="M6973 5238 c-33 -41 -81 -118 -92 -145 -7 -18 -17 -33 -22 -33 -5 0
-9 -7 -9 -17 0 -9 -15 -44 -34 -77 -18 -34 -37 -78 -40 -99 -4 -21 -10 -45
-13 -53 -8 -21 11 -17 81 15 34 17 73 33 87 36 55 14 56 17 61 208 3 97 2 177
-2 177 -4 0 -12 -6 -17 -12z"/>
</g>
</svg>
