<?xml version="1.0" standalone="no"?>
<!DOCTYPE svg PUBLIC "-//W3C//DTD SVG 20010904//EN"
 "http://www.w3.org/TR/2001/REC-SVG-20010904/DTD/svg10.dtd">
<svg version="1.0" xmlns="http://www.w3.org/2000/svg"
 width="1024.000000pt" height="1024.000000pt" viewBox="0 0 1024.000000 1024.000000"
 preserveAspectRatio="xMidYMid meet">
<metadata>
Created by potrace 1.11, written by Peter Selinger 2001-2013
</metadata>
<g transform="translate(0.000000,1024.000000) scale(0.100000,-0.100000)"
fill="#000000" stroke="none">
<path d="M0 5120 l0 -5120 5120 0 5120 0 0 5120 0 5120 -5120 0 -5120 0 0
-5120z m4080 2230 c58 -17 121 -42 140 -54 19 -13 46 -27 60 -31 26 -8 83 -45
88 -57 2 -5 10 -8 18 -8 8 0 17 -7 20 -15 3 -8 14 -17 25 -20 10 -4 19 -13 19
-21 0 -8 8 -18 18 -21 18 -7 64 -46 91 -77 9 -11 31 -34 49 -52 17 -18 32 -35
32 -39 0 -4 14 -24 30 -44 44 -52 44 -53 59 -91 21 -57 34 -84 49 -102 10 -12
11 -25 3 -54 -6 -20 -8 -57 -4 -81 5 -40 4 -43 -16 -41 -20 3 -23 -2 -25 -41
-1 -25 -8 -47 -14 -49 -7 -2 -12 -16 -12 -30 0 -35 -33 -88 -59 -97 -12 -3
-21 -15 -21 -25 0 -10 -4 -22 -10 -25 -5 -3 -10 -14 -10 -23 0 -29 -54 -132
-72 -138 -10 -3 -18 -15 -18 -28 0 -13 -13 -43 -30 -67 -16 -24 -30 -50 -30
-57 0 -7 -4 -21 -10 -32 -24 -48 -28 -57 -34 -87 -4 -17 -16 -39 -27 -49 -10
-9 -19 -27 -19 -39 0 -12 -3 -24 -6 -28 -5 -5 -52 -131 -86 -234 -7 -21 -18
-33 -30 -33 -12 0 -18 -7 -18 -24 0 -14 -4 -28 -10 -31 -5 -3 -10 -15 -10 -26
0 -11 -7 -22 -15 -25 -8 -4 -15 -16 -15 -28 0 -11 -18 -40 -39 -64 -21 -23
-42 -49 -45 -57 -3 -8 -11 -15 -18 -15 -8 0 -28 -16 -47 -35 -18 -20 -42 -35
-55 -35 -12 0 -35 -14 -51 -30 -16 -17 -36 -30 -45 -29 -25 3 -70 -12 -70 -25
0 -14 61 -56 83 -56 9 0 29 -5 44 -11 15 -6 37 -15 48 -19 11 -4 43 -17 72
-29 28 -12 58 -21 66 -21 8 0 22 -9 32 -20 10 -11 24 -20 32 -20 7 0 13 -8 13
-18 0 -27 10 -33 32 -21 16 8 25 7 41 -9 12 -11 36 -26 52 -33 24 -11 31 -22
33 -49 2 -19 7 -37 11 -40 4 -3 11 -17 15 -32 6 -25 4 -28 -19 -28 -28 0 -42
-32 -31 -74 3 -14 2 -27 -2 -30 -5 -3 -7 -21 -6 -41 3 -32 2 -34 -16 -25 -14
7 -26 8 -39 0 -25 -13 -68 -13 -76 0 -3 5 -18 7 -33 4 -15 -3 -49 2 -76 10
-34 10 -54 12 -62 5 -6 -5 -29 -9 -50 -8 -66 2 -144 -15 -144 -32 0 -5 -11 -7
-24 -3 -17 4 -31 0 -46 -14 -20 -19 -21 -29 -22 -213 -1 -107 3 -210 7 -229 5
-19 9 -39 10 -45 4 -39 20 -104 31 -127 8 -15 14 -37 14 -50 1 -34 18 -51 95
-91 57 -30 125 -53 210 -72 44 -9 76 -19 115 -35 25 -10 74 -28 110 -40 36
-12 79 -28 95 -35 17 -7 49 -21 72 -30 23 -9 44 -23 47 -31 3 -8 12 -14 20
-14 27 0 76 -35 87 -62 6 -16 18 -28 25 -28 8 0 19 -10 25 -22 5 -13 17 -36
26 -52 8 -16 16 -51 16 -77 0 -27 4 -49 9 -49 4 0 5 -7 2 -15 -4 -8 -1 -22 6
-30 16 -19 4 -35 -27 -35 -16 0 -27 -7 -30 -20 -3 -13 -14 -20 -28 -20 -18 0
-25 -7 -30 -29 -5 -22 -16 -33 -46 -45 -36 -15 -169 -118 -177 -138 -2 -4 -9
-8 -15 -8 -7 -1 -28 -14 -47 -30 -19 -17 -42 -30 -52 -30 -9 0 -47 -29 -83
-65 -36 -36 -73 -65 -83 -65 -10 0 -22 -4 -28 -9 -5 -5 -37 -12 -71 -16 l-63
-7 0 36 c0 26 -4 36 -16 36 -9 0 4 20 35 51 28 29 51 59 51 67 0 9 14 46 32
82 17 36 35 74 39 85 10 29 27 68 39 85 21 33 50 110 50 135 0 20 -8 29 -34
40 -19 8 -54 28 -78 44 -24 16 -95 49 -158 73 -65 25 -150 67 -195 97 -77 51
-185 147 -185 165 0 4 -15 29 -34 55 -52 71 -69 135 -57 211 13 77 3 442 -12
452 -14 9 -49 1 -57 -13 -4 -6 -19 -12 -34 -12 -14 -1 -28 -9 -31 -17 -3 -9
-42 -27 -92 -42 -142 -44 -134 -44 -205 -3 -107 63 -208 150 -208 179 0 3 25
6 55 6 45 0 69 8 142 46 48 26 107 60 130 75 23 16 46 29 51 29 5 0 20 8 33
18 13 10 60 33 104 52 44 19 98 43 120 55 l40 20 3 98 c2 59 -1 97 -7 97 -6 0
-13 16 -17 35 -3 20 -12 35 -20 35 -8 0 -20 16 -29 36 -12 28 -12 39 -2 55 10
17 9 22 -5 33 -18 14 -24 36 -10 36 4 0 14 -6 20 -12 10 -10 18 -6 36 17 22
28 25 29 50 16 18 -10 29 -11 38 -3 12 10 37 4 101 -23 11 -5 17 -3 17 6 -1
20 -36 59 -52 59 -22 0 -147 168 -148 198 0 21 -14 14 -55 -28 l-39 -40 -91 0
c-88 0 -92 -1 -190 -51 -55 -28 -121 -57 -147 -65 -46 -14 -49 -14 -84 10 -27
18 -45 23 -68 19 -18 -3 -54 2 -80 11 -26 9 -58 13 -72 10 -21 -5 -24 -3 -24
19 0 28 -42 62 -66 53 -8 -3 -16 -4 -18 -3 -1 1 -10 -4 -20 -12 -12 -10 -14
-17 -5 -27 7 -9 8 -14 1 -14 -5 0 -17 11 -26 25 -9 14 -21 23 -26 20 -5 -3
-12 0 -15 6 -4 5 -12 8 -19 6 -7 -3 -34 22 -62 56 -27 33 -56 66 -64 73 -98
83 -126 104 -137 104 -8 0 -20 15 -28 34 -17 39 -12 102 12 178 8 26 11 53 7
59 -3 6 -8 48 -10 93 -2 44 -6 115 -9 156 -3 41 -5 102 -5 136 1 43 -3 64 -14
73 -8 7 -12 19 -9 27 8 22 -18 134 -31 134 -12 0 -30 88 -42 210 -4 36 -10 72
-15 81 -9 18 -46 339 -51 444 -3 68 -2 70 25 79 22 8 39 4 98 -24 39 -19 75
-42 80 -51 4 -9 21 -22 36 -28 15 -7 46 -37 68 -67 96 -133 111 -142 151 -99
13 14 37 28 54 31 16 4 30 13 30 20 0 8 6 14 13 15 6 1 27 2 46 4 18 2 36 7
40 11 10 15 74 59 104 72 15 6 28 16 28 22 1 5 2 16 3 22 0 7 29 17 66 24 36
6 88 20 115 31 73 30 155 60 195 72 19 5 63 21 97 36 34 14 102 32 150 40 48
8 113 19 143 24 30 5 145 8 255 7 192 -4 204 -5 305 -36z m2390 -628 c0 -4 15
-14 34 -20 19 -7 60 -30 90 -51 65 -43 76 -44 236 -11 146 31 261 26 350 -14
42 -19 168 -160 178 -199 2 -6 7 -21 12 -32 23 -55 26 -69 21 -116 0 -9 -10
-19 -22 -22 -12 -3 -18 -10 -14 -16 3 -6 1 -11 -5 -11 -7 0 -10 -6 -7 -14 3
-8 -3 -22 -13 -31 -10 -9 -16 -23 -14 -30 6 -15 -23 -28 -31 -15 -12 19 -37
11 -30 -9 5 -17 2 -18 -28 -11 -19 4 -39 10 -44 13 -12 7 -93 -20 -113 -38
-22 -20 -88 -36 -93 -22 -2 6 -9 7 -16 3 -9 -6 -9 -12 -3 -18 16 -16 -8 -35
-52 -43 -29 -6 -40 -4 -50 10 -7 10 -20 16 -28 13 -18 -7 -40 25 -32 47 4 9 1
15 -7 15 -8 0 -1 13 16 27 21 19 24 24 10 19 -32 -12 -40 -12 -38 1 2 10 -36
40 -44 35 -13 -9 -35 3 -50 28 -9 17 -26 30 -36 30 -19 0 -56 36 -57 55 0 6
-9 16 -20 22 -30 19 -91 122 -106 178 -8 28 -16 77 -20 110 -3 33 -7 75 -9 93
-3 26 0 32 16 32 10 0 19 -4 19 -8z m720 -1247 l41 -26 -5 -157 c-3 -92 -11
-176 -19 -202 -13 -43 -12 -120 2 -120 3 0 42 12 86 26 165 52 172 53 481 84
99 10 170 7 230 -9 21 -5 55 -12 74 -14 54 -5 170 -47 192 -69 11 -11 22 -17
25 -14 8 7 70 -30 106 -63 58 -53 145 -206 186 -329 17 -52 21 -87 21 -200 0
-173 -6 -209 -52 -290 -10 -18 -18 -39 -18 -46 0 -7 -6 -19 -14 -26 -8 -6 -13
-17 -10 -23 2 -7 -7 -25 -21 -41 -14 -16 -25 -35 -25 -42 0 -7 -4 -14 -8 -16
-5 -1 -21 -28 -35 -59 -15 -31 -40 -68 -57 -82 -16 -14 -30 -33 -30 -43 0 -32
-85 -134 -112 -134 -17 0 -58 -49 -58 -68 0 -25 -145 -152 -173 -152 -8 0 -31
-7 -50 -15 -51 -21 -170 -20 -188 1 -33 40 -89 64 -167 73 -98 11 -185 56
-258 133 -61 65 -77 87 -149 213 -61 105 -95 154 -156 220 -40 43 -58 100 -35
108 8 3 24 -5 37 -19 12 -13 27 -24 32 -24 10 0 66 -44 128 -102 175 -161 279
-198 409 -143 33 14 64 25 70 25 5 0 33 11 62 25 28 14 59 25 67 25 111 0 254
157 398 435 34 65 60 236 43 281 -22 56 -108 115 -188 129 -23 4 -42 11 -42
16 0 5 -8 9 -18 9 -11 0 -34 7 -52 17 -21 10 -54 16 -89 14 -149 -4 -191 -4
-250 3 -36 4 -107 2 -160 -5 -53 -6 -113 -13 -133 -16 -21 -2 -53 -10 -71 -18
l-33 -14 8 -83 c10 -109 28 -208 43 -233 6 -11 15 -33 19 -50 4 -16 14 -43 21
-60 46 -100 69 -291 33 -269 -6 4 -8 -9 -7 -32 4 -38 3 -39 -28 -36 -17 2 -34
-1 -37 -6 -12 -19 -65 0 -85 32 -11 17 -26 40 -33 51 -7 11 -18 24 -24 30 -6
5 -20 26 -30 45 -11 19 -21 37 -24 40 -10 9 -39 85 -54 140 -14 50 -34 295
-27 329 2 10 -4 12 -21 7 -13 -4 -34 -10 -48 -13 -27 -5 -32 -7 -138 -54 -40
-18 -71 -38 -68 -44 2 -6 -7 -51 -19 -100 -13 -49 -21 -93 -18 -98 3 -5 -1
-13 -8 -18 -19 -11 -20 -46 -4 -95 30 -89 11 -194 -33 -194 -32 0 -169 161
-156 182 4 5 -8 25 -26 43 -20 21 -30 40 -27 49 13 33 -13 23 -59 -22 -66 -65
-158 -179 -223 -277 l-53 -80 0 -90 0 -90 -33 -17 c-25 -12 -35 -14 -38 -5 -3
9 -10 7 -23 -4 -10 -9 -25 -14 -33 -11 -7 2 -17 -2 -22 -9 -7 -11 -12 -9 -24
9 -9 12 -33 31 -54 41 -32 17 -57 42 -137 134 -34 40 -42 73 -59 252 -3 22 -9
87 -15 145 -19 193 -4 573 27 663 10 30 9 26 18 85 4 29 12 55 16 58 5 3 9 14
9 24 0 18 24 50 38 50 16 0 60 -122 76 -210 21 -116 42 -219 60 -285 38 -144
51 -205 60 -280 5 -44 10 -76 33 -197 6 -32 26 -36 49 -9 9 10 29 33 44 50 16
17 31 39 34 49 4 10 14 27 24 38 9 10 28 33 41 49 86 112 157 184 236 242 l60
44 2 162 c4 335 3 320 19 306 13 -10 17 -10 25 2 5 8 9 21 10 29 3 39 38 -144
43 -229 12 -176 15 -191 40 -191 40 0 99 87 105 154 1 22 9 46 17 53 23 23 98
144 129 208 16 33 37 69 47 79 10 11 18 24 18 28 0 5 5 6 12 2 7 -4 8 -3 4 5
-4 6 -2 28 5 49 7 20 12 63 11 94 -1 54 8 72 23 48 13 -21 33 -9 39 24 5 25
16 40 39 54 36 21 37 20 137 -43z m-4760 -482 c0 -15 13 -37 33 -55 30 -28 32
-35 31 -92 0 -33 -4 -90 -8 -126 -11 -108 -23 -312 -21 -360 10 -188 16 -327
16 -335 0 -5 -3 -75 -6 -155 -3 -80 -6 -154 -6 -165 0 -31 23 -149 31 -160 4
-5 11 -28 14 -50 9 -50 31 -85 53 -85 33 0 152 81 205 140 30 33 57 57 61 54
3 -3 3 -22 1 -42 -10 -77 -28 -128 -57 -161 -16 -19 -37 -52 -46 -72 -10 -21
-48 -71 -85 -112 -67 -73 -69 -74 -128 -81 -66 -6 -71 -4 -178 84 -30 25 -72
58 -92 73 -21 15 -52 48 -69 73 -35 51 -39 91 -39 359 0 251 47 702 91 870 27
105 71 247 79 260 4 6 16 33 26 60 28 77 64 127 81 114 7 -6 13 -23 13 -36z
m1994 -272 c17 -19 17 -19 -2 -14 -12 3 -23 11 -26 19 -8 20 8 17 28 -5z m6
-165 c0 -3 -4 -8 -10 -11 -5 -3 -10 -1 -10 4 0 6 5 11 10 11 6 0 10 -2 10 -4z
m2548 -635 c13 -8 17 -66 8 -111 -3 -13 -22 -40 -42 -58 -31 -29 -42 -33 -71
-28 -18 3 -49 9 -69 12 -40 7 -100 64 -122 118 -7 17 -20 38 -29 48 -15 16 -9
17 107 17 67 0 124 2 128 5 8 9 75 7 90 -3z"/>
<path d="M3455 7059 c-80 -12 -108 -19 -146 -40 -20 -10 -79 -30 -130 -43
-186 -49 -204 -54 -231 -67 -16 -7 -28 -15 -28 -19 0 -4 -24 -20 -53 -34 -28
-15 -71 -45 -95 -66 -24 -22 -45 -40 -47 -40 -22 0 -155 -120 -155 -140 0 -5
-12 -22 -26 -39 -14 -17 -24 -37 -21 -43 2 -7 -4 -37 -14 -66 -10 -30 -19 -64
-19 -75 -5 -126 -4 -260 3 -264 4 -2 7 -13 7 -25 0 -11 8 -22 20 -25 16 -4 19
-11 14 -39 -3 -22 1 -42 12 -59 13 -20 19 -61 25 -158 9 -139 23 -206 52 -247
9 -13 17 -34 17 -47 0 -12 6 -26 14 -30 26 -16 35 -47 20 -68 -9 -12 -12 -30
-9 -46 4 -18 1 -28 -8 -32 -19 -7 -29 -64 -17 -88 6 -10 20 -19 32 -19 17 0
19 3 10 12 -7 7 -12 16 -12 22 0 6 5 5 12 -2 14 -14 68 -16 68 -3 0 5 9 11 20
14 27 7 27 63 0 97 -30 38 -25 71 15 103 19 15 35 32 35 38 0 21 201 308 223
317 4 2 7 8 7 14 0 5 11 24 25 42 14 18 25 36 25 39 0 4 14 29 30 55 49 80 42
83 -80 41 -71 -24 -168 -37 -205 -28 -15 5 -32 6 -36 3 -12 -7 -101 35 -117
55 -26 33 -62 91 -62 101 0 6 -11 27 -25 47 -25 38 -26 51 -3 37 20 -13 81
-34 99 -34 34 0 138 40 245 94 104 52 208 85 274 86 14 0 43 6 64 14 36 12 43
12 70 -5 17 -10 37 -19 44 -19 7 0 32 -9 57 -21 35 -16 46 -29 56 -57 6 -21
17 -46 24 -58 11 -18 11 -26 -1 -49 -8 -15 -14 -34 -14 -42 0 -8 -19 -34 -42
-57 -24 -24 -61 -68 -83 -99 -22 -31 -44 -57 -50 -57 -5 0 -23 -19 -40 -41
-16 -23 -40 -55 -53 -72 -29 -40 -88 -100 -147 -152 -25 -21 -45 -43 -45 -48
0 -5 -16 -28 -35 -51 -38 -47 -47 -83 -17 -71 34 15 60 17 66 6 11 -18 33 -13
63 15 51 48 72 58 96 46 30 -14 114 -39 160 -47 39 -6 50 8 25 33 -27 27 13
10 59 -25 47 -37 50 -37 130 -36 45 1 90 4 100 7 10 3 28 25 39 48 54 108 64
129 64 142 0 7 7 19 15 26 8 7 15 22 15 34 0 11 8 35 18 51 9 17 28 57 41 90
12 33 33 83 46 110 25 55 44 107 51 144 3 13 14 41 24 62 11 21 20 44 20 51 0
6 15 53 34 103 19 49 44 124 57 165 12 41 26 82 30 90 17 37 40 121 50 178 9
62 9 64 -21 102 -20 25 -55 50 -103 73 -95 46 -112 50 -138 37 -17 -9 -34 -8
-80 4 -32 9 -109 19 -171 22 -115 4 -165 11 -183 23 -5 4 -32 4 -60 0z"/>
<path d="M2585 5333 c-18 -17 -18 -18 -1 -21 24 -5 44 14 29 29 -7 7 -16 5
-28 -8z"/>
<path d="M6963 5223 c-10 -16 -20 -30 -23 -33 -14 -14 -48 -69 -59 -97 -8 -18
-17 -33 -22 -33 -5 0 -9 -7 -9 -17 0 -9 -15 -44 -34 -77 -18 -34 -37 -78 -40
-99 -4 -21 -10 -45 -13 -54 -7 -18 14 -13 92 22 28 13 69 31 93 40 l42 18 0
141 c0 78 3 158 6 179 8 45 -8 49 -33 10z"/>
</g>
</svg>
