<?xml version="1.0" standalone="no"?>
<!DOCTYPE svg PUBLIC "-//W3C//DTD SVG 20010904//EN"
 "http://www.w3.org/TR/2001/REC-SVG-20010904/DTD/svg10.dtd">
<svg version="1.0" xmlns="http://www.w3.org/2000/svg"
 width="768.000000pt" height="768.000000pt" viewBox="0 0 768.000000 768.000000"
 preserveAspectRatio="xMidYMid meet">
<metadata>
Created by potrace 1.11, written by Peter Selinger 2001-2013
</metadata>
<g transform="translate(0.000000,768.000000) scale(0.100000,-0.100000)"
fill="#000000" stroke="none">
<path d="M0 3840 l0 -3840 3840 0 3840 0 0 3840 0 3840 -3840 0 -3840 0 0
-3840z m3345 2111 c17 -11 55 -42 85 -70 30 -28 58 -51 61 -51 3 0 15 -18 27
-39 30 -53 36 -229 10 -276 -10 -16 -27 -75 -39 -130 -12 -55 -28 -110 -35
-122 -8 -12 -14 -36 -14 -52 0 -16 -5 -33 -11 -37 -6 -3 -8 -16 -4 -28 10 -34
5 -156 -8 -177 -8 -13 -9 -29 -1 -58 10 -36 8 -48 -18 -108 -16 -37 -29 -83
-30 -101 -1 -22 -9 -39 -25 -52 -29 -23 -29 -28 2 -52 17 -13 23 -24 16 -32
-8 -10 -22 -94 -19 -126 5 -74 -1 -165 -12 -186 -12 -21 -12 -27 -1 -34 9 -5
11 -16 7 -31 -4 -13 -13 -53 -19 -89 -14 -77 -16 -77 -124 -23 -77 37 -119 39
-129 5 -3 -9 -13 -34 -21 -54 -14 -32 -19 -37 -39 -32 -27 7 -31 -7 -11 -45
13 -27 31 -31 122 -34 l59 -2 8 -43 c6 -34 1 -61 -26 -140 -18 -53 -38 -115
-44 -137 -21 -74 -32 -214 -23 -292 2 -26 27 -11 49 30 12 23 39 60 59 82 71
78 301 390 332 452 12 23 46 70 76 104 30 34 55 67 55 74 0 8 11 26 24 42 13
15 25 37 27 48 6 30 37 31 49 1 11 -31 21 -32 45 -6 21 23 51 25 142 9 51 -9
63 -15 63 -30 0 -12 7 -19 19 -19 19 0 19 -1 1 -37 -13 -27 -36 -49 -82 -76
-34 -20 -77 -52 -94 -70 -49 -51 -94 -114 -94 -129 0 -8 -9 -23 -21 -34 -12
-10 -27 -31 -35 -46 -9 -16 -23 -28 -34 -28 -13 0 -20 -7 -20 -19 0 -11 -6
-26 -12 -33 -7 -7 -20 -26 -28 -42 -8 -16 -28 -43 -43 -59 -19 -21 -25 -33
-17 -41 17 -17 12 -38 -9 -31 -19 6 -39 -20 -101 -133 -14 -26 -34 -49 -45
-52 -31 -8 -75 -41 -75 -55 0 -12 -47 -80 -102 -147 -13 -16 -28 -28 -35 -28
-32 0 -33 -79 -2 -116 27 -33 47 -35 172 -19 227 29 408 20 477 -23 14 -9 43
-26 65 -37 22 -12 46 -33 53 -48 7 -15 19 -27 26 -27 30 0 72 -143 75 -250 1
-30 4 -63 7 -72 3 -9 -5 -39 -16 -67 -12 -27 -19 -55 -15 -60 3 -6 -6 -23 -22
-37 -27 -25 -27 -26 -9 -39 17 -13 17 -16 2 -61 -11 -32 -13 -52 -6 -64 15
-28 12 -39 -16 -67 -23 -23 -24 -26 -9 -43 19 -21 10 -50 -14 -43 -21 5 -35
-20 -26 -47 4 -11 -3 -20 -21 -28 -19 -9 -25 -19 -23 -40 1 -15 -7 -45 -17
-67 -10 -22 -19 -44 -20 -50 0 -5 -4 -18 -9 -28 -5 -12 0 -24 19 -42 30 -28
33 -37 9 -34 -34 3 -41 -1 -47 -33 l-7 -33 -16 37 c-13 34 -13 39 1 53 9 9 16
20 16 25 0 15 -18 21 -24 8 -3 -7 -2 7 1 32 3 25 12 52 19 61 17 19 18 46 3
51 -9 3 -9 25 0 87 7 45 10 95 6 110 -3 15 1 43 10 63 8 20 12 44 8 54 -3 10
0 20 9 25 11 6 13 19 7 61 -4 33 -1 95 8 163 32 235 -4 330 -146 379 -46 16
-169 11 -260 -10 -219 -51 -301 -42 -361 40 -54 73 -101 71 -161 -9 -21 -28
-50 -57 -64 -63 -15 -7 -25 -20 -25 -32 0 -13 -7 -20 -20 -20 -12 0 -24 -9
-29 -22 -5 -13 -27 -43 -50 -68 -38 -42 -41 -43 -35 -17 7 30 3 32 -29 15 -28
-15 -52 -48 -52 -73 -1 -14 -7 -19 -19 -17 -10 2 -30 -10 -45 -27 -15 -17 -31
-31 -35 -31 -4 0 -41 -30 -84 -66 -42 -36 -84 -69 -92 -72 -7 -3 -43 -23 -77
-44 -35 -21 -68 -36 -73 -33 -5 3 -14 -4 -20 -15 -12 -22 -31 -27 -27 -7 1 7
-6 11 -18 8 -11 -2 -44 -5 -74 -8 -51 -5 -54 -4 -48 16 4 17 1 21 -18 21 -13
0 -27 -4 -30 -10 -10 -17 -33 -11 -40 9 -4 13 -15 19 -33 19 -34 -1 -95 53
-86 76 6 16 2 18 -40 20 -12 1 -23 12 -28 31 -5 17 -13 39 -18 50 -10 22 -30
95 -30 108 0 5 9 5 20 2 13 -4 20 -2 20 7 0 19 -21 38 -42 38 -15 0 -18 8 -18
43 0 24 4 47 10 53 14 14 0 54 -19 54 -14 0 -17 9 -14 56 1 33 9 64 17 73 14
15 14 20 0 46 -12 23 -14 47 -10 105 4 41 7 83 6 93 -2 104 7 223 19 245 8 14
9 28 3 35 -5 7 -9 39 -10 71 -2 46 2 64 16 80 28 31 34 56 17 62 -20 8 -19 36
4 136 23 103 19 148 -15 148 -34 0 -30 14 9 25 30 9 33 15 49 79 9 39 22 81
28 95 7 14 15 33 19 41 9 22 2 60 -12 60 -14 0 -15 71 -2 110 9 29 69 118 90
134 7 6 30 31 51 56 46 57 117 89 197 90 31 0 57 -4 57 -10 0 -5 -14 -10 -31
-10 -16 0 -50 -5 -74 -11 -33 -8 -46 -17 -53 -38 -5 -14 -22 -39 -38 -55 -20
-20 -32 -45 -40 -85 -6 -31 -21 -92 -33 -136 -12 -44 -24 -91 -26 -105 -2 -14
-9 -47 -15 -75 -12 -58 -29 -184 -36 -270 -2 -33 -6 -76 -8 -95 -21 -197 -36
-585 -24 -606 6 -9 2 -313 -4 -364 -2 -14 2 -29 9 -35 6 -5 17 -39 23 -75 6
-36 16 -80 21 -98 6 -17 8 -40 4 -51 -8 -26 67 -118 105 -126 38 -8 100 14
180 64 36 23 74 45 85 50 11 5 45 28 75 50 30 23 68 49 83 59 16 9 48 32 72
50 24 17 50 32 59 32 8 0 28 12 44 28 63 59 154 122 176 122 29 0 86 51 86 77
0 23 22 44 64 64 53 25 55 78 6 139 -37 46 -25 258 25 435 25 86 35 233 21
289 -7 28 -18 52 -24 54 -6 2 -37 -22 -68 -53 -43 -42 -57 -63 -58 -86 -1 -26
-4 -29 -23 -24 -24 6 -88 -27 -97 -50 -3 -8 -18 -21 -34 -29 -16 -8 -59 -45
-95 -81 -37 -36 -71 -65 -77 -65 -5 0 -10 -6 -10 -13 0 -7 -6 -21 -13 -31 -12
-17 -14 -17 -45 1 -18 10 -35 26 -38 36 -3 9 -10 17 -15 17 -5 0 -9 9 -9 19 0
11 -4 23 -10 26 -5 3 -10 23 -10 44 0 34 -4 41 -35 55 -19 9 -35 24 -35 33 0
14 2 14 14 -3 14 -18 15 -18 22 0 4 11 2 21 -7 26 -11 7 -10 10 4 16 9 3 17
12 17 20 0 9 11 14 31 14 17 0 40 5 52 11 36 19 157 130 157 144 0 7 -11 16
-25 19 -21 5 -23 9 -14 25 8 11 9 29 4 47 -5 16 -7 48 -6 70 1 23 -2 45 -8 49
-18 10 -13 42 10 56 27 18 40 82 34 164 -4 47 -1 74 10 95 20 38 19 39 -10 50
-30 11 -34 30 -5 23 15 -4 22 2 30 22 15 40 13 132 -4 142 -26 15 -67 110 -61
140 10 45 39 107 57 123 26 22 58 203 58 327 0 27 5 74 10 103 6 29 12 121 14
203 5 148 4 149 -20 172 -13 12 -24 29 -24 38 0 9 -4 19 -10 22 -5 3 -10 14
-10 25 0 15 6 17 43 13 47 -5 127 -34 127 -45 0 -18 28 -5 60 27 19 19 40 35
45 35 6 0 26 13 45 28 63 52 183 90 305 98 75 5 108 11 112 21 7 17 12 17 48
-6z m1580 -552 c52 -56 108 -136 131 -189 19 -43 52 -154 53 -180 3 -64 -1
-116 -10 -124 -5 -6 -9 -20 -9 -31 0 -38 -30 -112 -56 -135 -13 -13 -24 -18
-24 -12 0 6 5 14 10 17 15 9 12 35 -4 35 -13 0 -66 -68 -66 -84 0 -5 7 -6 15
-2 8 3 15 2 15 -3 0 -39 -115 -151 -155 -151 -48 0 -21 56 31 66 40 7 44 34 7
44 l-22 5 25 48 c43 86 88 295 85 397 -1 34 -27 111 -67 198 -19 41 -34 76
-34 79 0 4 -13 27 -29 52 -16 25 -32 57 -36 70 -7 23 -5 23 39 -10 26 -18 71
-59 101 -90z m-101 -895 c24 -9 19 -23 -5 -17 -17 5 -20 2 -17 -13 2 -12 -5
-23 -20 -31 -39 -21 -44 -15 -22 27 20 39 33 46 64 34z m73 -154 l65 -31 -7
-152 c-4 -84 -11 -167 -17 -185 -5 -18 -7 -44 -4 -56 3 -13 1 -61 -5 -107 -20
-161 -20 -349 0 -349 3 0 15 16 25 34 11 20 28 36 40 38 16 2 21 10 22 34 1
34 41 93 80 118 13 9 24 21 24 27 0 6 6 25 14 42 17 38 39 284 37 416 -2 76
-6 99 -21 122 -41 57 -17 70 58 32 70 -35 93 -60 87 -93 -3 -14 -7 -63 -10
-110 -2 -47 -7 -115 -11 -151 -4 -47 -2 -69 6 -74 8 -5 16 -1 22 9 11 20 71
46 108 46 16 0 30 5 32 11 5 16 80 40 93 30 5 -5 29 -9 53 -10 64 -2 156 -54
234 -133 37 -37 71 -80 74 -95 4 -15 16 -34 26 -41 10 -7 18 -19 18 -27 0 -13
51 -132 85 -198 8 -16 15 -39 15 -51 0 -12 7 -46 15 -74 9 -28 17 -93 18 -144
2 -51 6 -98 10 -104 4 -7 0 -17 -8 -24 -17 -14 -20 -41 -5 -56 6 -6 4 -19 -5
-38 -8 -16 -15 -38 -15 -50 0 -12 -4 -26 -10 -32 -5 -5 -11 -25 -14 -44 -3
-26 -8 -34 -20 -32 -20 4 -21 -16 -1 -38 21 -24 2 -76 -36 -96 -19 -9 -29 -23
-29 -37 -1 -27 -17 -50 -47 -66 -13 -6 -23 -18 -23 -26 0 -8 -7 -15 -15 -15
-8 0 -15 -6 -15 -13 0 -19 -79 -41 -96 -26 -14 11 -16 9 -18 -20 -1 -17 -26
-28 -26 -12 0 6 -9 11 -20 11 -11 0 -20 -5 -20 -11 0 -13 -63 -1 -68 12 -2 5
-11 9 -19 9 -10 0 -13 -6 -9 -15 8 -23 -18 -29 -77 -17 -28 5 -61 6 -73 2 -14
-6 -26 -4 -35 5 -8 7 -36 15 -63 19 -40 5 -47 3 -42 -9 3 -8 2 -15 -2 -15 -11
0 -88 81 -101 107 l-11 23 -57 -26 c-31 -13 -72 -36 -91 -50 -30 -23 -38 -25
-72 -16 -37 9 -98 49 -99 64 -1 10 -83 88 -93 88 -4 0 -8 -6 -8 -13 0 -18 -23
-67 -32 -67 -3 0 -12 -17 -18 -37 -16 -54 -31 -85 -53 -110 -11 -12 -23 -37
-26 -55 -5 -22 -12 -32 -22 -29 -8 2 -24 4 -36 4 -16 -1 -23 5 -23 18 0 21
-11 24 -26 9 -13 -13 -64 9 -64 28 0 6 -6 12 -13 12 -25 0 -67 25 -67 40 0 8
-9 26 -20 40 -11 14 -20 38 -20 53 0 16 -4 36 -9 46 -6 10 -15 60 -20 112 -6
52 -17 130 -25 174 -14 79 -18 186 -20 475 -2 293 56 645 130 793 26 51 37 60
29 25 -3 -13 -7 -76 -9 -141 -3 -74 -9 -124 -17 -133 -10 -13 -10 -17 1 -24
10 -6 11 -37 6 -151 -4 -79 -7 -214 -7 -299 -1 -91 -5 -160 -11 -167 -7 -9 -6
-18 3 -30 17 -20 21 -127 7 -165 -8 -22 -7 -33 6 -53 10 -14 18 -56 22 -102 3
-43 7 -96 8 -118 3 -40 9 -62 28 -102 6 -11 8 -26 4 -31 -9 -15 15 -62 31 -62
14 0 43 42 70 103 9 20 22 37 28 37 12 0 35 55 35 84 0 10 14 31 30 48 17 16
30 36 30 43 0 8 23 62 51 121 63 131 65 140 59 404 -1 69 3 211 10 315 7 105
13 199 13 210 0 11 6 84 13 163 l13 143 -24 36 c-43 62 -9 70 92 23z m-3146
-239 c-6 -11 -11 -31 -11 -44 0 -22 -25 -55 -34 -46 -8 7 12 93 31 134 l18 40
3 -32 c2 -18 -2 -41 -7 -52z m2039 -2591 c0 -5 -2 -10 -4 -10 -3 0 -8 5 -11
10 -3 6 -1 10 4 10 6 0 11 -4 11 -10z m20 -60 c26 0 27 -2 17 -23 -7 -15 -18
-23 -31 -21 -12 1 -24 3 -28 3 -10 1 -10 45 -1 55 4 4 9 2 11 -3 2 -6 16 -11
32 -11z m-15 -80 c-3 -5 -14 -10 -23 -9 -14 0 -13 2 3 9 27 11 27 11 20 0z
m-37 -105 c-6 -14 -13 -23 -16 -21 -7 7 9 46 18 46 5 0 4 -11 -2 -25z m-13
-155 c3 -5 1 -10 -4 -10 -6 0 -11 5 -11 10 0 6 2 10 4 10 3 0 8 -4 11 -10z"/>
<path d="M3080 5840 c0 -5 14 -10 31 -10 17 0 28 4 24 10 -3 6 -17 10 -31 10
-13 0 -24 -4 -24 -10z"/>
<path d="M3245 5792 c-11 -4 -39 -19 -62 -34 -24 -16 -47 -28 -52 -28 -5 0
-11 -5 -13 -10 -2 -6 -28 -27 -58 -48 -40 -28 -56 -45 -58 -65 -2 -15 -7 -27
-12 -27 -5 0 -28 -21 -52 -47 -24 -25 -61 -66 -83 -89 -26 -27 -45 -60 -53
-91 -8 -26 -20 -64 -27 -83 -7 -19 -18 -69 -25 -109 -6 -41 -15 -80 -21 -87
-6 -7 -4 -15 5 -23 12 -10 20 -9 41 5 26 17 56 25 105 27 14 1 30 7 35 13 6 7
30 15 55 18 109 14 121 14 139 -5 14 -15 26 -17 74 -12 62 6 80 20 82 61 1 15
5 34 8 42 3 8 10 62 16 120 12 115 23 191 40 291 7 36 11 93 9 125 l-3 59 -35
2 c-19 1 -44 -2 -55 -5z"/>
<path d="M2950 5060 c0 -5 7 -7 15 -4 8 4 15 8 15 10 0 2 -7 4 -15 4 -8 0 -15
-4 -15 -10z"/>
<path d="M2882 5038 c-39 -24 -43 -44 -4 -24 45 25 55 33 45 39 -5 3 -23 -4
-41 -15z"/>
<path d="M3075 4980 c-3 -5 -18 -10 -32 -10 -36 0 -103 -21 -133 -41 -14 -9
-53 -31 -88 -48 -50 -25 -67 -40 -78 -67 -8 -19 -20 -37 -27 -40 -8 -3 -13
-24 -14 -54 -1 -55 10 -70 69 -94 23 -10 38 -24 42 -41 4 -16 13 -25 26 -25
11 0 20 -7 20 -15 0 -33 23 -63 58 -73 19 -6 40 -8 46 -4 6 4 18 7 27 7 16 0
99 91 99 107 0 5 14 27 30 50 17 22 30 45 30 49 0 4 14 31 30 60 31 51 60 189
47 221 -3 10 -23 15 -58 17 -30 1 -61 4 -71 7 -9 3 -19 0 -23 -6z"/>
<path d="M3130 4543 c-18 -7 -77 -63 -67 -63 4 0 3 -9 -3 -20 -14 -27 10 -28
34 -1 10 11 30 24 46 31 38 16 50 62 16 59 -6 0 -18 -3 -26 -6z"/>
<path d="M2720 4430 c0 -5 7 -10 15 -10 8 0 15 5 15 10 0 6 -7 10 -15 10 -8 0
-15 -4 -15 -10z"/>
<path d="M2703 4341 c-6 -17 -8 -33 -4 -36 3 -4 6 -37 6 -73 1 -193 4 -222 23
-222 19 0 212 192 212 212 0 20 -95 108 -116 108 -11 0 -37 9 -59 20 -50 25
-49 26 -62 -9z"/>
<path d="M2890 2885 c-8 -9 -8 -15 -2 -15 12 0 26 19 19 26 -2 2 -10 -2 -17
-11z"/>
<path d="M1710 2690 c0 -5 5 -10 11 -10 5 0 7 5 4 10 -3 6 -8 10 -11 10 -2 0
-4 -4 -4 -10z"/>
<path d="M2750 2675 c-10 -12 -10 -15 4 -15 9 0 16 7 16 15 0 8 -2 15 -4 15
-2 0 -9 -7 -16 -15z"/>
<path d="M2575 2519 c-10 -15 3 -25 16 -12 7 7 7 13 1 17 -6 3 -14 1 -17 -5z"/>
<path d="M1715 2480 c3 -5 8 -10 11 -10 2 0 4 5 4 10 0 6 -5 10 -11 10 -5 0
-7 -4 -4 -10z"/>
<path d="M5040 4900 c0 -5 5 -10 10 -10 6 0 10 5 10 10 0 6 -4 10 -10 10 -5 0
-10 -4 -10 -10z"/>
<path d="M5017 4853 c-15 -14 -7 -43 12 -43 24 0 33 13 25 34 -6 16 -25 21
-37 9z"/>
<path d="M5510 3893 c-13 -3 -30 -14 -38 -24 -7 -10 -19 -19 -26 -19 -8 0 -33
-21 -57 -46 -24 -25 -65 -67 -90 -93 l-47 -46 -7 -105 c-11 -161 -10 -213 5
-369 l14 -144 -43 -38 c-32 -29 -51 -39 -77 -39 -38 0 -40 4 -20 46 10 22 11
50 5 114 -4 47 -8 136 -8 198 -1 61 -5 112 -9 112 -10 0 -52 -56 -52 -70 0 -5
-9 -15 -21 -22 -11 -7 -29 -30 -40 -50 -11 -21 -24 -38 -29 -38 -6 0 -10 -7
-10 -16 0 -9 -9 -27 -20 -41 -16 -21 -20 -41 -20 -110 0 -46 -5 -93 -10 -103
-9 -16 -54 -33 -95 -35 -5 0 -10 -7 -11 -15 -1 -31 -16 -95 -25 -107 -6 -6 -7
-23 -3 -37 4 -19 13 -26 30 -26 21 0 24 -5 24 -35 0 -41 5 -42 109 -24 51 9
98 9 206 -1 175 -16 223 -15 245 5 9 8 32 15 50 15 73 0 237 75 303 139 84 81
112 130 141 246 15 63 20 226 8 268 -6 18 -15 59 -23 92 -19 91 -92 248 -145
312 -25 32 -51 60 -58 62 -6 2 -20 11 -31 21 -22 19 -85 31 -125 23z"/>
<path d="M4915 3430 c-4 -6 -3 -16 3 -22 6 -6 12 -6 17 2 4 6 3 16 -3 22 -6 6
-12 6 -17 -2z"/>
<path d="M5872 2718 c7 -19 38 -22 38 -4 0 10 -9 16 -21 16 -12 0 -19 -5 -17
-12z"/>
<path d="M5307 2643 c-4 -3 -7 -11 -7 -17 0 -6 5 -5 12 2 6 6 9 14 7 17 -3 3
-9 2 -12 -2z"/>
<path d="M5275 2581 c-6 -11 9 -23 19 -14 9 9 7 23 -3 23 -6 0 -12 -4 -16 -9z"/>
<path d="M5450 2574 c0 -17 22 -14 28 4 2 7 -3 12 -12 12 -9 0 -16 -7 -16 -16z"/>
<path d="M5621 2547 c-14 -18 -4 -27 31 -27 31 0 39 24 12 34 -23 9 -30 8 -43
-7z"/>
<path d="M5460 2530 c0 -5 5 -10 10 -10 6 0 10 5 10 10 0 6 -4 10 -10 10 -5 0
-10 -4 -10 -10z"/>
</g>
</svg>
