<?xml version="1.0" encoding="UTF-8"?>
<svg width="512px" height="300px" viewBox="0 0 512 300" version="1.1" xmlns="http://www.w3.org/2000/svg" xmlns:xlink="http://www.w3.org/1999/xlink">
    <!-- Generator: Sketch 51.1 (57501) - http://www.bohemiancoding.com/sketch -->
    <title>Artboard</title>
    <desc>Created with Sketch.</desc>
    <defs>
        <radialGradient cx="0%" cy="100%" fx="0%" fy="100%" r="197.805741%" gradientTransform="translate(0.000000,1.000000),scale(0.585938,1.000000),rotate(-30.367637),translate(-0.000000,-1.000000)" id="radialGradient-1">
            <stop stop-color="#CBD4DC" offset="0%"></stop>
            <stop stop-color="#33393D" offset="100%"></stop>
        </radialGradient>
    </defs>
    <g id="Artboard" stroke="none" stroke-width="1" fill="none" fill-rule="evenodd">
        <rect id="Rectangle" fill="url(#radialGradient-1)" fill-rule="nonzero" x="0" y="0" width="512" height="300"></rect>
        <g id="LaTeX" transform="translate(115.000000, 81.000000)" fill="#FFFFFF" fill-rule="nonzero">
            <path d="M45.6456,36.784 L43.5556,36.784 C42.7196,45.3112 41.5492,55.6776 26.8356,55.6776 L20.064,55.6776 C16.1348,55.6776 15.9676,55.0924 15.9676,52.3336 L15.9676,7.942 C15.9676,5.0996 15.9676,3.9292 23.826,3.9292 L26.5848,3.9292 L26.5848,1.4212 C23.5752,1.672 16.0512,1.672 12.6236,1.672 C9.3632,1.672 2.8424,1.672 -1.0683255e-15,1.4212 L-8.36288891e-16,3.9292 L1.9228,3.9292 C8.36,3.9292 8.5272,4.8488 8.5272,7.8584 L8.5272,51.7484 C8.5272,54.758 8.36,55.6776 1.9228,55.6776 L-1.0683255e-15,55.6776 L-1.0683255e-15,58.2692 L43.3884,58.2692 C43.3884,58.2692 45.6456,36.784 45.6456,36.784 Z" id="path3051"></path>
            <path d="M44.2244,1.3376 C43.89,0.3344 43.7228,0 42.636,0 C41.5492,0 41.2984,0.3344 40.964,1.3376 C40.964,1.3376 27.5044,35.4464 27.5044,35.4464 C26.9192,36.8676 25.916,39.4592 20.7328,39.4592 L20.7328,41.5492 L33.6908,41.5492 L33.6908,39.4592 C31.0992,39.4592 29.5108,38.2888 29.5108,36.6168 C29.5108,36.1988 29.5944,36.0316 29.7616,35.4464 C29.7616,35.4464 32.604,28.2568 32.604,28.2568 L49.1568,28.2568 C49.1568,28.2568 52.5008,36.784 52.5008,36.784 C52.668,37.1184 52.8352,37.5364 52.8352,37.7872 C52.8352,39.4592 49.6584,39.4592 48.07,39.4592 L48.07,41.5492 L64.5392,41.5492 L64.5392,39.4592 L63.3688,39.4592 C59.4396,39.4592 59.0216,38.874 58.4364,37.202 C58.4364,37.202 44.2244,1.3376 44.2244,1.3376 Z M40.8804,7.2732 C40.8804,7.2732 48.3208,26.1668 48.3208,26.1668 L33.44,26.1668 C33.44,26.1668 40.8804,7.2732 40.8804,7.2732 Z" id="path3053"></path>
            <path d="M111.188,1.9228 L60.2756,1.9228 C60.2756,1.9228 58.7708,20.6492 58.7708,20.6492 L60.7772,20.6492 C61.9476,7.1896 63.2016,4.4308 75.8252,4.4308 C77.33,4.4308 79.5036,4.4308 80.3396,4.598 C82.0952,4.9324 82.0952,5.852 82.0952,7.7748 L82.0952,51.6648 C82.0952,54.5072 82.0952,55.6776 73.3172,55.6776 L69.9732,55.6776 L69.9732,58.2692 C73.4008,58.0184 81.8444,58.0184 85.69,58.0184 C89.5356,58.0184 98.1464,58.0184 101.574,58.2692 L101.574,55.6776 L98.23,55.6776 C89.452,55.6776 89.452,54.5072 89.452,51.6648 L89.452,7.7748 C89.452,6.1028 89.452,4.9324 90.9568,4.598 C91.8764,4.4308 94.1336,4.4308 95.722,4.4308 C108.262,4.4308 109.516,7.1896 110.6864,20.6492 L112.7764,20.6492 C112.7764,20.6492 111.188,1.9228 111.188,1.9228 Z" id="path3055"></path>
            <path d="M155.9976,55.594 L153.9076,55.594 C151.8176,68.3848 149.8948,74.4876 135.5992,74.4876 L124.564,74.4876 C120.6348,74.4876 120.4676,73.9024 120.4676,71.1436 L120.4676,48.906 L127.908,48.906 C136.0172,48.906 136.9368,51.5812 136.9368,58.6872 L139.0268,58.6872 L139.0268,36.6168 L136.9368,36.6168 C136.9368,43.7228 136.0172,46.3144 127.908,46.3144 L120.4676,46.3144 L120.4676,26.334 C120.4676,23.5752 120.6348,22.99 124.564,22.99 L135.2648,22.99 C148.0556,22.99 150.2292,27.588 151.5668,39.2084 L153.6568,39.2084 C153.6568,39.2084 151.316,20.482 151.316,20.482 L104.5,20.482 L104.5,22.99 L106.4228,22.99 C112.86,22.99 113.0272,23.9096 113.0272,26.9192 L113.0272,70.5584 C113.0272,73.568 112.86,74.4876 106.4228,74.4876 L104.5,74.4876 L104.5,77.0792 L152.4864,77.0792 C152.4864,77.0792 155.9976,55.594 155.9976,55.594 Z" id="path3057"></path>
            <path d="M181.1612,26.0832 C181.1612,26.0832 192.6144,9.3632 192.6144,9.3632 C194.37,6.688 197.2124,4.0128 204.6528,3.9292 L204.6528,1.4212 L184.756,1.4212 L184.756,3.9292 C188.1,4.0128 189.9392,5.852 189.9392,7.7748 C189.9392,8.6108 189.772,8.778 189.1868,9.6976 C189.1868,9.6976 179.6564,23.7424 179.6564,23.7424 C179.6564,23.7424 168.9556,7.6912 168.9556,7.6912 C168.7884,7.4404 168.3704,6.7716 168.3704,6.4372 C168.3704,5.434 170.2096,4.0128 173.7208,3.9292 L173.7208,1.4212 C170.8784,1.672 164.7756,1.672 161.5988,1.672 C159.0072,1.672 153.824,1.5884 150.7308,1.4212 L150.7308,3.9292 L152.3192,3.9292 C156.9172,3.9292 158.5056,4.5144 160.094,6.8552 C160.094,6.8552 175.3928,30.0124 175.3928,30.0124 C175.3928,30.0124 161.766,50.16 161.766,50.16 C160.5956,51.832 158.0876,55.6776 149.7276,55.6776 L149.7276,58.2692 L169.6244,58.2692 L169.6244,55.6776 C165.7788,55.594 164.3576,53.3368 164.3576,51.832 C164.3576,51.0796 164.6084,50.7452 165.1936,49.8256 C165.1936,49.8256 176.9812,32.3532 176.9812,32.3532 C176.9812,32.3532 190.19,52.25 190.19,52.25 C190.3572,52.5844 190.608,52.9188 190.608,53.1696 C190.608,54.1728 188.7688,55.594 185.174,55.6776 L185.174,58.2692 C188.1,58.0184 194.2028,58.0184 197.296,58.0184 C200.8072,58.0184 204.6528,58.102 208.164,58.2692 L208.164,55.6776 L206.5756,55.6776 C202.2284,55.6776 200.4728,55.2596 198.7172,52.668 C198.7172,52.668 181.1612,26.0832 181.1612,26.0832 Z" id="path3059"></path>
        </g>
        <path d="M308.306272,187.116852 C307.912666,188.199268 307.715866,189.380068 307.715866,190.659287 C307.617465,192.332112 307.568265,195.431711 307.568265,199.958179 C307.568265,204.386245 307.617465,207.633445 307.715866,209.699875 C307.912669,212.159912 307.273069,213.832712 305.797047,214.718325 C305.30504,215.210333 304.96064,215.210333 304.763837,214.718325 C303.976625,213.0455 303.091025,211.6679 302.107011,210.585484 C301.811806,210.388681 301.664206,210.241081 301.664206,210.14268 C301.762608,210.044278 301.959408,210.044278 302.254612,210.14268 C304.12424,210.536286 305.00984,210.142686 304.911438,208.961868 L304.911438,193.611316 C304.911438,189.380053 304.517838,186.674053 303.730627,185.493236 C303.632225,185.09963 303.779825,184.90283 304.173431,184.90283 C304.76384,185.099633 305.74784,185.394833 307.12546,185.788438 C307.519066,185.985241 307.765066,186.083641 307.863468,186.083641 C308.453876,186.182043 308.601476,186.526443 308.306272,187.116852 Z M314.800736,195.382534 C319.524007,198.236176 321.738007,200.892976 321.442802,203.353013 C321.344401,204.53383 320.754001,205.61623 319.671585,206.600245 C318.982774,207.092252 318.539974,206.993852 318.343172,206.305042 C318.24477,202.762589 316.86717,199.269389 314.210331,195.825338 C314.111929,195.530134 314.111929,195.333334 314.210331,195.234932 C314.308732,195.234932 314.505532,195.284132 314.800736,195.382534 Z M296.055351,196.563345 C297.826577,197.842564 298.515377,198.875764 298.121771,199.662976 C297.334559,201.92621 295.710959,204.04181 293.250923,206.009839 C292.660514,206.501846 292.217714,206.452646 291.92251,205.862237 C291.528904,205.173427 291.233704,204.533827 291.036901,203.943418 C290.938499,203.648214 291.036899,203.402214 291.332104,203.205411 C294.185746,201.335783 295.514146,199.170983 295.317343,196.710947 C295.415745,196.317341 295.661745,196.268141 296.055351,196.563345 Z M342.254609,185.345634 C342.648214,185.345634 343.238614,185.542434 344.025826,185.93604 C344.321031,186.132843 344.419431,186.378843 344.321029,186.674047 C344.124226,187.362857 344.025826,188.642057 344.025826,190.511685 L344.025826,192.725707 C343.927425,194.693737 343.878225,196.218936 343.878225,197.301353 C343.976626,197.202951 344.124226,197.153751 344.321029,197.153751 C344.517832,197.05535 344.665432,197.00615 344.763833,197.00615 C345.354242,197.00615 345.993842,196.76015 346.682652,196.268142 C347.076258,195.972938 347.420658,195.972938 347.715863,196.268142 C347.912666,196.366544 348.355466,196.760144 349.044276,197.448954 C349.33948,197.645757 349.38868,197.891757 349.191877,198.186961 C348.995074,198.77737 348.896674,200.15497 348.896674,202.319802 C348.896674,203.50062 348.847474,205.17342 348.749073,207.338252 C348.650671,209.995092 348.650671,211.864692 348.749073,212.947108 C348.847474,214.029524 348.453874,214.964324 347.568261,215.751535 C347.076254,216.04674 346.731854,215.99754 346.535051,215.603934 C345.747839,214.423116 345.059039,213.537516 344.468631,212.947108 C344.271828,212.750305 344.173428,212.602705 344.173428,212.504303 C344.173428,212.405902 344.321028,212.356702 344.616232,212.356702 C346.190655,212.848709 346.879455,212.701109 346.682652,211.913897 C346.781054,210.634678 346.830254,208.371479 346.830254,205.12423 C346.928655,202.368989 346.928655,200.302589 346.830254,198.924969 C346.928655,198.33456 346.682655,198.08856 346.092247,198.186961 C345.895444,198.186961 345.551044,198.236161 345.059036,198.334563 C344.567029,198.334563 344.173429,198.383763 343.878225,198.482164 L343.878225,202.319802 C345.157444,202.713408 346.043044,203.156208 346.535051,203.648216 C346.928657,203.746617 346.830257,204.435417 346.239848,205.714636 C346.141447,205.911439 346.043047,206.009839 345.944645,206.009839 C345.846244,206.009839 345.747844,205.911439 345.649442,205.714636 C345.157435,204.927424 344.567035,204.140224 343.878225,203.353013 C343.779823,206.305057 343.779823,208.568256 343.878225,210.14268 C343.681422,211.618702 343.238622,212.602702 342.549811,213.094709 C342.057804,212.5043 341.762604,211.9631 341.664203,211.471093 L341.664203,211.17589 C341.4674,210.48708 341.4182,209.94588 341.516601,209.552274 C341.910207,207.584245 342.205407,203.943445 342.40221,198.629766 C341.418195,198.728167 340.384995,198.875767 339.302579,199.07257 C339.400981,199.170972 339.450181,199.269372 339.450181,199.367773 C339.351779,199.958182 339.302579,201.876982 339.302579,205.12423 C340.089791,203.648208 340.384991,202.467408 340.188188,201.581795 C340.188188,201.384992 340.237388,201.237392 340.33579,201.138991 C340.434191,201.138991 340.532591,201.188191 340.630992,201.286592 C340.827795,201.384994 341.270595,201.778594 341.959406,202.467404 C342.156209,202.664207 342.156209,202.959407 341.959406,203.353013 C341.467398,203.943421 340.581798,204.878221 339.302579,206.15744 C339.105776,211.077514 338.908976,213.881914 338.712173,214.570724 C338.712173,214.865928 338.662973,215.013528 338.564572,215.013528 C338.466171,215.013528 338.318571,214.915128 338.121768,214.718325 C337.924965,214.619924 337.580565,214.324724 337.088557,213.832716 C336.793353,213.635914 336.694953,213.389914 336.793354,213.094709 C337.285362,211.12668 337.531362,207.04308 337.531362,200.843788 C337.531362,200.646985 337.482162,200.400985 337.38376,200.10578 C337.285359,199.023364 337.137759,198.236164 336.940956,197.744157 C336.940956,197.448953 337.088556,197.350553 337.38376,197.448954 C337.875768,197.645757 338.269368,197.744157 338.564572,197.744157 L338.712173,197.891758 C338.810575,197.891758 338.859775,197.940958 338.859775,198.03936 C339.253381,197.940958 339.843781,197.842558 340.630992,197.744157 C341.418204,197.547354 342.008604,197.448954 342.40221,197.448954 C342.40221,195.18572 342.35301,192.92252 342.254609,190.659287 C342.156207,188.396053 341.959407,186.772453 341.664203,185.788438 C341.664203,185.296431 341.861003,185.148831 342.254609,185.345634 Z M327.051658,193.906519 C327.051658,193.709716 327.100858,193.611316 327.199259,193.611316 C328.872084,193.611316 330.643284,193.463716 332.512912,193.168512 L332.365311,190.068881 C332.365311,187.707246 332.168511,185.591646 331.774905,183.722018 C331.676503,183.426814 331.774903,183.328414 332.070108,183.426815 C332.463713,183.623618 333.250913,184.066418 334.431731,184.755228 C334.530132,184.85363 334.628532,184.90283 334.726934,184.90283 L334.874535,185.050431 C334.972937,185.247234 335.022137,185.493234 335.022137,185.788438 L335.022137,186.378844 C334.825334,188.838881 334.726934,190.954481 334.726934,192.725707 L334.726934,192.873309 C334.923737,192.774907 335.218937,192.725707 335.612543,192.725707 C336.006149,192.627306 336.301349,192.578106 336.498151,192.578106 C336.596553,192.479704 336.694953,192.479704 336.793354,192.578106 L336.940956,192.578106 C336.940956,192.676507 336.990156,192.774907 337.088557,192.873309 C337.28536,193.168513 337.43296,193.414513 337.531362,193.611316 C337.629763,193.808119 337.580563,193.906519 337.38376,193.906519 C337.088556,193.906519 336.645756,193.955719 336.055347,194.05412 C335.366537,194.05412 334.874537,194.10332 334.579332,194.201722 L334.579332,197.891758 C335.464946,197.30135 336.301346,196.76015 337.088557,196.268142 C337.28536,196.169741 337.48216,196.169741 337.678963,196.268142 C337.777365,196.366544 337.777365,196.514144 337.678963,196.710947 C337.580562,196.809348 337.383762,196.956948 337.088557,197.153751 C336.006141,198.039364 335.169741,198.728164 334.579332,199.220172 C334.480931,201.680208 334.333331,205.173408 334.136528,209.699875 C334.038127,211.667905 333.988927,213.045505 333.988927,213.832716 C333.988927,215.111936 333.644527,216.292735 332.955716,217.375152 C332.562111,217.670356 332.266911,217.571956 332.070108,217.079949 C331.5781,215.80073 330.8893,214.71833 330.003687,213.832716 C329.806884,213.635914 329.856084,213.586714 330.151289,213.685115 L331.3321,213.685115 C331.627305,213.685115 331.774905,213.586715 331.774905,213.389912 C332.168511,209.25705 332.414511,205.075051 332.512912,200.843788 C331.135291,201.926204 329.511692,203.156204 327.642064,204.533824 C327.543662,204.632226 327.346862,204.632226 327.051658,204.533824 C326.461249,204.041817 325.920049,203.500617 325.428042,202.910208 C325.231239,202.811807 325.231239,202.664207 325.428042,202.467404 C327.100867,201.876995 329.462466,200.745395 332.512912,199.07257 L332.512912,194.496925 C332.316109,194.496925 332.020909,194.546125 331.627303,194.644526 C331.036894,194.841329 330.003694,195.136529 328.527672,195.530135 C328.429271,195.530135 328.330871,195.480935 328.23247,195.382534 C328.035667,195.284132 327.789667,194.988932 327.494462,194.496925 C327.297659,194.20172 327.150059,194.00492 327.051658,193.906519 Z M349.929885,200.253382 C350.028286,200.253382 350.175886,200.302582 350.372689,200.400983 C350.864696,200.400983 351.159896,200.499383 351.258298,200.696186 C351.455101,200.892989 351.996301,201.778589 352.881914,203.353013 C352.980315,203.451414 353.078715,203.648214 353.177117,203.943418 C353.37392,204.238623 353.47232,204.484623 353.47232,204.681426 C354.16113,202.811798 354.65313,200.991398 354.948334,199.220172 C355.046736,198.236157 355.095936,197.301357 355.095936,196.415744 C353.718315,196.710948 352.439115,197.055348 351.258298,197.448954 C350.864692,198.236166 350.421892,198.924966 349.929885,199.515375 C349.733082,199.613776 349.585482,199.662976 349.48708,199.662976 C349.388679,199.564575 349.388679,199.416975 349.48708,199.220172 C350.766299,196.071325 351.504299,192.381325 351.701102,188.150062 C351.701102,186.67404 351.651902,185.78844 351.553501,185.493236 C351.553501,185.001228 351.651901,184.853628 351.848704,185.050431 C353.029521,185.64084 353.816721,186.13284 354.210327,186.526446 C354.40713,186.624847 354.50553,186.870847 354.50553,187.264453 C353.915121,191.003709 353.078721,193.906509 351.996305,195.972939 C352.98032,195.677735 354.01352,195.333335 355.095936,194.939729 C355.883148,194.644525 356.522748,194.300125 357.014755,193.906519 C357.309959,193.709716 357.555959,193.758916 357.752762,194.05412 L358.933574,195.234932 C359.130377,195.431735 359.179577,195.579335 359.081175,195.677736 C359.081175,195.776138 358.982775,195.825338 358.785972,195.825338 C357.801958,195.923739 356.768758,196.071339 355.686342,196.268142 L356.129146,196.710947 C356.522752,197.006151 356.817952,197.301351 357.014755,197.596556 C357.113156,197.694957 357.162356,197.891757 357.162356,198.186961 C356.670349,201.139005 355.833949,203.894205 354.653131,206.452643 C355.833949,208.027067 357.162349,209.503067 358.638371,210.880687 C359.622386,211.963103 360.753986,212.750303 362.033205,213.242311 C362.328409,213.340712 362.476009,213.488312 362.476009,213.685115 C362.377608,213.685115 362.180808,213.734315 361.885603,213.832716 C361.098391,213.931118 359.917592,213.980318 358.343168,213.980318 C357.555956,214.177121 357.063956,214.078721 356.867153,213.685115 C356.670351,213.291509 356.325951,212.701109 355.833943,211.913897 C354.94833,210.437875 354.25953,209.257076 353.767523,208.371462 C352.586705,210.634696 351.061505,212.455096 349.191877,213.832716 C348.896673,214.029519 348.847473,213.980319 349.044276,213.685115 C350.520298,211.520283 351.799498,209.109483 352.881914,206.452643 C352.488308,205.56703 352.045508,204.68143 351.553501,203.795817 C350.963092,202.418196 350.323492,201.384997 349.634682,200.696186 C349.53628,200.597785 349.48708,200.499385 349.48708,200.400983 C349.585482,200.302582 349.733082,200.253382 349.929885,200.253382 Z M348.011066,189.035671 C348.011066,188.838868 348.060266,188.691268 348.158667,188.592866 C348.35547,188.592866 348.55227,188.691266 348.749073,188.888069 C348.945876,189.084872 349.191876,189.478472 349.48708,190.068881 C349.683883,190.167282 349.782283,190.265682 349.782283,190.364084 C350.077488,190.75769 350.028288,191.10209 349.634682,191.397294 C348.453864,192.381309 346.830264,193.463709 344.763833,194.644526 C344.567031,194.742928 344.419431,194.742928 344.321029,194.644526 C344.222628,194.546125 344.271828,194.398525 344.468631,194.201722 C346.928667,192.03689 348.109467,190.31489 348.011066,189.035671 Z M338.564572,194.644526 C338.466171,194.349322 338.220171,193.660522 337.826565,192.578106 C337.728163,192.086098 337.629763,191.741698 337.531362,191.544896 C337.43296,191.249691 337.48216,191.052891 337.678963,190.95449 C337.875766,190.95449 338.072566,191.05289 338.269369,191.249693 C339.450187,192.528912 340.286587,192.873312 340.778594,192.282903 C341.073798,192.0861 341.270598,192.0369 341.369,192.135301 C341.467401,192.332104 341.418201,192.578104 341.221398,192.873309 C341.122997,192.97171 340.926197,193.21771 340.630992,193.611316 C340.138985,194.201725 339.794585,194.595325 339.597782,194.792128 C339.204176,195.284135 338.859776,195.234935 338.564572,194.644526 Z M389.634678,188.740468 C387.961853,188.740468 385.846254,188.838868 383.287815,189.035671 C383.287815,189.724481 383.238615,190.708481 383.140214,191.9877 L383.140214,193.906519 C383.927426,193.906519 385.206626,193.808119 386.977852,193.611316 C388.945881,193.512915 390.471081,193.414515 391.553497,193.316113 L395.243534,192.578106 C395.63714,192.381303 395.98154,192.430503 396.276744,192.725707 C396.67035,193.119313 397.16235,193.709713 397.752759,194.496925 C397.949562,194.693728 397.998762,194.792128 397.90036,194.792128 C397.90036,194.890529 397.80196,194.939729 397.605157,194.939729 C392.488281,194.939729 386.830281,195.185729 380.630989,195.677736 C380.729391,195.677736 380.87699,195.726936 381.073793,195.825338 C381.467399,196.022141 381.959399,196.317341 382.549808,196.710947 C382.746611,196.710947 382.845011,197.055347 382.845011,197.744157 C382.845011,200.696201 382.697411,204.189401 382.402207,208.223861 C384.468637,206.452634 386.190637,204.730635 387.568258,203.05781 C388.749075,201.680189 389.290275,200.548589 389.191874,199.662976 C389.191874,199.26937 389.241074,199.02337 389.339475,198.924969 C389.437877,198.826567 389.634677,198.924967 389.929881,199.220172 C390.717093,200.007383 391.307493,200.696183 391.701099,201.286592 C392.094705,201.581796 392.094705,201.926196 391.701099,202.319802 C384.812996,210.388723 376.547397,215.554722 366.904053,217.817956 C366.116841,218.014759 365.674041,218.063959 365.57564,217.965557 C365.57564,217.867156 365.92004,217.621156 366.60885,217.22755 C372.709741,214.767513 377.531341,212.110714 381.073793,209.257071 L380.926192,209.10947 C379.646973,207.633448 378.662973,206.600248 377.974163,206.009839 C377.678958,205.813036 377.580558,205.665436 377.67896,205.567035 C377.875763,205.468633 378.121763,205.468633 378.416967,205.567035 C379.696186,206.255845 380.286586,206.157445 380.188185,205.271832 C380.286586,204.386218 380.335786,202.861019 380.335786,200.696186 C380.237385,197.940945 380.040585,196.268145 379.74538,195.677736 C374.825307,196.169744 370.987707,196.612544 368.232466,197.00615 C367.937262,197.00615 367.691262,196.90775 367.494459,196.710947 C366.805649,195.923735 366.313649,195.333335 366.018444,194.939729 C368.281678,194.742926 370.692478,194.595326 373.250916,194.496925 C373.152514,189.970457 372.906514,187.461257 372.512909,186.96925 C372.414507,186.772447 372.365307,186.624847 372.365307,186.526446 C372.463709,186.428044 372.611309,186.428044 372.808111,186.526446 C373.890528,186.920052 374.726928,187.313652 375.317336,187.707257 C375.612541,187.805659 375.760141,188.150059 375.760141,188.740468 C375.563338,191.495709 375.464938,193.414509 375.464938,194.496925 C377.137763,194.300122 378.859763,194.152522 380.630989,194.05412 C380.630989,191.495682 380.581789,189.134082 380.483388,186.96925 C380.483388,185.099622 380.138988,183.574422 379.450177,182.393605 C379.253374,181.999999 379.351774,181.901599 379.74538,182.098402 C381.024599,182.590409 382.057799,183.082409 382.845011,183.574416 C383.140215,183.672818 383.287815,184.017218 383.287815,184.607627 L383.287815,187.559656 L384.025823,187.559656 C386.190655,187.362853 387.814255,187.166053 388.896671,186.96925 C389.191875,186.96925 389.388675,187.06765 389.487077,187.264453 C389.487077,187.362855 389.585477,187.608855 389.78228,188.00246 C389.880681,188.199263 389.929881,188.346863 389.929881,188.445265 C390.028283,188.642068 389.929883,188.740468 389.634678,188.740468 Z M374.579329,199.515375 L375.612539,200.548585 C375.612539,200.745388 375.563339,200.991388 375.464938,201.286592 C374.480923,203.549826 373.004923,205.665426 371.036894,207.633455 C370.840091,207.830258 370.594091,207.781058 370.298887,207.485854 C370.298887,207.387452 370.200487,207.141452 370.003684,206.747846 C369.806881,206.452642 369.659281,206.255842 369.560879,206.15744 C369.364076,205.763835 369.413276,205.468635 369.708481,205.271832 C371.774912,203.79581 373.152511,201.92621 373.841322,199.662976 C374.038125,199.26937 374.284125,199.22017 374.579329,199.515375 Z" id="小撇步" fill="#CCD4DC"></path>
        <path d="M210.82701,190.703026 L210.82701,213.828042 L207.161771,213.828042 L207.161771,190.703026 L199,190.703026 L199,187.453432 L218.988781,187.453432 L218.988781,190.703026 L210.82701,190.703026 Z M221.822729,213.828042 L221.822729,210.729592 L225.487968,210.729592 L225.487968,190.551882 L221.822729,190.551882 L221.822729,187.453432 L232.818447,187.453432 L232.818447,190.551882 L229.153208,190.551882 L229.153208,210.729592 L232.818447,210.729592 L232.818447,213.828042 L221.822729,213.828042 Z M238.410772,213.828042 L238.410772,187.453432 L249.293132,187.453432 C250.477099,187.453432 251.535095,187.636062 252.467154,188.001328 C253.399213,188.366595 254.186413,188.889295 254.828778,189.569446 C255.471142,190.249597 255.956057,191.068285 256.283538,192.025535 C256.611018,192.982784 256.774755,194.040781 256.774755,195.199556 C256.774755,196.383523 256.611018,197.447817 256.283538,198.392471 C255.956057,199.337125 255.471142,200.149516 254.828778,200.829667 C254.186413,201.509818 253.399213,202.032518 252.467154,202.397785 C251.535095,202.763051 250.477099,202.945681 249.293132,202.945681 L242.076011,202.945681 L242.076011,213.828042 L238.410772,213.828042 Z M242.076011,199.696087 L249.141988,199.696087 C250.325955,199.696087 251.245404,199.387505 251.900364,198.770331 C252.555325,198.153157 252.8828,197.277791 252.8828,196.144206 L252.8828,194.254907 C252.8828,193.121322 252.555325,192.245956 251.900364,191.628782 C251.245404,191.011608 250.325955,190.703026 249.141988,190.703026 L242.076011,190.703026 L242.076011,199.696087 Z M269.206341,214.281474 C267.039934,214.281474 265.18844,213.878427 263.651803,213.072322 C262.115165,212.266218 260.81786,211.15784 259.759847,209.747157 L262.367079,207.404426 C263.299138,208.613584 264.325647,209.526735 265.446636,210.143909 C266.567626,210.761083 267.871229,211.069666 269.357485,211.069666 C271.171221,211.069666 272.544097,210.647727 273.476156,209.803836 C274.408215,208.959945 274.874237,207.832674 274.874237,206.421991 C274.874237,205.263215 274.534167,204.356361 273.854016,203.701401 C273.173865,203.046441 272.002511,202.542633 270.33992,202.189962 L268.110548,201.73653 C265.616661,201.232715 263.733679,200.395134 262.461544,199.223763 C261.18941,198.052392 260.553353,196.433909 260.553353,194.368265 C260.553353,193.209489 260.767471,192.170385 261.195714,191.250922 C261.623957,190.331459 262.228527,189.556854 263.009441,188.927085 C263.790355,188.297315 264.728697,187.818698 265.824496,187.491218 C266.920295,187.163738 268.148327,187 269.508629,187 C271.4987,187 273.211647,187.358963 274.647521,188.0769 C276.083395,188.794837 277.30513,189.833941 278.312761,191.194243 L275.629957,193.348044 C274.924615,192.390794 274.074439,191.628785 273.079403,191.061992 C272.084368,190.4952 270.831145,190.211808 269.319699,190.211808 C267.707489,190.211808 266.447969,190.551878 265.541101,191.232029 C264.634233,191.91218 264.180806,192.907201 264.180806,194.217121 C264.180806,195.401088 264.552365,196.289049 265.295492,196.881032 C266.03862,197.473016 267.203676,197.945336 268.790695,198.298006 L271.020068,198.751438 C273.614718,199.330826 275.510295,200.21249 276.706857,201.396456 C277.903419,202.580423 278.501691,204.192608 278.501691,206.233061 C278.501691,207.442218 278.29387,208.544298 277.878222,209.539334 C277.462574,210.53437 276.858005,211.384545 276.064495,212.089887 C275.270986,212.795229 274.294858,213.336822 273.136082,213.714684 C271.977307,214.092546 270.667406,214.281474 269.206341,214.281474 Z" id="TIPS" fill="#CCD4DC"></path>
    </g>
</svg>