<?xml version="1.0" encoding="UTF-8"?>
<svg width="512px" height="512px" viewBox="0 0 512 512" version="1.1" xmlns="http://www.w3.org/2000/svg" xmlns:xlink="http://www.w3.org/1999/xlink" style="background: #FFFFFF;">
    <!-- Generator: Sketch 45.1 (43504) - http://www.bohemiancoding.com/sketch -->
    <title>logo-mask</title>
    <desc>Created with Sketch.</desc>
    <defs></defs>
    <g id="Logo" stroke="none" stroke-width="1" fill="none" fill-rule="evenodd">
        <g id="logo" fill="#000000">
            <path d="M71,291.679688 L122.318359,291.679688 L122.318359,285.625 L79.5449219,285.625 L79.5449219,285.332031 L121.732422,226.103516 L121.732422,221.220703 L72.3671875,221.220703 L72.3671875,227.275391 L113.285156,227.275391 L113.285156,227.568359 L71,286.845703 L71,291.679688 Z M138.96875,292.119141 C141.507812,292.119141 143.509766,290.117188 143.509766,287.578125 C143.509766,284.990234 141.507812,282.988281 138.96875,282.988281 C136.429688,282.988281 134.378906,284.990234 134.378906,287.578125 C134.378906,290.117188 136.429688,292.119141 138.96875,292.119141 Z M202.787109,279.472656 L171.976562,279.472656 L171.976562,221.220703 L157.230469,221.220703 L157.230469,291.679688 L202.787109,291.679688 L202.787109,279.472656 Z M226.273438,291.679688 L226.273438,221.220703 L211.527344,221.220703 L211.527344,291.679688 L226.273438,291.679688 Z M284.134766,291.679688 L278.763672,274.589844 L254.007812,274.589844 L248.636719,291.679688 L233.5,291.679688 L257.962891,221.220703 L275.296875,221.220703 L299.808594,291.679688 L284.134766,291.679688 Z M266.214844,234.697266 L257.181641,263.554688 L275.589844,263.554688 L266.556641,234.697266 L266.214844,234.697266 Z M321.097656,291.679688 L321.097656,245.537109 L321.537109,245.537109 L354.496094,291.679688 L366.703125,291.679688 L366.703125,221.220703 L352.591797,221.220703 L352.591797,267.119141 L352.201172,267.119141 L319.291016,221.220703 L306.986328,221.220703 L306.986328,291.679688 L321.097656,291.679688 Z M441.410156,262.089844 L441.410156,254.130859 L411.722656,254.130859 L411.722656,264.873047 L427.054688,264.873047 L427.005859,265.996094 C426.712891,274.736328 420.023438,280.644531 410.404297,280.644531 C398.685547,280.644531 391.263672,271.318359 391.263672,256.035156 C391.263672,241.044922 398.246094,232.207031 409.867188,232.207031 C417.826172,232.207031 423.832031,236.601562 425.980469,243.974609 L440.775391,243.974609 C438.675781,229.716797 426.273438,220 409.818359,220 C389.115234,220 376.224609,233.671875 376.224609,256.230469 C376.224609,279.130859 389.115234,292.900391 410.160156,292.900391 C429.789062,292.900391 441.410156,281.279297 441.410156,262.089844 Z" id="Z.LIANG"></path>
        </g>
    </g>
</svg>