<?xml version="1.0" encoding="UTF-8"?>
<svg width="212px" height="31px" viewBox="0 0 212 31" version="1.1" xmlns="http://www.w3.org/2000/svg" xmlns:xlink="http://www.w3.org/1999/xlink">
    <!-- Generator: Sketch 45.1 (43504) - http://www.bohemiancoding.com/sketch -->
    <title>logo</title>
    <desc>Created with Sketch.</desc>
    <defs></defs>
    <g id="Page-1" stroke="none" stroke-width="1" fill="none" fill-rule="evenodd">
        <g id="logo" transform="translate(0.000000, -11.000000)" fill="#000000">
            <path d="M0.96,40.08 C0.96,39.7866652 1.0399992,39.4800016 1.2,39.16 L14.52,14.2 L2.44,14.2 C2.1466652,14.2 1.9066676,14.0800012 1.72,13.84 C1.5333324,13.5999988 1.44,13.3066684 1.44,12.96 C1.44,12.6399984 1.5266658,12.3600012 1.7,12.12 C1.8733342,11.8799988 2.1199984,11.76 2.44,11.76 L16.96,11.76 C17.62667,11.76 17.96,12.0399972 17.96,12.6 C17.96,12.9200016 17.8533344,13.2666648 17.64,13.64 L4.36,38.56 L17.44,38.56 C17.7600016,38.56 18.0066658,38.6799988 18.18,38.92 C18.3533342,39.1600012 18.44,39.4399984 18.44,39.76 C18.44,40.0800016 18.3533342,40.3666654 18.18,40.62 C18.0066658,40.8733346 17.7600016,41 17.44,41 L1.92,41 C1.2799968,41 0.96,40.6933364 0.96,40.08 Z M22.4,39.96 L22.4,12.72 C22.4,12.0799968 22.8399956,11.76 23.72,11.76 C24.6000044,11.76 25.04,12.0799968 25.04,12.72 L25.04,39.96 C25.04,40.2800016 24.906668,40.5333324 24.64,40.72 C24.373332,40.9066676 24.0666684,41 23.72,41 C23.3466648,41 23.0333346,40.9066676 22.78,40.72 C22.5266654,40.5333324 22.4,40.2800016 22.4,39.96 Z M31.12,39.96 L31.12,12.72 C31.12,12.0799968 31.5599956,11.76 32.44,11.76 C33.3200044,11.76 33.76,12.0799968 33.76,12.72 L33.76,38.56 L45.16,38.56 C45.7466696,38.56 46.04,38.959996 46.04,39.76 C46.04,40.5866708 45.7466696,41 45.16,41 L32.32,41 C31.9999984,41 31.7200012,40.9066676 31.48,40.72 C31.2399988,40.5333324 31.12,40.2800016 31.12,39.96 Z M48.68,32.68 L48.68,20.28 C48.68,17.346652 49.4333258,15.1933402 50.94,13.82 C52.4466742,12.4466598 54.466654,11.76 57,11.76 C59.533346,11.76 61.5533258,12.4466598 63.06,13.82 C64.5666742,15.1933402 65.32,17.346652 65.32,20.28 L65.32,32.68 C65.32,35.6400148 64.5666742,37.8066598 63.06,39.18 C61.5533258,40.5533402 59.533346,41.24 57,41.24 C54.466654,41.24 52.4466742,40.5533402 50.94,39.18 C49.4333258,37.8066598 48.68,35.6400148 48.68,32.68 Z M51.32,32.68 C51.32,36.7600204 53.2133144,38.8 57,38.8 C60.7866856,38.8 62.68,36.7600204 62.68,32.68 L62.68,20.28 C62.68,16.2266464 60.7866856,14.2 57,14.2 C53.2133144,14.2 51.32,16.2266464 51.32,20.28 L51.32,32.68 Z M71.08,39.96 L71.08,12.76 C71.08,12.09333 71.5199956,11.76 72.4,11.76 C73.1466704,11.76 73.8399968,12.3733272 74.48,13.6 L85.28,34.88 L85.28,12.72 C85.28,12.0799968 85.7199956,11.76 86.6,11.76 C87.4800044,11.76 87.92,12.0799968 87.92,12.72 L87.92,39.96 C87.92,40.2800016 87.786668,40.5333324 87.52,40.72 C87.253332,40.9066676 86.9466684,41 86.6,41 C85.93333,41 85.3466692,40.4933384 84.84,39.48 L73.72,17.84 L73.72,39.96 C73.72,40.2800016 73.586668,40.5333324 73.32,40.72 C73.053332,40.9066676 72.7466684,41 72.4,41 C72.0266648,41 71.7133346,40.9066676 71.46,40.72 C71.2066654,40.5333324 71.08,40.2800016 71.08,39.96 Z M93.68,32.68 L93.68,20.28 C93.68,17.346652 94.4333258,15.1933402 95.94,13.82 C97.4466742,12.4466598 99.4533208,11.76 101.96,11.76 C104.493346,11.76 106.519992,12.4066602 108.04,13.7 C109.560008,14.9933398 110.32,16.6533232 110.32,18.68 C110.32,19.5866712 109.880004,20.04 109,20.04 C108.146662,20.04 107.706667,19.70667 107.68,19.04 C107.306665,15.8133172 105.41335,14.2 102,14.2 C98.2133144,14.2 96.32,16.2266464 96.32,20.28 L96.32,32.68 C96.32,34.7333436 96.8133284,36.2666616 97.8,37.28 C98.7866716,38.2933384 100.186658,38.8 102,38.8 C103.813342,38.8 105.213328,38.2933384 106.2,37.28 C107.186672,36.2666616 107.68,34.7333436 107.68,32.68 L107.68,27.92 L102.32,27.92 C102.026665,27.92 101.793334,27.8066678 101.62,27.58 C101.446666,27.3533322 101.36,27.0800016 101.36,26.76 C101.36,26.4666652 101.446666,26.2066678 101.62,25.98 C101.793334,25.7533322 102.026665,25.64 102.32,25.64 L109.36,25.64 C110.000003,25.64 110.32,25.9866632 110.32,26.68 L110.32,32.68 C110.32,35.6400148 109.566674,37.8066598 108.06,39.18 C106.553326,40.5533402 104.533346,41.24 102,41.24 C99.466654,41.24 97.4466742,40.5533402 95.94,39.18 C94.4333258,37.8066598 93.68,35.6400148 93.68,32.68 Z" id="ZILONG"></path>
            <path d="M116.92,39.36 L116.92,13.36 C116.92,12.826664 117.173331,12.426668 117.68,12.16 C118.186669,11.893332 118.799996,11.76 119.52,11.76 C120.240004,11.76 120.853331,11.893332 121.36,12.16 C121.866669,12.426668 122.12,12.826664 122.12,13.36 L122.12,36.44 L131.88,36.44 C132.360002,36.44 132.739999,36.6666644 133.02,37.12 C133.300001,37.5733356 133.44,38.1066636 133.44,38.72 C133.44,39.3333364 133.300001,39.8666644 133.02,40.32 C132.739999,40.7733356 132.360002,41 131.88,41 L119.2,41 C118.586664,41 118.053336,40.8533348 117.6,40.56 C117.146664,40.2666652 116.92,39.8666692 116.92,39.36 Z M136.28,39.36 L136.28,13.36 C136.28,12.826664 136.533331,12.426668 137.04,12.16 C137.546669,11.893332 138.159996,11.76 138.88,11.76 C139.600004,11.76 140.213331,11.893332 140.72,12.16 C141.226669,12.426668 141.48,12.826664 141.48,13.36 L141.48,39.36 C141.48,39.8666692 141.220003,40.2666652 140.7,40.56 C140.179997,40.8533348 139.573337,41 138.88,41 C138.159996,41 137.546669,40.8533348 137.04,40.56 C136.533331,40.2666652 136.28,39.8666692 136.28,39.36 Z M144.24,38.84 C144.24,38.7866664 144.266666,38.6533344 144.32,38.44 L152.04,13.28 C152.200001,12.7199972 152.59333,12.2866682 153.22,11.98 C153.84667,11.6733318 154.559996,11.52 155.36,11.52 C156.160004,11.52 156.879997,11.6733318 157.52,11.98 C158.160003,12.2866682 158.559999,12.7199972 158.72,13.28 L166.44,38.44 C166.493334,38.6533344 166.52,38.7866664 166.52,38.84 C166.52,39.4266696 166.160004,39.9333312 165.44,40.36 C164.719996,40.7866688 163.98667,41 163.24,41 C162.253328,41 161.666668,40.6533368 161.48,39.96 L159.96,34.64 L150.8,34.64 L149.28,39.96 C149.093332,40.6533368 148.506672,41 147.52,41 C146.746663,41 146.00667,40.7933354 145.3,40.38 C144.59333,39.9666646 144.24,39.4533364 144.24,38.84 Z M151.88,30.56 L158.84,30.56 L155.36,18.28 L151.88,30.56 Z M169.28,39.36 L169.28,13.4 C169.28,12.866664 169.533331,12.4600014 170.04,12.18 C170.546669,11.8999986 171.159996,11.76 171.88,11.76 C172.840005,11.76 173.573331,11.9333316 174.08,12.28 C174.586669,12.6266684 175.146664,13.3733276 175.76,14.52 L183.48,29.44 L183.48,13.36 C183.48,12.826664 183.733331,12.426668 184.24,12.16 C184.746669,11.893332 185.359996,11.76 186.08,11.76 C186.800004,11.76 187.413331,11.893332 187.92,12.16 C188.426669,12.426668 188.68,12.826664 188.68,13.36 L188.68,39.36 C188.68,39.8666692 188.420003,40.2666652 187.9,40.56 C187.379997,40.8533348 186.773337,41 186.08,41 C184.66666,41 183.66667,40.4533388 183.08,39.36 L174.48,23.28 L174.48,39.36 C174.48,39.8666692 174.220003,40.2666652 173.7,40.56 C173.179997,40.8533348 172.573337,41 171.88,41 C171.159996,41 170.546669,40.8533348 170.04,40.56 C169.533331,40.2666652 169.28,39.8666692 169.28,39.36 Z M193.16,32.08 L193.16,20.92 C193.16,17.7733176 194.006658,15.4600074 195.7,13.98 C197.393342,12.4999926 199.61332,11.76 202.36,11.76 C205.186681,11.76 207.486658,12.4533264 209.26,13.84 C211.033342,15.2266736 211.92,17.0933216 211.92,19.44 C211.92,20.4000048 211.713335,21.0533316 211.3,21.4 C210.886665,21.7466684 210.226671,21.92 209.32,21.92 C207.613325,21.92 206.746667,21.3733388 206.72,20.28 C206.64,19.1066608 206.30667,18.153337 205.72,17.42 C205.13333,16.686663 204.080008,16.32 202.56,16.32 C199.759986,16.32 198.36,17.853318 198.36,20.92 L198.36,32.08 C198.36,35.146682 199.746653,36.68 202.52,36.68 C203.85334,36.68 204.886663,36.2933372 205.62,35.52 C206.353337,34.7466628 206.72,33.6000076 206.72,32.08 L206.72,29.72 L203.48,29.72 C202.973331,29.72 202.580001,29.520002 202.3,29.12 C202.019999,28.719998 201.88,28.2400028 201.88,27.68 C201.88,27.146664 202.026665,26.6733354 202.32,26.26 C202.613335,25.8466646 202.999998,25.64 203.48,25.64 L210.28,25.64 C210.786669,25.64 211.186665,25.806665 211.48,26.14 C211.773335,26.473335 211.92,26.8666644 211.92,27.32 L211.92,32.08 C211.92,35.2533492 211.066675,37.573326 209.36,39.04 C207.653325,40.506674 205.373348,41.24 202.52,41.24 C199.666652,41.24 197.393342,40.506674 195.7,39.04 C194.006658,37.573326 193.16,35.2533492 193.16,32.08 Z" id="LIANG"></path>
        </g>
    </g>
</svg>