<?xml version="1.0" encoding="UTF-8"?>
<svg width="512px" height="512px" viewBox="0 0 512 512" version="1.1" xmlns="http://www.w3.org/2000/svg" xmlns:xlink="http://www.w3.org/1999/xlink">
    <!-- Generator: Sketch 45.1 (43504) - http://www.bohemiancoding.com/sketch -->
    <title>Zilong Liang (2)</title>
    <desc>Created with Sketch.</desc>
    <defs></defs>
    <g id="Page-1" stroke="none" stroke-width="1" fill="none" fill-rule="evenodd">
        <g id="Zilong-Liang-(2)">
            <rect id="Rectangle" fill="#10223E" x="0" y="0" width="512" height="512" rx="100"></rect>
            <path d="M235.8,278.2 L226.5,278.2 C224.1,319.9 217.5,348.1 160.8,348.1 L107.7,348.1 L231.6,165.7 C234,162.1 234,160.9 234,159.4 C234,154 231,154 225.6,154 L83.1,154 L79.5,222.1 L88.8,222.1 C91.2,177.7 111.9,163.9 151.5,163.9 L201.6,163.9 L77.4,346.6 C75,350.2 75,351.7 75,353.2 C75,358.9 77.7,358.9 83.4,358.9 L230.4,358.9 L235.8,278.2 Z M437.7,280.9 L428.4,280.9 C424.8,312.1 420.3,349 365.4,349 L337.5,349 C323.7,349 323.1,346.9 323.1,336.7 L323.1,178.6 C323.1,168.1 323.1,163.9 351.3,163.9 L360.9,163.9 L360.9,154 C347.4,154.9 325.5,154.9 311.4,154.9 L265.2,154 L265.2,163.9 L271.8,163.9 C294.9,163.9 295.5,167.2 295.5,178.3 L295.5,334.6 C295.5,345.7 294.9,349 271.8,349 L265.2,349 L265.2,358.9 L429,358.9 L437.7,280.9 Z" id="ZL" fill="#FFFFFF"></path>
        </g>
    </g>
</svg>