<?xml version="1.0" standalone="no"?>
<!DOCTYPE svg PUBLIC "-//W3C//DTD SVG 20010904//EN"
 "http://www.w3.org/TR/2001/REC-SVG-20010904/DTD/svg10.dtd">
<svg version="1.0" xmlns="http://www.w3.org/2000/svg"
 width="512.000000pt" height="512.000000pt" viewBox="0 0 512.000000 512.000000"
 preserveAspectRatio="xMidYMid meet">
<metadata>
Created by potrace 1.14, written by Peter Selinger 2001-2017
</metadata>
<g transform="translate(0.000000,512.000000) scale(0.100000,-0.100000)"
fill="#000000" stroke="none">
<path d="M4640 4519 c-250 -3 -1397 -5 -2548 -4 l-2093 2 2 -506 c0 -369 4
-510 12 -520 9 -12 9 -13 0 -7 -8 4 -13 1 -13 -8 0 -10 6 -13 16 -9 15 5 14 3
-1 -21 -14 -22 -16 -31 -6 -49 6 -12 9 -14 7 -4 -3 9 -1 17 4 17 15 0 12 -30
-4 -36 -10 -4 -14 -23 -13 -66 l1 -60 30 6 c28 6 29 5 11 -8 -16 -12 -17 -16
-6 -30 8 -9 11 -19 8 -23 -4 -3 -9 1 -13 10 -6 16 -34 12 -34 -5 0 -5 6 -6 13
-2 9 6 9 4 1 -7 -7 -8 -11 -53 -11 -105 0 -89 1 -92 28 -108 18 -10 30 -13 34
-6 3 5 2 10 -4 10 -6 0 -7 8 -4 18 6 15 5 16 -12 2 -17 -14 -18 -13 -12 3 3 9
2 17 -2 17 -5 0 -11 7 -15 15 -9 24 30 0 50 -30 14 -21 14 -26 -1 -48 -19 -29
-4 -47 21 -26 12 10 15 10 12 -2 -2 -8 3 -13 11 -11 8 2 11 -3 8 -12 -4 -10
-1 -13 9 -9 21 8 20 40 -2 35 -22 -4 -17 15 6 21 11 3 20 1 20 -4 0 -5 5 -9
11 -9 5 0 8 4 5 8 -3 5 11 14 31 20 29 9 39 9 45 -1 6 -9 8 -9 8 1 0 6 7 12
16 12 14 0 14 -1 0 -16 -18 -17 -21 -28 -6 -19 5 3 10 2 10 -3 0 -9 25 -9 50
1 8 3 24 7 35 9 12 2 19 11 19 21 -2 15 21 23 50 18 5 -1 4 4 -2 12 -7 8 -11
16 -9 18 1 2 -2 -1 -8 -7 -16 -17 -39 -6 -24 12 8 10 8 14 0 14 -10 0 -13 -7
-10 -26 2 -17 -26 -21 -38 -6 -12 16 -12 15 -7 -2 6 -17 5 -17 -17 -6 -22 12
-23 12 -10 -4 8 -10 25 -16 39 -14 14 2 27 -2 29 -8 2 -6 -2 -11 -9 -11 -7 0
-30 -3 -52 -7 -32 -5 -37 -4 -28 7 9 10 7 19 -9 35 -25 28 -32 28 -24 0 5 -15
-11 -3 -48 36 -32 34 -59 56 -66 52 -6 -4 -11 -2 -11 4 0 6 -4 8 -10 5 -5 -3
-10 1 -10 10 0 9 -6 15 -12 12 -7 -2 -12 -11 -12 -20 1 -10 -3 -14 -10 -11 -6
3 -3 -1 7 -9 9 -8 17 -17 17 -20 0 -4 -8 -4 -17 -1 -15 5 -16 4 -3 -5 19 -14
50 -14 50 0 0 5 -4 8 -8 5 -5 -3 -9 1 -9 7 0 15 54 10 64 -6 4 -6 -2 -8 -15
-5 -14 4 -22 2 -22 -7 0 -8 7 -11 20 -8 12 3 22 -1 26 -10 3 -9 12 -13 20 -10
32 12 0 -28 -33 -42 -43 -18 -46 -18 -38 -2 4 6 1 5 -7 -4 -7 -8 -20 -18 -29
-21 -14 -5 -15 -3 -5 17 6 13 15 21 21 18 5 -2 2 2 -7 10 -10 8 -18 19 -18 26
0 6 -6 11 -14 11 -19 0 -29 17 -20 32 14 22 11 48 -4 48 -19 0 -7 13 14 16 9
1 23 5 32 9 14 5 14 7 2 15 -13 8 -13 10 2 10 9 0 18 -5 20 -12 3 -8 10 -8 26
4 12 8 19 18 15 21 -3 4 -12 2 -18 -3 -9 -8 -14 -6 -18 4 -4 9 -3 17 1 19 11
6 72 -22 72 -33 0 -19 29 -10 35 11 4 13 12 18 22 15 8 -3 19 -6 24 -6 5 0 9
-5 9 -10 0 -6 -11 -8 -26 -4 -19 5 -25 4 -20 -5 4 -6 14 -11 22 -11 8 0 14 -4
14 -10 0 -5 5 -10 11 -10 5 0 7 5 4 10 -3 6 1 10 9 10 9 0 16 5 16 11 0 5 -4
8 -9 5 -5 -3 -11 1 -15 9 -3 9 3 19 17 26 20 11 21 11 8 -5 -12 -14 -12 -16 2
-10 12 4 14 1 10 -15 -3 -13 -1 -21 6 -21 7 0 9 5 5 12 -4 7 -3 8 5 4 9 -6 9
-11 0 -22 -7 -9 -8 -14 -1 -14 6 0 14 5 17 10 8 12 25 13 25 1 0 -13 -54 -24
-58 -12 -5 16 -42 -6 -42 -24 0 -8 7 -15 15 -15 8 0 15 3 15 8 0 4 18 7 40 7
22 0 40 -3 40 -7 0 -5 -9 -8 -19 -8 -21 0 -37 -17 -27 -27 4 -4 12 -1 18 5 17
17 28 15 21 -5 -4 -11 -3 -14 5 -9 7 4 12 2 12 -3 0 -6 8 -11 18 -11 13 0 14
2 3 9 -7 5 -10 14 -7 20 4 6 4 10 -1 9 -4 -2 -9 1 -11 7 -6 16 15 17 31 0 9
-9 13 -23 10 -33 -6 -14 -4 -15 9 -5 8 7 18 9 23 5 4 -4 2 3 -6 15 -11 18 -11
25 -1 35 11 11 12 9 6 -6 -6 -15 -4 -17 6 -11 9 5 11 4 6 -3 -4 -7 -1 -12 9
-12 9 0 13 5 10 10 -3 6 1 10 10 10 11 0 15 -5 11 -16 -3 -8 -2 -12 4 -9 6 3
10 14 10 23 0 10 3 13 8 7 9 -13 35 -18 27 -5 -3 5 0 10 7 10 8 0 14 -9 14
-21 0 -14 -5 -19 -18 -16 -10 3 -18 1 -18 -4 0 -5 -9 -9 -19 -9 -11 0 -23 -5
-27 -11 -5 -8 0 -10 17 -6 29 7 53 -5 47 -24 -3 -8 5 -21 16 -29 31 -23 76
-41 76 -31 0 5 -8 12 -17 14 -15 4 -15 6 4 12 13 4 23 11 23 15 0 19 -13 39
-21 34 -5 -3 -7 -10 -3 -15 8 -14 -15 -39 -35 -38 -10 0 -11 2 -3 6 18 7 15
21 -4 19 -9 0 -19 5 -22 13 -3 9 0 11 9 7 8 -4 5 0 -5 8 -11 9 -17 19 -13 22
4 4 14 1 24 -7 10 -9 14 -9 9 -2 -4 7 -9 28 -11 46 -4 32 -3 33 25 29 17 -2
30 -8 30 -13 0 -5 7 -6 15 -3 18 7 20 -3 2 -20 -17 -17 -37 -9 -30 12 4 13 2
12 -10 -3 -14 -18 -14 -20 4 -23 10 -2 19 -8 19 -13 0 -5 9 -9 21 -9 13 0 18
-4 13 -12 -5 -8 0 -9 14 -6 15 4 22 2 22 -8 0 -16 16 -19 24 -5 4 5 0 11 -6
14 -10 4 -11 7 0 18 21 23 13 32 -13 15 -15 -10 -25 -12 -25 -6 0 7 -9 9 -22
5 l-23 -6 23 18 c24 20 46 103 23 89 -6 -4 -9 -16 -6 -25 3 -12 0 -18 -10 -18
-17 0 -20 23 -5 32 6 4 8 16 5 28 -5 17 -4 19 4 7 9 -13 11 -13 11 1 0 25 -12
30 -26 11 -11 -14 -13 -14 -14 -2 0 13 -1 13 -11 0 -8 -12 -10 -11 -7 5 2 11
10 20 18 20 8 0 21 7 28 15 11 13 11 13 6 -1 -3 -10 1 -19 11 -23 9 -3 13 -10
10 -16 -3 -5 -1 -10 4 -10 6 0 11 5 11 10 0 6 4 10 10 10 5 0 8 -15 6 -34 -4
-28 -1 -35 16 -39 21 -6 21 -28 -2 -35 -9 -3 -11 1 -7 12 4 11 3 15 -4 10 -6
-4 -15 0 -20 7 -6 9 -9 10 -9 2 0 -6 5 -15 10 -18 6 -4 8 -10 5 -15 -3 -4 11
-7 30 -5 l35 2 -25 -23 c-25 -23 -34 -41 -15 -29 6 3 10 0 10 -7 0 -10 3 -9
11 2 8 11 12 12 16 3 2 -7 11 -13 19 -13 8 0 17 -7 20 -15 4 -8 10 -12 15 -9
5 3 9 -1 9 -9 0 -20 23 -37 38 -29 15 10 2 56 -16 60 -8 1 -11 -2 -7 -8 8 -12
-5 -13 -24 -1 -10 7 -11 13 -2 30 13 23 64 30 77 10 4 -8 -3 -9 -24 -4 -16 3
-32 2 -35 -2 -3 -5 3 -10 14 -11 10 -1 28 -3 39 -4 23 -3 26 -16 5 -24 -12 -5
-12 -9 3 -29 9 -13 20 -21 25 -18 4 2 2 -7 -4 -21 -9 -18 -16 -23 -24 -16 -7
5 -15 7 -18 3 -4 -3 1 -12 11 -20 15 -13 15 -13 -4 -4 -12 6 -25 7 -30 3 -5
-4 0 3 10 15 10 13 22 20 27 18 4 -3 10 -1 13 4 10 15 -23 21 -37 7 -10 -10
-18 -11 -31 -4 -12 7 -21 7 -25 1 -3 -6 -17 -14 -31 -18 -24 -7 -24 -7 -5 9
21 16 10 22 -14 7 -10 -7 -11 -13 -2 -30 7 -11 14 -21 17 -21 3 0 2 5 -1 10
-3 6 -1 10 4 10 6 0 11 -4 11 -10 0 -5 9 -14 20 -20 24 -13 27 2 5 23 -13 13
-12 17 2 29 14 11 16 11 11 -2 -2 -8 1 -20 8 -27 17 -17 64 -35 64 -24 0 14
48 0 54 -16 7 -17 -1 -33 -16 -33 -7 0 -7 5 1 14 22 27 -19 28 -54 2 -21 -16
-40 -23 -54 -19 -13 3 -21 1 -21 -7 0 -6 6 -10 13 -7 6 2 22 0 35 -4 21 -8 27
-2 23 24 0 4 6 7 14 7 8 0 15 5 15 10 0 6 4 10 9 10 6 0 9 -8 9 -17 0 -10 3
-27 7 -37 6 -14 5 -17 -3 -12 -7 4 -20 2 -29 -4 -15 -9 -14 -10 6 -4 15 4 21
2 17 -4 -4 -6 2 -8 14 -5 14 4 20 0 20 -11 0 -10 6 -13 15 -10 18 7 19 3 3
-31 -16 -35 -47 -33 -36 3 2 4 6 6 10 5 4 -2 5 4 2 12 -4 8 -10 15 -16 15 -5
0 -6 -4 -3 -10 8 -13 3 -13 -30 0 -24 9 -26 8 -20 -12 5 -18 4 -20 -4 -8 -6 8
-11 25 -11 36 0 13 -8 24 -20 27 -23 6 -28 -8 -6 -16 8 -3 17 -19 21 -35 7
-35 35 -52 35 -22 0 11 5 20 11 20 5 0 7 -4 4 -10 -3 -5 -1 -10 6 -10 8 0 7
-5 -2 -17 -12 -15 -12 -16 3 -10 25 9 28 -15 5 -34 -20 -16 -20 -16 9 -23 18
-5 30 -3 32 3 2 6 8 9 13 5 5 -3 9 0 9 6 0 8 -9 10 -26 6 -25 -7 -25 -6 -10 9
9 10 24 14 33 11 14 -6 14 -4 2 11 -12 16 -12 17 1 8 8 -6 31 -10 51 -10 20 0
42 -6 48 -13 10 -10 6 -12 -22 -9 -19 2 -39 7 -44 10 -6 4 -14 0 -17 -9 -4
-12 -1 -14 14 -9 15 5 18 3 14 -9 -3 -9 -10 -13 -15 -10 -15 9 -45 -13 -46
-35 -2 -25 9 -27 27 -6 10 12 10 15 0 15 -8 0 -11 2 -8 5 3 3 17 1 31 -4 18
-7 27 -7 29 1 3 7 13 5 31 -7 15 -9 34 -15 42 -11 8 3 15 1 15 -4 0 -6 -5 -10
-11 -10 -5 0 -7 -5 -3 -12 8 -13 -12 -3 -38 19 -12 11 -21 12 -35 4 -10 -6
-14 -11 -9 -11 5 0 3 -7 -4 -15 -7 -8 -17 -12 -23 -8 -6 3 -7 1 -3 -6 5 -7 24
-10 51 -7 34 3 42 1 38 -10 -3 -8 1 -14 8 -14 7 0 10 -3 7 -6 -4 -3 -17 0 -30
7 -12 7 -35 12 -50 11 -19 -2 -28 4 -33 18 -4 11 -11 18 -16 15 -5 -4 -16 1
-25 9 -8 9 -23 16 -32 16 -14 0 -15 2 -2 10 9 6 17 5 22 -3 5 -8 8 -9 8 -1 0
6 -7 17 -15 24 -8 7 -15 8 -15 4 0 -5 -16 -14 -35 -20 -23 -7 -35 -8 -35 -1 0
6 -3 7 -7 3 -11 -11 -12 -66 -2 -66 5 0 9 4 9 8 0 4 9 8 21 9 18 2 19 0 7 -15
-7 -9 -17 -20 -23 -24 -5 -4 2 -8 18 -8 27 0 36 -13 16 -26 -8 -4 -7 -9 2 -15
20 -12 26 -11 33 7 3 8 2 12 -4 9 -6 -3 -10 -1 -10 4 0 6 9 11 20 11 13 0 18
5 14 15 -8 21 2 19 26 -5 20 -20 20 -20 0 -20 -11 0 -27 -11 -35 -24 -26 -40
-100 -57 -102 -23 -2 18 -1 18 16 3 24 -22 32 -20 27 7 -2 12 0 27 4 32 5 6
-4 10 -23 11 -26 1 -28 0 -14 -11 24 -17 21 -28 -4 -20 -19 6 -21 4 -16 -14 4
-18 2 -20 -17 -15 -15 3 -28 -1 -37 -12 -13 -16 -12 -17 6 -10 22 8 25 9 43 7
6 0 12 -6 12 -12 0 -5 -5 -7 -11 -4 -5 4 -19 -1 -29 -10 -10 -9 -25 -14 -32
-10 -7 3 -5 0 5 -8 23 -19 22 -30 -3 -22 -14 5 -20 2 -20 -9 0 -18 25 -22 35
-6 10 17 25 11 19 -7 -3 -10 2 -7 11 7 l16 25 -6 -28 c-4 -22 -3 -27 7 -21 7
4 5 -2 -5 -13 -19 -21 -23 -38 -7 -28 18 11 50 14 50 4 0 -5 -6 -9 -14 -9 -8
0 -17 -4 -20 -9 -4 -5 2 -8 11 -6 10 1 28 -4 40 -11 24 -15 31 -6 12 13 -8 8
-8 13 0 17 6 4 11 0 11 -8 0 -12 6 -13 30 -6 19 5 28 5 25 -1 -4 -5 -13 -9
-20 -9 -17 0 -34 -30 -28 -50 3 -10 0 -9 -7 3 -6 9 -20 17 -31 17 -11 0 -18 4
-14 9 3 6 -6 8 -20 5 -14 -2 -25 0 -25 5 0 5 -13 19 -28 30 -43 30 -38 -2 7
-47 30 -30 32 -35 13 -30 -19 5 -22 3 -17 -12 5 -16 2 -18 -21 -14 -21 4 -25
2 -20 -11 4 -13 2 -14 -14 -5 -11 6 -20 15 -20 21 0 6 5 7 10 4 6 -3 10 4 10
17 l1 23 21 -25 c21 -24 21 -24 15 -2 -3 12 -1 20 4 16 5 -3 9 -2 9 3 0 11
-51 53 -64 53 -6 0 -2 -7 8 -15 17 -13 17 -15 3 -21 -10 -3 -17 -12 -17 -20 0
-8 -4 -14 -10 -14 -5 0 -7 7 -4 15 10 24 -12 17 -30 -10 -19 -29 -21 -44 -4
-27 7 7 18 12 26 12 10 0 8 -8 -7 -33 l-21 -34 25 -11 c19 -9 25 -9 25 0 0 6
3 9 6 5 3 -3 2 -12 -3 -21 -8 -14 -12 -13 -41 4 -27 17 -31 23 -23 39 6 10 7
22 3 26 -9 9 -10 55 -1 49 4 -2 13 4 20 13 12 15 12 16 -4 10 -10 -4 -23 -7
-28 -7 -5 0 -9 -9 -9 -19 0 -11 -5 -23 -10 -26 -6 -4 -8 -11 -4 -16 3 -6 0
-10 -7 -8 -36 4 -41 -3 -12 -16 22 -9 33 -21 33 -35 0 -12 4 -18 10 -15 11 7
14 -8 4 -18 -8 -8 -33 16 -27 26 2 4 -4 10 -14 14 -10 3 -26 13 -35 20 -9 8
-23 12 -30 8 -7 -3 -4 1 6 9 11 9 17 19 13 22 -4 4 -13 1 -22 -6 -18 -15 -20
1 -3 18 9 9 9 12 1 12 -7 0 -15 -9 -18 -20 -3 -11 -13 -20 -22 -20 -8 0 -17
-9 -20 -20 -3 -11 -9 -18 -13 -15 -4 3 -19 -4 -32 -14 -13 -11 -28 -16 -34
-13 -13 10 -17 52 -4 52 6 0 9 -4 6 -9 -3 -5 1 -14 8 -20 9 -8 17 -8 20 -2 3
5 0 11 -6 14 -10 3 -10 7 1 21 12 15 12 16 -5 10 -17 -5 -17 -4 -3 8 9 7 14
20 11 28 -3 8 7 2 22 -14 l27 -28 19 23 c24 27 25 30 3 22 -17 -5 -17 -5 0 13
11 12 20 15 25 9 4 -5 17 -16 29 -22 19 -11 21 -10 17 2 -4 9 1 18 12 22 11 4
19 2 22 -6 3 -8 8 -7 16 5 15 20 65 28 82 13 8 -7 14 -7 19 1 3 5 -1 13 -9 16
-22 8 3 33 26 26 14 -3 17 0 12 12 -4 11 0 16 14 16 11 0 22 -4 24 -9 2 -5 10
-2 18 7 13 14 12 15 -3 9 -10 -4 -17 -2 -17 4 0 6 -9 9 -20 6 -25 -6 -40 12
-29 38 11 28 11 43 -1 25 -8 -13 -10 -13 -10 2 0 9 6 18 12 21 7 2 5 3 -5 1
-25 -4 -89 25 -82 36 3 6 -1 10 -9 10 -9 0 -16 5 -16 11 0 5 4 7 10 4 6 -3 7
1 4 9 -3 9 -9 15 -12 14 -19 -2 -33 3 -28 11 9 14 -18 20 -34 7 -13 -9 -12
-14 7 -33 13 -12 25 -18 28 -13 3 4 -2 10 -10 14 -8 3 -15 11 -15 17 0 7 8 5
20 -6 25 -23 25 -26 -1 -54 -17 -18 -23 -20 -30 -9 -6 9 -9 9 -9 1 0 -6 5 -15
10 -18 6 -4 7 -11 4 -17 -5 -7 2 -9 22 -4 16 4 37 8 46 9 9 1 14 5 12 9 -3 4
-1 8 5 8 5 0 15 -8 20 -17 6 -10 11 -13 11 -6 0 7 7 10 15 7 25 -10 -1 -32
-33 -27 -26 4 -26 4 -8 -11 18 -14 22 -14 44 0 18 12 23 13 20 3 -3 -8 -19
-18 -36 -23 -18 -5 -32 -14 -32 -21 0 -12 -31 -45 -43 -45 -3 0 -13 7 -21 16
-15 14 -16 12 -16 -19 0 -44 -19 -62 -46 -43 -18 13 -22 11 -43 -10 -13 -13
-18 -24 -12 -24 6 0 11 -4 11 -10 0 -19 -17 -10 -28 15 -10 22 -10 25 4 23 10
-2 19 3 22 11 3 8 0 11 -7 7 -6 -4 -11 -1 -11 6 0 7 -14 -2 -30 -19 -16 -18
-36 -33 -44 -33 -18 0 -29 27 -14 36 7 4 6 9 -3 15 -7 4 -10 11 -7 14 12 13
29 -7 23 -26 -4 -10 -2 -19 4 -19 16 0 52 43 42 50 -12 7 -1 24 17 28 7 1 22
-2 32 -8 11 -6 20 -7 20 -2 0 5 -18 14 -40 20 -25 6 -40 6 -40 0 0 -5 -4 -6
-10 -3 -6 4 -6 -4 0 -21 7 -16 7 -31 2 -36 -6 -6 -12 1 -16 16 -7 27 -20 34
-31 16 -10 -17 -35 -11 -35 8 0 15 2 15 11 2 8 -12 9 -10 4 8 -6 22 10 32 17
10 3 -8 12 -4 26 10 12 12 25 22 30 23 4 1 18 7 32 15 23 12 23 13 4 14 -30 0
-36 11 -16 27 15 13 15 13 -6 3 -18 -9 -23 -8 -28 5 -8 21 5 34 15 16 6 -9 8
-3 8 17 -1 17 -5 28 -10 25 -4 -2 -14 1 -22 7 -12 10 -20 9 -40 -4 -35 -23
-39 -20 -15 14 12 17 16 30 10 30 -7 0 -14 -9 -17 -20 -7 -27 -23 -26 -20 1 1
14 -4 23 -16 24 -9 2 -15 0 -12 -5 8 -12 -48 -19 -68 -8 -10 5 -25 7 -33 4
-10 -4 -14 0 -12 11 2 9 -3 18 -10 20 -9 4 -10 -2 -2 -23 8 -19 8 -30 0 -38
-7 -7 -10 -6 -10 3 0 8 -6 11 -16 7 -8 -3 -13 -2 -11 2 3 4 -3 15 -13 25 -15
16 -18 16 -30 2 -11 -13 -10 -14 6 -8 17 6 17 5 5 -10 -12 -15 -12 -17 4 -11
15 6 16 4 6 -12 -23 -42 -33 -50 -26 -24 6 19 5 22 -5 14 -7 -7 -9 -21 -5 -35
7 -21 8 -22 20 -5 12 16 14 16 20 -3 3 -12 4 -25 0 -30 -3 -5 -1 -12 5 -16 6
-4 8 -10 5 -15 -7 -12 37 -9 52 3 19 14 16 -8 -2 -23 -8 -7 -24 -10 -34 -7
-11 3 -22 0 -25 -7 -3 -7 -8 -6 -15 4 -6 9 -7 16 -1 18 20 7 9 20 -12 15 -20
-4 -21 -3 -5 7 9 6 17 16 17 21 0 6 -4 8 -9 4 -5 -3 -16 2 -24 10 -9 8 -20 15
-26 15 -6 0 -11 4 -11 10 0 5 7 7 15 4 17 -7 20 12 6 48 -5 13 -9 27 -9 32 0
5 -6 13 -14 17 -10 7 -10 9 0 9 10 0 10 5 2 20 -6 11 -16 20 -23 19 -9 0 -9
-2 1 -6 6 -2 12 -9 12 -14 0 -6 -4 -7 -10 -4 -13 8 -13 -1 0 -25 7 -13 7 -21
-2 -26 -6 -4 -8 -3 -4 4 3 6 -3 13 -14 17 -21 7 -28 25 -9 25 5 0 7 5 3 11
-10 17 -24 -10 -24 -48 0 -18 4 -33 10 -33 5 0 7 6 4 14 -3 8 0 17 6 21 6 4
11 1 9 -6 -3 -27 1 -35 20 -35 11 0 17 5 14 13 -3 7 -1 13 5 13 5 0 12 -11 14
-25 6 -27 -1 -32 -19 -14 -6 6 -16 8 -22 5 -7 -4 1 -18 19 -36 25 -25 27 -29
10 -27 -13 1 -20 9 -20 22 0 18 -3 16 -25 -10 -13 -16 -24 -34 -24 -40 0 -5 6
-2 13 8 14 19 36 23 36 7 0 -5 -4 -10 -10 -10 -5 0 -7 -7 -4 -15 5 -11 2 -14
-12 -9 -17 6 -17 5 1 -9 19 -15 20 -14 27 12 6 22 14 27 40 28 33 2 33 2 8
-10 -29 -13 -41 -27 -34 -39 3 -4 0 -8 -6 -8 -7 0 -10 -7 -7 -14 4 -10 1 -13
-8 -9 -8 3 -13 9 -10 13 4 7 -17 20 -31 20 -4 0 -2 -28 5 -91 2 -12 39 -17 50
-6 17 17 13 31 -4 17 -13 -11 -14 -10 -8 6 6 17 5 17 -10 5 -15 -12 -17 -12
-11 2 6 18 44 19 56 2 5 -6 12 -5 20 3 9 9 9 12 -1 12 -11 0 -11 3 -1 15 10
12 10 15 -4 15 -9 0 -16 -5 -16 -12 0 -6 -3 -8 -6 -5 -4 4 -1 13 6 22 9 11 9
15 1 15 -7 0 -10 4 -7 9 8 12 46 2 47 -13 1 -6 1 -17 0 -24 -1 -8 6 -13 16
-12 32 4 44 0 38 -10 -4 -6 -15 -8 -24 -5 -10 3 -30 -4 -45 -16 -21 -17 -24
-24 -15 -35 9 -11 9 -14 -1 -14 -10 0 -10 -3 0 -15 19 -23 27 -18 26 14 -1 20
-5 27 -16 24 -13 -4 -13 -4 0 6 23 16 33 13 27 -9 -5 -21 9 -28 15 -8 3 7 7 2
11 -11 3 -13 3 -21 0 -18 -3 3 -14 -3 -26 -13 -20 -19 -20 -19 -37 0 -16 18
-18 19 -24 4 -4 -9 -9 -14 -13 -10 -3 3 2 14 11 25 11 12 13 21 7 25 -5 4 -15
-3 -21 -14 -6 -11 -16 -20 -23 -19 -9 0 -9 2 1 6 16 6 6 23 -14 23 -12 0 -15
-12 -13 -62 2 -35 8 -69 13 -77 8 -11 8 -13 -1 -8 -9 6 -12 -60 -13 -279 l-1
-287 473 6 c260 4 611 7 779 7 l306 0 5 158 c5 152 7 161 47 282 24 70 68 172
101 232 60 108 128 208 142 208 4 0 11 -12 14 -27 17 -70 110 -136 234 -165
25 -5 72 -18 105 -29 130 -41 510 -65 668 -41 l59 9 58 -122 c31 -67 60 -139
64 -161 4 -21 23 -93 41 -159 19 -66 41 -175 49 -243 13 -118 31 -172 57 -172
28 0 239 227 294 315 16 26 16 28 1 16 -21 -18 -39 -3 -34 30 4 32 32 36 46 7
6 -13 11 -18 11 -11 1 14 -83 163 -155 274 -50 79 -124 179 -180 247 -20 24
-35 44 -33 46 2 2 19 11 37 20 38 20 82 85 82 123 0 57 14 56 66 -4 72 -83
197 -310 228 -413 34 -115 44 -224 30 -330 -6 -47 -11 -86 -10 -86 0 -1 346
-4 768 -7 l768 -5 0 1503 c0 1186 -3 1504 -13 1506 -6 2 -217 1 -467 -2z
m-366 -27 c2 -4 -11 -6 -30 -4 -19 2 -34 6 -34 8 0 8 59 4 64 -4z m-1599 -452
c17 -11 48 -44 69 -75 35 -50 38 -60 34 -108 -3 -38 -16 -72 -48 -128 l-44
-76 -80 2 c-51 2 -93 -2 -115 -11 -18 -8 -41 -14 -50 -14 -37 0 -122 228 -103
279 17 47 65 100 119 129 54 30 63 32 123 27 37 -3 78 -14 95 -25z m-2125
-125 c0 -12 -19 -12 -23 0 -4 9 -1 12 9 8 7 -3 14 -7 14 -8z m270 -50 c0 -5
-5 -3 -10 5 -5 8 -10 20 -10 25 0 6 5 3 10 -5 5 -8 10 -19 10 -25z m-339 -22
c-12 -20 -14 -14 -5 12 4 9 9 14 11 11 3 -2 0 -13 -6 -23z m701 13 c7 4 8 2 4
-5 -9 -13 -26 -5 -25 12 0 9 2 8 6 -1 2 -6 10 -9 15 -6z m-877 -6 c3 -5 1 -10
-4 -10 -6 0 -11 5 -11 10 0 6 2 10 4 10 3 0 8 -4 11 -10z m265 0 c0 -5 -5 -10
-11 -10 -5 0 -7 5 -4 10 3 6 8 10 11 10 2 0 4 -4 4 -10z m327 -16 c-3 -3 -12
-4 -19 -1 -8 3 -5 6 6 6 11 1 17 -2 13 -5z m-512 -14 c3 -5 1 -10 -4 -10 -6 0
-11 5 -11 10 0 6 2 10 4 10 3 0 8 -4 11 -10z m123 -10 c-7 -10 -14 -17 -17
-15 -4 4 18 35 25 35 2 0 -1 -9 -8 -20z m617 10 c-3 -5 -12 -10 -18 -10 -7 0
-6 4 3 10 19 12 23 12 15 0z m-570 -10 c3 -6 -1 -7 -9 -4 -18 7 -21 14 -7 14
6 0 13 -4 16 -10z m250 -18 c-3 -3 -11 0 -18 7 -9 10 -8 11 6 5 10 -3 15 -9
12 -12z m-415 4 c0 -3 -4 -8 -10 -11 -5 -3 -10 -1 -10 4 0 6 5 11 10 11 6 0
10 -2 10 -4z m205 -32 c-9 -9 -18 -14 -21 -11 -3 3 3 14 13 24 10 10 19 15 21
11 2 -4 -4 -15 -13 -24z m-32 11 c-3 -9 -8 -14 -10 -11 -3 3 -2 9 2 15 9 16
15 13 8 -4z m332 -5 c3 -6 -1 -7 -9 -4 -18 7 -21 14 -7 14 6 0 13 -4 16 -10z
m-692 -25 c-3 -9 -8 -14 -10 -11 -3 3 -2 9 2 15 9 16 15 13 8 -4z m-109 -11
c5 -14 4 -15 -9 -4 -17 14 -19 20 -6 20 5 0 12 -7 15 -16z m696 12 c0 -2 -7
-7 -16 -10 -8 -3 -12 -2 -9 4 6 10 25 14 25 6z m388 -21 c-3 -3 -9 2 -12 12
-6 14 -5 15 5 6 7 -7 10 -15 7 -18z m-788 5 c0 -5 -2 -10 -4 -10 -3 0 -8 5
-11 10 -3 6 -1 10 4 10 6 0 11 -4 11 -10z m3820 -5 c0 -8 -2 -15 -4 -15 -2 0
-6 7 -10 15 -3 8 -1 15 4 15 6 0 10 -7 10 -15z m-3546 -24 c-2 -3 -12 3 -22
13 -16 17 -16 18 5 5 12 -7 20 -15 17 -18z m-519 8 c11 -16 1 -19 -13 -3 -7 8
-8 14 -3 14 5 0 13 -5 16 -11z m245 -3 c0 -3 -4 -8 -10 -11 -5 -3 -10 -1 -10
4 0 6 5 11 10 11 6 0 10 -2 10 -4z m-60 -18 c0 -10 -9 -9 -35 2 -17 8 -16 8 8
7 15 -1 27 -5 27 -9z m155 2 c19 -8 19 -9 -2 -9 -12 -1 -25 4 -28 9 -7 12 2
12 30 0z m154 -17 c9 -18 9 -22 -2 -18 -7 3 -13 15 -14 26 -2 24 0 23 16 -8z
m3455 12 c3 -8 1 -15 -3 -15 -5 0 -11 7 -15 15 -3 8 -1 15 3 15 5 0 11 -7 15
-15z m-3558 -10 c-36 -19 -42 -19 -26 0 7 8 22 15 34 15 18 0 17 -2 -8 -15z
m-356 -10 c0 -8 -2 -15 -4 -15 -2 0 -6 7 -10 15 -3 8 -1 15 4 15 6 0 10 -7 10
-15z m3985 -5 c10 -11 16 -20 13 -20 -3 0 -13 9 -23 20 -10 11 -16 20 -13 20
3 0 13 -9 23 -20z m-4059 -16 c-20 -19 -16 -50 5 -46 11 3 12 1 1 -10 -11 -11
-14 -10 -22 2 -11 17 -10 71 1 64 4 -2 11 1 14 7 4 5 9 8 12 5 3 -3 -2 -13
-11 -22z m47 12 c4 -10 1 -13 -8 -9 -8 3 -12 9 -9 14 7 12 11 11 17 -5z m554
8 c-3 -3 -12 -4 -19 -1 -8 3 -5 6 6 6 11 1 17 -2 13 -5z m-680 -19 c0 -8 -4
-15 -9 -15 -4 0 -8 7 -8 15 0 8 4 15 8 15 5 0 9 -7 9 -15z m181 -5 c-7 -10
-14 -17 -17 -15 -4 4 18 35 25 35 2 0 -1 -9 -8 -20z m407 2 c-3 -3 -11 0 -18
7 -9 10 -8 11 6 5 10 -3 15 -9 12 -12z m155 4 c-7 -7 -13 -7 -20 0 -6 6 -3 10
10 10 13 0 16 -4 10 -10z m-396 -20 c9 3 16 1 16 -6 0 -6 -4 -8 -10 -5 -5 3
-10 2 -10 -4 0 -6 -13 -2 -30 7 -16 9 -30 20 -30 25 0 4 11 1 24 -8 13 -8 31
-13 40 -9z m13 18 c-3 -3 -12 -4 -19 -1 -8 3 -5 6 6 6 11 1 17 -2 13 -5z m182
-36 c1 -5 -3 -8 -7 -8 -4 0 -8 12 -9 28 -1 23 -1 24 7 7 5 -11 9 -23 9 -27z
m-269 11 c0 -5 -8 -9 -17 -8 -11 0 -13 3 -5 6 6 2 9 10 6 15 -4 7 -2 8 4 4 7
-4 12 -11 12 -17z m121 -6 c-12 -20 -14 -14 -5 12 4 9 9 14 11 11 3 -2 0 -13
-6 -23z m2192 20 c-7 -2 -19 -2 -25 0 -7 3 -2 5 12 5 14 0 19 -2 13 -5z
m-2578 -23 c-3 -5 -11 -10 -16 -10 -6 0 -7 5 -4 10 3 6 11 10 16 10 6 0 7 -4
4 -10z m895 6 c0 -3 -4 -8 -10 -11 -5 -3 -10 -1 -10 4 0 6 5 11 10 11 6 0 10
-2 10 -4z m165 -6 c3 -6 -1 -7 -9 -4 -18 7 -21 14 -7 14 6 0 13 -4 16 -10z
m3425 -2 c0 -4 -4 -8 -9 -8 -6 0 -12 4 -15 8 -3 5 1 9 9 9 8 0 15 -4 15 -9z
m-4348 -27 c-7 -20 -9 -20 -27 -5 -11 8 -15 13 -9 10 7 -3 17 1 24 9 17 20 22
13 12 -14z m38 19 c0 -5 -5 -10 -11 -10 -5 0 -7 5 -4 10 3 6 8 10 11 10 2 0 4
-4 4 -10z m133 -16 c-3 -8 -13 -14 -22 -13 -9 0 -11 3 -4 5 7 3 9 12 6 20 -4
10 0 12 10 8 9 -3 13 -12 10 -20z m143 -13 c1 -1 8 0 14 4 8 5 5 11 -7 21 -10
7 -13 14 -7 14 6 0 18 -7 25 -16 11 -14 10 -18 -6 -30 -17 -13 -20 -12 -30 6
-6 11 -14 17 -19 13 -4 -4 -4 1 0 11 7 18 7 18 17 0 5 -11 11 -21 13 -23z
m131 33 c-3 -3 -12 -4 -19 -1 -8 3 -5 6 6 6 11 1 17 -2 13 -5z m4143 2 c0 -2
-11 -6 -25 -8 -13 -3 -22 -1 -19 3 5 9 44 13 44 5z m-4465 -16 c-3 -5 -11 -10
-16 -10 -6 0 -7 5 -4 10 3 6 11 10 16 10 6 0 7 -4 4 -10z m685 7 c0 -2 -9 -12
-20 -22 -24 -21 -27 -14 -4 9 15 15 24 20 24 13z m-916 -23 c3 -8 2 -12 -4 -9
-6 3 -10 10 -10 16 0 14 7 11 14 -7z m511 -17 c1 -14 -3 -23 -8 -20 -5 3 -7
14 -4 24 3 10 1 20 -4 23 -5 2 -4 3 3 2 7 -2 13 -14 13 -29z m323 22 c26 14
43 14 19 0 -9 -6 -15 -14 -12 -20 4 -5 1 -9 -5 -9 -6 0 -8 -4 -5 -10 3 -5 -1
-10 -10 -10 -11 0 -15 5 -12 15 4 8 2 17 -3 20 -6 4 -10 12 -10 18 0 8 3 8 9
-2 6 -10 13 -11 29 -2z m-644 -8 c4 -5 -3 -7 -14 -4 -23 6 -26 13 -6 13 8 0
17 -4 20 -9z m136 -11 c0 -5 -9 -8 -19 -7 -15 1 -17 4 -9 14 11 13 28 9 28 -7z
m237 14 c-3 -3 -12 -4 -19 -1 -8 3 -5 6 6 6 11 1 17 -2 13 -5z m3777 -10 c5
-14 4 -15 -9 -4 -17 14 -19 20 -6 20 5 0 12 -7 15 -16z m-4197 0 c-3 -3 -12
-4 -19 -1 -8 3 -5 6 6 6 11 1 17 -2 13 -5z m860 0 c-3 -3 -12 -4 -19 -1 -8 3
-5 6 6 6 11 1 17 -2 13 -5z m-977 -14 c0 -5 -5 -10 -11 -10 -5 0 -7 5 -4 10 3
6 8 10 11 10 2 0 4 -4 4 -10z m164 -14 c-3 -7 -15 -12 -28 -12 -15 0 -22 5
-19 13 3 7 9 10 14 7 5 -3 9 -1 9 5 0 6 6 8 14 5 8 -3 13 -11 10 -18z m76 14
c0 -5 -4 -10 -10 -10 -5 0 -10 5 -10 10 0 6 5 10 10 10 6 0 10 -4 10 -10z
m210 0 c0 -5 -5 -10 -11 -10 -5 0 -7 5 -4 10 3 6 8 10 11 10 2 0 4 -4 4 -10z
m110 0 c-8 -5 -11 -10 -6 -10 5 0 3 -6 -3 -14 -8 -9 -8 -21 -2 -39 7 -18 7
-28 -1 -33 -7 -4 -8 -3 -4 4 4 8 0 12 -11 12 -14 0 -15 2 -4 9 7 5 10 14 6 20
-4 7 -1 18 5 26 10 12 10 15 -1 15 -11 0 -11 2 1 10 8 5 20 10 25 10 6 0 3 -5
-5 -10z m344 -6 c9 -23 4 -24 -16 -2 -14 14 -15 18 -4 18 8 0 17 -7 20 -16z
m-804 -15 c0 -5 -8 -9 -17 -8 -11 0 -13 3 -5 6 6 2 9 10 6 15 -4 7 -2 8 4 4 7
-4 12 -11 12 -17z m91 8 c-8 -10 -7 -17 2 -26 9 -10 8 -11 -5 -6 -27 11 -22
-3 7 -17 24 -13 24 -14 5 -26 -17 -11 -20 -10 -20 7 0 11 -9 23 -20 26 -11 3
-20 11 -20 16 0 6 5 7 11 4 6 -4 17 2 25 14 8 12 18 21 21 21 3 0 1 -6 -6 -13z
m1008 7 c17 -4 31 -11 31 -16 0 -5 -4 -7 -8 -4 -5 3 -21 7 -36 10 -29 5 -48
16 -29 16 6 0 25 -3 42 -6z m148 0 c-3 -3 -12 -4 -19 -1 -8 3 -5 6 6 6 11 1
17 -2 13 -5z m-928 -8 c-2 -2 -14 -9 -26 -15 -18 -9 -23 -9 -23 1 0 8 12 15
27 16 14 1 25 0 22 -2z m233 -10 c7 4 8 2 4 -5 -9 -13 -26 -5 -25 12 0 9 2 8
6 -1 2 -6 10 -9 15 -6z m-659 -19 c-4 -6 0 -8 11 -4 10 4 15 3 11 -3 -10 -17
-32 -11 -38 9 -3 14 -1 18 9 14 8 -3 11 -10 7 -16z m277 1 c-19 -21 -20 -23
-3 -30 15 -6 15 -7 -4 -7 -13 -1 -23 1 -23 4 0 12 33 55 42 55 5 0 -1 -10 -12
-22z m539 -4 c14 -12 -19 -1 -35 12 -18 14 -18 14 6 3 14 -6 27 -13 29 -15z
m76 16 c3 -6 -1 -7 -9 -4 -18 7 -21 14 -7 14 6 0 13 -4 16 -10z m215 -15 c-10
-12 -10 -15 3 -15 9 0 19 -5 23 -12 5 -7 3 -8 -6 -3 -10 6 -12 4 -7 -8 4 -11
2 -14 -8 -11 -8 3 -15 13 -17 22 -4 17 13 55 21 47 2 -3 -2 -11 -9 -20z m244
-5 c-6 -6 -10 -3 -10 10 0 13 4 16 10 10 7 -7 7 -13 0 -20z m-1037 6 c0 -8 -6
-12 -15 -9 -11 5 -11 7 0 14 7 5 13 9 14 9 0 0 1 -6 1 -14z m413 -6 c0 -4 -7
-11 -16 -14 -13 -5 -14 -4 -6 7 7 8 8 18 4 22 -4 5 -1 5 6 1 6 -4 12 -11 12
-16z m561 -5 c5 4 9 1 9 -5 0 -17 -25 -6 -26 11 -1 9 1 10 3 1 3 -7 9 -10 14
-7z m-893 0 c-2 -1 -13 -7 -25 -13 -16 -9 -22 -9 -26 1 -3 8 6 12 25 13 15 1
27 0 26 -1z m367 -5 c3 -6 -1 -7 -9 -4 -18 7 -21 14 -7 14 6 0 13 -4 16 -10z
m138 -11 c5 -3 2 -9 -5 -12 -9 -3 -14 3 -15 15 -1 11 1 16 5 12 4 -5 11 -12
15 -15z m-837 -2 c-10 -7 -29 -22 -41 -34 -20 -19 -24 -20 -29 -7 -3 9 -1 23
4 32 9 14 10 12 4 -7 -4 -16 -3 -21 5 -17 6 4 11 14 11 23 0 9 6 13 15 9 8 -3
15 -1 15 4 0 6 8 10 18 9 15 0 15 -1 -2 -12z m94 9 c0 -2 -7 -7 -16 -10 -8 -3
-12 -2 -9 4 6 10 25 14 25 6z m815 -6 c3 -5 1 -10 -4 -10 -6 0 -11 5 -11 10 0
6 2 10 4 10 3 0 8 -4 11 -10z m2896 -7 c13 -16 12 -17 -3 -4 -17 13 -22 21
-14 21 2 0 10 -8 17 -17z m654 -1 c-3 -3 -11 0 -18 7 -9 10 -8 11 6 5 10 -3
15 -9 12 -12z m-4405 -3 c0 -5 -4 -7 -10 -4 -5 3 -10 2 -10 -4 0 -5 8 -12 18
-14 12 -3 13 -5 2 -6 -22 -1 -44 15 -36 28 9 14 36 14 36 0z m518 -9 c14 0 14
-2 3 -9 -8 -5 -21 -7 -30 -4 -12 3 -11 0 3 -11 22 -18 14 -21 -14 -6 -18 10
-19 11 -2 30 9 11 18 16 20 10 2 -5 11 -10 20 -10z m89 1 c-20 -13 -25 -20
-15 -24 11 -4 11 -7 -1 -18 -9 -9 -11 -9 -7 -1 4 6 2 12 -3 12 -20 0 -11 27
12 38 36 17 44 13 14 -7z m143 15 c0 -2 -7 -6 -15 -10 -8 -3 -15 -1 -15 4 0 6
7 10 15 10 8 0 15 -2 15 -4z m-530 -15 c0 -6 -4 -13 -10 -16 -5 -3 -10 1 -10
9 0 9 5 16 10 16 6 0 10 -4 10 -9z m95 -6 c11 -1 24 -3 28 -4 5 0 5 -6 2 -11
-5 -8 -11 -7 -21 1 -17 14 -19 -2 -2 -19 9 -9 5 -11 -19 -9 -16 2 -36 8 -43
12 -9 6 -10 2 -5 -16 7 -22 7 -22 -9 -6 -16 16 -16 18 1 42 11 15 24 22 33 19
8 -4 24 -7 35 -9z m75 5 c-12 -8 -12 -12 -2 -18 8 -6 10 -16 5 -30 -8 -20 -9
-20 -19 -4 -13 20 -1 62 18 62 9 0 9 -3 -2 -10z m4078 -21 c-3 -8 -7 -3 -11
10 -4 17 -3 21 5 13 5 -5 8 -16 6 -23z m-4428 17 c0 -3 -4 -8 -10 -11 -5 -3
-10 -1 -10 4 0 6 5 11 10 11 6 0 10 -2 10 -4z m718 -21 c-3 -3 -9 2 -12 12 -6
14 -5 15 5 6 7 -7 10 -15 7 -18z m212 15 c0 -5 -5 -10 -11 -10 -5 0 -7 5 -4
10 3 6 8 10 11 10 2 0 4 -4 4 -10z m280 0 c0 -5 -5 -10 -11 -10 -5 0 -7 5 -4
10 3 6 8 10 11 10 2 0 4 -4 4 -10z m-1285 -40 c-4 -6 -13 -9 -21 -6 -8 3 -14
-1 -14 -10 0 -8 4 -13 8 -10 4 2 8 -4 8 -15 0 -26 -14 -10 -25 29 -7 21 -6 34
1 38 6 4 8 2 5 -3 -4 -6 2 -13 13 -16 11 -3 20 -1 20 4 0 5 -4 9 -10 9 -5 0
-10 5 -10 12 0 8 6 7 16 -4 9 -9 13 -21 9 -28z m157 18 c-9 -9 -15 -9 -24 1
-11 10 -10 11 5 6 10 -5 17 -2 17 6 0 7 3 9 7 6 4 -4 1 -13 -5 -19z m65 16
c-3 -3 -12 -4 -19 -1 -8 3 -5 6 6 6 11 1 17 -2 13 -5z m458 -4 c-3 -5 -10 -10
-16 -10 -5 0 -9 5 -9 10 0 6 7 10 16 10 8 0 12 -4 9 -10z m375 -10 c-6 -11
-17 -20 -25 -20 -8 0 -15 -7 -15 -15 0 -18 -9 -19 -30 -4 -13 9 -13 10 2 6 9
-3 19 1 22 9 3 8 12 14 20 14 7 0 16 7 20 15 3 8 8 15 11 15 3 0 1 -9 -5 -20z
m3001 -3 c-10 -9 -11 -8 -5 6 3 10 9 15 12 12 3 -3 0 -11 -7 -18z m-3574 -7
c1 -11 -3 -20 -9 -20 -6 0 -8 3 -5 7 4 3 2 12 -4 20 -9 10 -8 13 3 13 7 0 14
-9 15 -20z m111 4 c-2 -9 -13 -21 -26 -25 -15 -6 -21 -5 -17 1 3 6 13 10 22
10 9 0 13 6 9 15 -3 8 -1 15 5 15 6 0 9 -7 7 -16z m127 7 c3 -5 1 -12 -5 -16
-5 -3 -10 1 -10 9 0 18 6 21 15 7z m160 -1 c3 -5 1 -10 -4 -10 -6 0 -11 5 -11
10 0 6 2 10 4 10 3 0 8 -4 11 -10z m-975 -10 c0 -5 -2 -10 -4 -10 -3 0 -8 5
-11 10 -3 6 -1 10 4 10 6 0 11 -4 11 -10z m283 -7 c-6 -17 -5 -17 14 0 20 18
21 18 19 0 -1 -13 6 -18 27 -18 32 1 36 -10 5 -18 -14 -4 -27 0 -35 11 -10 12
-16 13 -19 5 -3 -7 -12 -9 -19 -6 -11 4 -12 10 -4 24 12 24 20 25 12 2z m661
-5 c1 -7 5 -19 10 -26 7 -11 4 -11 -13 0 -12 7 -17 14 -12 16 6 2 7 11 4 20
-3 9 -3 14 1 10 4 -3 8 -12 10 -20z m3495 -1 c0 -9 -2 -9 -5 0 -3 7 -13 9 -22
6 -14 -4 -14 -3 -2 5 16 12 30 7 29 -11z m-3669 -1 c0 -8 -15 -20 -32 -27 -18
-7 -36 -14 -40 -16 -3 -2 -4 5 -1 17 3 13 11 19 19 16 18 -7 45 4 38 15 -3 5
0 9 5 9 6 0 11 -6 11 -14z m3100 4 c0 -5 -5 -10 -11 -10 -5 0 -7 5 -4 10 3 6
8 10 11 10 2 0 4 -4 4 -10z m-3840 -12 c0 -6 -3 -8 -7 -5 -3 4 -18 0 -32 -9
l-26 -15 24 20 c26 24 41 27 41 9z m152 5 c-6 -2 -9 -9 -6 -15 3 -5 14 -2 25
8 27 24 24 12 -6 -22 -24 -28 -25 -28 -25 -6 0 12 -5 22 -11 22 -5 0 -7 5 -4
10 3 6 14 10 23 9 11 0 12 -2 4 -6z m59 -7 c-6 -7 -8 -21 -5 -31 7 -16 18 -16
57 0 11 5 17 3 17 -6 0 -7 -3 -10 -6 -6 -4 3 -18 0 -33 -7 -16 -8 -34 -10 -46
-5 -11 4 -14 8 -6 8 8 1 11 7 7 17 -6 15 9 44 21 44 3 0 0 -6 -6 -14z m315 -1
c4 -10 11 -12 18 -7 6 5 20 12 30 16 15 5 17 4 7 -8 -18 -21 -62 -30 -72 -14
-12 18 -11 28 1 28 6 0 13 -7 16 -15z m654 -5 c0 -5 -6 -12 -12 -16 -7 -4 -10
-4 -6 1 4 4 3 14 -4 22 -8 11 -7 12 6 7 9 -3 16 -10 16 -14z m-770 5 c0 -7
-30 -13 -34 -7 -3 4 4 9 15 9 10 1 19 0 19 -2z m355 -30 c-31 -27 -37 -37 -26
-43 9 -7 10 -12 2 -16 -6 -4 -11 -2 -11 3 0 6 -4 11 -10 11 -5 0 -7 -7 -3 -16
5 -14 3 -15 -14 -6 -11 6 -24 8 -29 4 -5 -4 -2 1 5 11 7 9 19 17 26 17 7 0 19
8 26 17 12 15 12 16 -3 10 -20 -7 -25 8 -7 19 6 3 15 0 20 -7 6 -10 9 -11 9
-1 0 6 7 12 15 12 8 0 15 5 15 10 0 6 6 10 13 10 6 0 -6 -16 -28 -35z m3555
25 c0 -5 -2 -10 -4 -10 -3 0 -8 5 -11 10 -3 6 -1 10 4 10 6 0 11 -4 11 -10z
m-4230 -10 c0 -5 -2 -10 -4 -10 -3 0 -8 5 -11 10 -3 6 -1 10 4 10 6 0 11 -4
11 -10z m368 -4 c-7 -8 -14 -10 -16 -5 -7 17 -21 9 -16 -8 5 -14 4 -15 -4 -4
-7 10 -11 10 -17 1 -10 -16 32 -44 66 -44 15 0 35 7 45 15 15 12 15 10 -2 -16
-15 -24 -15 -27 -2 -17 12 10 18 10 24 1 4 -8 3 -9 -4 -5 -7 4 -12 2 -12 -3 0
-6 -9 -11 -20 -11 -13 0 -17 5 -14 14 4 11 -1 14 -21 12 -14 -2 -32 3 -39 10
-8 7 -15 11 -17 10 -2 -2 -10 2 -17 10 -10 11 -8 17 10 34 26 24 78 29 56 6z
m656 -1 c-4 -8 -13 -15 -22 -15 -13 0 -12 3 4 15 24 18 25 18 18 0z m2951 5
c3 -6 -1 -7 -9 -4 -18 7 -21 14 -7 14 6 0 13 -4 16 -10z m379 1 c3 -5 -1 -11
-9 -14 -9 -4 -12 -1 -8 9 6 16 10 17 17 5z m243 3 c-3 -3 -12 -4 -19 -1 -8 3
-5 6 6 6 11 1 17 -2 13 -5z m-3400 -26 c-3 -8 -6 -5 -6 6 -1 11 2 17 5 13 3
-3 4 -12 1 -19z m48 12 c3 -5 2 -10 -4 -10 -5 0 -13 5 -16 10 -3 6 -2 10 4 10
5 0 13 -4 16 -10z m3180 -19 c-6 -5 -25 10 -25 20 0 5 6 4 14 -3 8 -7 12 -15
11 -17z m-4422 -5 c21 -19 23 -25 11 -30 -9 -4 -12 -2 -8 5 4 8 -1 9 -17 4
-19 -5 -21 -4 -9 5 11 9 12 13 3 17 -7 2 -13 9 -13 14 0 13 4 11 33 -15z m397
13 c0 -5 4 -7 10 -4 6 3 7 -1 4 -9 -8 -21 -11 -20 -24 4 -7 14 -7 20 0 20 5 0
10 -5 10 -11z m95 -12 c-5 -18 1 -26 27 -40 18 -10 26 -12 18 -5 -8 7 -21 21
-29 31 -12 15 -11 17 3 17 9 0 15 -4 14 -9 -2 -5 11 -21 27 -35 23 -20 25 -25
10 -21 -18 5 -18 4 3 -11 12 -9 22 -24 22 -33 0 -9 5 -22 11 -28 8 -8 8 -13 0
-18 -6 -3 -18 1 -27 9 -9 9 -20 14 -25 11 -5 -4 -6 2 -2 11 4 12 3 15 -5 10
-7 -4 -12 -2 -12 3 0 19 -38 12 -59 -10 -11 -13 -26 -19 -35 -16 -9 4 -15 1
-13 -6 1 -6 -8 -13 -21 -15 -29 -5 -44 -33 -26 -50 9 -8 14 -9 14 -2 0 6 4 9
9 6 5 -4 7 3 4 14 -4 14 0 20 11 20 10 0 14 -4 11 -10 -3 -5 5 -12 19 -16 13
-3 27 -12 30 -20 6 -16 -12 -18 -34 -4 -10 6 -22 5 -35 -4 -35 -22 -93 -27
-104 -8 -9 15 -11 15 -28 -1 -23 -20 -24 -20 -57 -7 -22 8 -25 13 -16 35 8 22
7 24 -12 22 -11 -1 -23 5 -26 13 -3 11 -2 12 8 4 9 -9 18 -9 37 1 16 8 34 10
47 6 11 -5 27 -6 34 -4 7 3 15 -7 18 -26 4 -18 9 -29 13 -26 11 12 6 40 -11
59 -9 10 -14 24 -11 31 6 16 33 28 33 15 0 -6 -4 -10 -10 -10 -5 0 -10 -5 -10
-11 0 -5 4 -8 9 -4 5 3 13 0 17 -6 5 -8 3 -9 -6 -4 -8 5 -11 3 -9 -4 7 -20 24
-13 24 9 1 20 7 24 28 17 8 -2 7 -9 -6 -21 -9 -10 -17 -23 -17 -29 0 -7 11 0
25 15 15 18 25 23 28 15 3 -7 6 -4 6 6 1 11 13 22 30 28 31 11 66 53 56 69 -3
5 -12 7 -20 3 -8 -3 -15 0 -15 6 0 6 5 11 12 11 6 0 8 3 5 7 -4 3 -2 12 4 20
16 19 20 16 14 -10z m389 -6 c-2 -3 -12 3 -22 13 -16 17 -16 18 5 5 12 -7 20
-15 17 -18z m1635 19 c132 -18 228 -53 323 -119 115 -79 148 -134 148 -243 0
-38 -7 -55 -34 -91 l-35 -45 10 -69 c8 -58 6 -84 -10 -152 -20 -89 -42 -120
-101 -151 -91 -46 -242 -95 -254 -83 -3 3 -41 0 -84 -7 -62 -10 -93 -11 -153
-1 -41 7 -101 17 -134 22 -97 15 -199 46 -251 77 -77 44 -119 145 -119 287 0
52 -5 99 -12 112 -24 41 -38 157 -25 201 23 75 151 187 252 220 134 44 334 62
479 42z m1051 6 c0 -2 -7 -7 -16 -10 -8 -3 -12 -2 -9 4 6 10 25 14 25 6z m394
-35 c-5 -6 -34 20 -34 30 0 5 8 1 18 -8 10 -10 17 -20 16 -22z m719 24 c-3 -9
-8 -14 -10 -11 -3 3 -2 9 2 15 9 16 15 13 8 -4z m-4769 -11 c3 -8 2 -12 -4 -9
-6 3 -10 10 -10 16 0 14 7 11 14 -7z m140 -24 c-6 -5 -24 21 -24 34 0 6 6 1
14 -10 8 -10 12 -21 10 -24z m670 34 c8 -3 12 -12 9 -20 -7 -19 -23 -18 -23 2
0 8 -4 12 -10 9 -5 -3 -10 -1 -10 4 0 12 11 14 34 5z m216 -4 c13 -9 13 -10 0
-10 -8 0 -22 5 -30 10 -13 9 -13 10 0 10 8 0 22 -5 30 -10z m110 6 c0 -2 -7
-7 -16 -10 -8 -3 -12 -2 -9 4 6 10 25 14 25 6z m-794 -22 c-5 -12 -1 -14 17
-9 14 4 18 3 9 -3 -19 -13 -3 -42 24 -42 13 0 24 -3 24 -7 0 -5 -11 -8 -25 -8
-14 0 -25 3 -25 8 0 4 -5 7 -11 7 -6 0 -8 -7 -5 -16 3 -9 -1 -25 -9 -37 -15
-21 -15 -21 -15 -1 0 14 -12 27 -35 40 -25 13 -34 24 -33 41 3 27 25 38 45 21
12 -10 17 -9 24 5 12 21 23 22 15 1z m319 -4 c8 -13 -5 -13 -25 0 -13 8 -13
10 2 10 9 0 20 -4 23 -10z m181 -17 c-10 -10 -19 5 -10 18 6 11 8 11 12 0 2
-7 1 -15 -2 -18z m88 -3 c5 0 6 7 3 14 -4 10 -1 13 8 10 16 -7 9 -34 -10 -34
-6 0 -20 10 -31 23 -19 22 -19 22 2 5 11 -10 24 -18 28 -18z m229 15 c-3 -9
-8 -14 -10 -11 -3 3 -2 9 2 15 9 16 15 13 8 -4z m2833 3 c5 -7 3 -8 -6 -3 -10
6 -12 4 -7 -8 3 -9 0 -18 -9 -21 -8 -3 -13 -2 -11 2 2 4 7 15 10 25 7 20 13
21 23 5z m259 2 c3 -5 1 -10 -4 -10 -6 0 -11 5 -11 10 0 6 2 10 4 10 3 0 8 -4
11 -10z m135 0 c0 -5 -5 -10 -11 -10 -5 0 -7 5 -4 10 3 6 8 10 11 10 2 0 4 -4
4 -10z m63 -40 c-6 -6 -33 30 -33 43 0 5 9 -1 19 -14 11 -13 17 -26 14 -29z
m60 39 c7 0 -1 -5 -17 -9 -16 -5 -34 -7 -39 -3 -13 8 15 24 31 18 8 -3 19 -5
25 -6z m-4523 -9 c0 -5 -5 -10 -11 -10 -5 0 -7 5 -4 10 3 6 8 10 11 10 2 0 4
-4 4 -10z m190 0 c0 -6 10 -14 22 -19 12 -4 17 -11 11 -14 -5 -3 -19 1 -31 9
-23 16 -29 34 -12 34 6 0 10 -5 10 -10z m855 -2 c5 4 5 1 1 -6 -6 -10 -11 -10
-22 -1 -8 6 -14 14 -14 16 0 3 6 0 13 -6 8 -6 18 -7 22 -3z m2842 6 c-3 -3
-12 -4 -19 -1 -8 3 -5 6 6 6 11 1 17 -2 13 -5z m368 -23 c-6 -5 -25 10 -25 20
0 5 6 4 14 -3 8 -7 12 -15 11 -17z m-4195 3 c0 -8 -5 -12 -10 -9 -6 4 -8 11
-5 16 9 14 15 11 15 -7z m830 6 c0 -5 -5 -10 -11 -10 -5 0 -7 5 -4 10 3 6 8
10 11 10 2 0 4 -4 4 -10z m223 -10 c-3 -12 -8 -19 -11 -16 -5 6 5 36 12 36 2
0 2 -9 -1 -20z m-1143 0 c0 -5 -5 -10 -11 -10 -5 0 -7 5 -4 10 3 6 8 10 11 10
2 0 4 -4 4 -10z m170 -5 c7 -9 8 -15 2 -15 -5 0 -12 7 -16 15 -3 8 -4 15 -2
15 2 0 9 -7 16 -15z m280 5 c13 -8 13 -10 -2 -10 -9 0 -20 5 -23 10 -8 13 5
13 25 0z m790 6 c0 -2 -8 -10 -17 -17 -16 -13 -17 -12 -4 4 13 16 21 21 21 13z
m-1103 -12 c-3 -3 -12 -4 -19 -1 -8 3 -5 6 6 6 11 1 17 -2 13 -5z m473 -9 c-7
-9 -15 -13 -17 -11 -7 7 7 26 19 26 6 0 6 -6 -2 -15z m185 -4 c-3 -6 -11 -8
-17 -5 -6 4 -5 9 3 15 16 10 23 4 14 -10z m249 -15 c-2 -6 -17 -12 -32 -13
l-27 -2 28 11 c24 9 26 12 15 26 -12 15 -11 15 4 4 9 -8 15 -19 12 -26z m2856
30 c0 -3 -4 -8 -10 -11 -5 -3 -10 -1 -10 4 0 6 5 11 10 11 6 0 10 -2 10 -4z
m335 -6 c3 -5 2 -10 -4 -10 -5 0 -13 5 -16 10 -3 6 -2 10 4 10 5 0 13 -4 16
-10z m-4201 -9 c3 -5 -2 -15 -12 -22 -16 -13 -16 -13 -2 5 14 18 13 18 -10 12
-19 -6 -21 -5 -10 3 18 13 27 14 34 2z m497 -21 c6 0 20 5 31 11 13 7 18 7 14
1 -4 -6 -19 -17 -34 -25 -27 -13 -32 -12 -71 10 -2 2 2 9 9 17 11 14 14 14 27
1 8 -8 19 -15 24 -15z m3627 5 c-3 -3 -9 2 -12 12 -6 14 -5 15 5 6 7 -7 10
-15 7 -18z m117 14 c11 -16 1 -19 -13 -3 -7 8 -8 14 -3 14 5 0 13 -5 16 -11z
m-4155 -19 c-12 -22 -25 -27 -17 -7 3 8 -1 14 -9 14 -9 0 -13 -6 -10 -14 3 -8
2 -12 -3 -9 -4 3 -14 -7 -20 -21 -10 -22 -14 -24 -22 -12 -13 20 -11 29 5 23
18 -7 31 27 14 38 -8 4 4 8 30 8 40 0 42 -1 32 -20z m627 9 c9 -9 23 -9 53 -1
35 9 42 8 50 -8 7 -13 6 -19 -4 -23 -9 -4 -12 0 -9 13 4 14 1 18 -14 14 -26
-7 -24 -38 4 -51 14 -7 23 -7 23 -1 0 5 4 7 9 4 4 -3 17 4 27 16 14 15 16 22
6 25 -6 3 -10 9 -7 14 4 5 12 3 19 -4 8 -6 12 -15 9 -19 -2 -5 1 -8 6 -8 16 0
13 -17 -3 -23 -11 -4 -13 -1 -8 11 4 12 -2 10 -25 -8 -17 -14 -28 -28 -26 -32
2 -5 -1 -8 -6 -8 -19 0 -12 -18 9 -25 11 -4 18 -11 14 -16 -3 -6 -12 -8 -20
-5 -8 3 -14 -1 -14 -9 0 -8 -9 -24 -20 -35 -12 -12 -20 -15 -20 -7 0 9 -3 8
-9 -2 -5 -7 -14 -10 -20 -7 -14 9 -15 46 -1 46 5 0 7 -7 4 -15 -4 -8 -2 -15 4
-15 12 0 24 29 16 41 -3 5 -13 9 -23 9 -9 0 -23 6 -30 13 -11 10 -14 10 -18 0
-3 -7 -9 -13 -15 -13 -7 0 -6 5 1 14 11 13 34 15 94 7 5 -1 5 -5 2 -11 -3 -5
-1 -10 5 -10 7 0 8 -6 0 -19 -14 -27 -13 -36 4 -22 26 22 25 59 -1 77 -14 8
-31 13 -39 10 -14 -6 -48 46 -37 57 3 4 0 13 -7 22 -14 17 0 21 17 4z m437 2
c4 -5 -3 -7 -14 -4 -23 6 -26 13 -6 13 8 0 17 -4 20 -9z m3246 -1 c0 -5 -2
-10 -4 -10 -3 0 -8 5 -11 10 -3 6 -1 10 4 10 6 0 11 -4 11 -10z m-4257 -6 c-7
-3 -11 -11 -9 -17 1 -7 1 -9 -1 -4 -10 16 -21 6 -16 -14 4 -14 12 -19 24 -16
11 3 19 2 19 -3 0 -8 -34 -20 -57 -20 -7 0 -13 5 -13 11 0 6 7 9 15 6 11 -5
12 -1 5 18 -7 19 -5 27 8 34 9 6 22 10 27 10 6 0 5 -3 -2 -5z m37 -4 c0 -5 -5
-10 -11 -10 -5 0 -7 5 -4 10 3 6 8 10 11 10 2 0 4 -4 4 -10z m44 -2 c-3 -4
-12 -8 -20 -8 -8 0 -13 4 -10 8 3 5 12 9 20 9 8 0 13 -4 10 -9z m74 -1 c16
-19 3 -57 -19 -57 -23 0 -35 18 -20 33 8 8 11 6 11 -7 0 -16 2 -16 16 -5 14
12 14 14 -2 26 -14 10 -21 10 -33 0 -14 -11 -14 -10 -2 6 16 20 34 22 49 4z
m658 -49 c40 -14 44 -23 9 -23 -15 0 -25 6 -25 15 0 12 -2 12 -9 2 -6 -10 -10
-8 -14 10 -4 12 -6 32 -5 43 0 13 3 10 5 -7 3 -20 13 -30 39 -40z m80 47 c-3
-8 0 -15 6 -15 7 0 6 -5 -2 -15 -10 -12 -10 -15 0 -15 8 0 11 -2 8 -5 -3 -3
-16 -1 -29 4 -19 8 -20 10 -5 10 12 1 16 6 12 17 -3 9 -4 20 0 25 9 15 17 10
10 -6z m3004 11 c0 -2 -7 -6 -15 -10 -8 -3 -15 -1 -15 4 0 6 7 10 15 10 8 0
15 -2 15 -4z m160 -17 c0 -5 -4 -9 -8 -9 -5 0 -9 7 -9 15 0 8 4 12 9 9 4 -3 8
-9 8 -15z m425 11 c-3 -5 -12 -10 -18 -10 -7 0 -6 4 3 10 19 12 23 12 15 0z
m-384 -17 c13 -16 12 -17 -3 -4 -10 7 -18 15 -18 17 0 8 8 3 21 -13z m-3153
-38 c-17 -32 -20 -32 -12 -1 5 21 4 27 -5 22 -6 -4 -11 -3 -11 2 0 16 12 21
25 9 9 -9 10 -17 3 -32z m122 41 c0 -2 -7 -7 -16 -10 -8 -3 -12 -2 -9 4 6 10
25 14 25 6z m3080 -6 c8 -5 11 -10 5 -10 -5 0 -17 5 -25 10 -8 5 -10 10 -5 10
6 0 17 -5 25 -10z m-4100 -10 c0 -5 -5 -10 -11 -10 -5 0 -7 5 -4 10 3 6 8 10
11 10 2 0 4 -4 4 -10z m30 0 c0 -5 -5 -10 -11 -10 -5 0 -7 5 -4 10 3 6 8 10
11 10 2 0 4 -4 4 -10z m772 -3 c-14 -6 -26 -7 -32 -1 -5 5 4 9 23 10 30 1 30
1 9 -9z m3228 3 c0 -5 -5 -10 -11 -10 -5 0 -7 5 -4 10 3 6 8 10 11 10 2 0 4
-4 4 -10z m-4230 -19 c12 -23 13 -42 1 -23 -6 10 -10 5 -14 -17 -7 -33 -21
-41 -31 -15 -3 8 -2 12 4 9 11 -7 25 39 15 54 -3 6 -2 11 4 11 6 0 15 -9 21
-19z m93 0 c-4 -17 -8 -18 -24 -8 -19 12 -19 12 3 19 13 3 24 6 25 7 0 1 -1
-8 -4 -18z m1056 6 c6 -8 8 -17 4 -20 -3 -4 0 -7 8 -8 8 0 5 -4 -6 -8 -22 -9
-46 14 -38 36 7 17 18 16 32 0z m3552 -4 c13 -16 12 -17 -3 -4 -17 13 -22 21
-14 21 2 0 10 -8 17 -17z m-4311 3 c0 -3 -4 -8 -10 -11 -5 -3 -10 -1 -10 4 0
6 5 11 10 11 6 0 10 -2 10 -4z m920 -11 c0 -8 -4 -15 -10 -15 -5 0 -7 7 -4 15
4 8 8 15 10 15 2 0 4 -7 4 -15z m2749 -29 c-3 -3 -11 5 -18 17 -13 21 -12 21
5 5 10 -10 16 -20 13 -22z m-3489 -10 c0 -5 -7 -3 -15 4 -8 7 -12 17 -9 22 7
10 24 -9 24 -26z m291 7 c-12 -20 -14 -14 -5 12 4 9 9 14 11 11 3 -2 0 -13 -6
-23z m339 12 c-10 -12 -10 -15 4 -15 9 0 16 -5 16 -10 0 -7 -6 -7 -20 0 -23
12 -26 26 -7 33 20 8 20 8 7 -8z m2745 5 c3 -5 2 -10 -4 -10 -5 0 -13 5 -16
10 -3 6 -2 10 4 10 5 0 13 -4 16 -10z m402 -5 c0 -8 -4 -15 -9 -15 -10 0 -11
14 -1 23 9 10 10 9 10 -8z m206 8 c-7 -3 -13 -12 -13 -21 0 -14 -2 -14 -9 -3
-5 8 -16 11 -25 8 -8 -3 -18 -2 -21 3 -6 9 12 14 54 16 14 1 20 -1 14 -3z m62
-11 c-3 -3 -11 0 -18 7 -9 10 -8 11 6 5 10 -3 15 -9 12 -12z m-3698 -7 c8 -8
19 -13 24 -10 5 4 9 1 9 -4 0 -6 -18 -11 -41 -11 -25 0 -38 4 -34 10 4 6 11 7
17 4 7 -5 9 -1 5 9 -8 21 0 22 20 2z m94 -12 c-12 -20 -14 -14 -5 12 4 9 9 14
11 11 3 -2 0 -13 -6 -23z m3152 20 c-7 -2 -19 -2 -25 0 -7 3 -2 5 12 5 14 0
19 -2 13 -5z m587 -3 c0 -5 -2 -10 -4 -10 -3 0 -8 5 -11 10 -3 6 -1 10 4 10 6
0 11 -4 11 -10z m-3660 -22 c0 -6 -6 -5 -15 2 -8 7 -15 14 -15 16 0 2 7 1 15
-2 8 -4 15 -11 15 -16z m3120 1 c0 -6 -4 -7 -10 -4 -5 3 -10 11 -10 16 0 6 5
7 10 4 6 -3 10 -11 10 -16z m24 5 c3 -8 2 -12 -4 -9 -6 3 -10 10 -10 16 0 14
7 11 14 -7z m371 -4 c10 -11 16 -20 13 -20 -3 0 -13 9 -23 20 -10 11 -16 20
-13 20 3 0 13 -9 23 -20z m-4005 0 c0 -5 -4 -10 -10 -10 -5 0 -10 5 -10 10 0
6 5 10 10 10 6 0 10 -4 10 -10z m830 0 c0 -5 -5 -10 -11 -10 -5 0 -7 5 -4 10
3 6 8 10 11 10 2 0 4 -4 4 -10z m-161 -21 c-12 -8 -11 -11 1 -19 9 -6 10 -10
3 -10 -6 0 -14 4 -17 9 -9 14 5 42 16 35 6 -4 5 -10 -3 -15z m91 -3 c14 -18
14 -18 -7 -6 -12 8 -19 18 -16 23 3 4 6 7 7 5 1 -2 8 -12 16 -22z m2725 14 c3
-6 -1 -7 -9 -4 -18 7 -21 14 -7 14 6 0 13 -4 16 -10z m40 0 c-3 -5 -12 -10
-18 -10 -7 0 -6 4 3 10 19 12 23 12 15 0z m238 -5 c-3 -9 -8 -14 -10 -11 -3 3
-2 9 2 15 9 16 15 13 8 -4z m107 5 c0 -5 -5 -10 -11 -10 -5 0 -7 5 -4 10 3 6
8 10 11 10 2 0 4 -4 4 -10z m-3450 -20 c-9 -17 -8 -20 14 -20 19 0 23 -4 19
-20 -8 -31 -31 -46 -39 -25 -5 13 -9 14 -16 3 -5 -8 -6 -2 -2 16 5 21 4 27 -5
22 -19 -12 -12 6 11 25 27 24 31 24 18 -1z m3476 -8 c-17 -16 -18 -16 -5 5 7
12 15 20 18 17 3 -2 -3 -12 -13 -22z m-4553 2 c-3 -9 0 -20 7 -24 7 -4 10 -15
7 -25 -4 -9 -12 -13 -18 -9 -8 5 -8 9 1 14 9 5 9 9 1 14 -14 9 -15 46 -1 46 5
0 7 -7 3 -16z m787 -12 c0 -15 -2 -15 -10 -2 -13 20 -13 33 0 25 6 -3 10 -14
10 -23z m198 16 c-6 -18 -25 -21 -25 -3 0 8 7 15 15 15 7 0 12 -5 10 -12z m52
8 c0 -3 -4 -8 -10 -11 -5 -3 -10 -1 -10 4 0 6 5 11 10 11 6 0 10 -2 10 -4z
m80 -6 c0 -5 -5 -10 -11 -10 -5 0 -7 5 -4 10 3 6 8 10 11 10 2 0 4 -4 4 -10z
m75 -10 c3 -5 14 -6 24 -3 10 3 22 -1 26 -8 6 -8 4 -10 -5 -4 -7 4 -16 2 -21
-6 -8 -12 -12 -11 -24 5 -7 10 -18 15 -23 12 -6 -3 -12 0 -15 8 -4 10 0 12 14
9 11 -3 21 -9 24 -13z m2779 -6 c5 -14 4 -15 -9 -4 -17 14 -19 20 -6 20 5 0
12 -7 15 -16z m191 6 c3 -5 1 -10 -4 -10 -6 0 -11 5 -11 10 0 6 2 10 4 10 3 0
8 -4 11 -10z m92 -24 c-12 -4 -29 -12 -39 -17 -11 -5 -20 -3 -28 6 -9 11 -7
12 11 8 14 -4 20 -2 16 4 -4 6 3 8 18 5 19 -3 25 0 25 14 0 16 2 17 10 4 7
-11 4 -17 -13 -24z m-3234 -13 c-3 -7 -9 -10 -14 -7 -5 3 -9 1 -9 -5 0 -5 6
-12 13 -14 7 -3 5 -6 -5 -6 -21 -1 -24 19 -6 37 9 9 9 12 -1 12 -7 0 -9 4 -6
10 8 14 34 -11 28 -27z m3357 27 c0 -5 -2 -10 -4 -10 -3 0 -8 5 -11 10 -3 6
-1 10 4 10 6 0 11 -4 11 -10z m60 0 c0 -5 -2 -10 -4 -10 -3 0 -8 5 -11 10 -3
6 -1 10 4 10 6 0 11 -4 11 -10z m235 0 c3 -6 -1 -7 -9 -4 -18 7 -21 14 -7 14
6 0 13 -4 16 -10z m-3755 -7 c-1 -23 -18 -35 -36 -24 -18 10 -18 10 4 11 12 0
22 5 22 10 0 6 2 10 5 10 3 0 5 -3 5 -7z m57 -25 c0 -13 -1 -17 -4 -10 -4 10
-8 9 -17 -4 -13 -18 -37 -12 -35 9 0 9 2 9 6 0 2 -7 9 -13 15 -13 6 0 7 7 4
16 -3 8 -2 12 4 9 6 -3 10 -1 10 4 0 22 16 10 17 -11z m186 9 c4 -10 -2 -13
-21 -9 -24 5 -25 6 -7 13 11 4 21 8 21 8 1 1 4 -5 7 -12z m3377 -31 c0 -5 -7
-3 -15 4 -8 7 -15 20 -15 28 0 13 3 12 15 -4 8 -10 15 -23 15 -28z m170 34 c0
-5 -8 -10 -17 -10 -15 0 -16 2 -3 10 19 12 20 12 20 0z m-80 -42 c0 -5 -6 -3
-13 4 -8 7 -14 19 -14 26 0 11 4 10 14 -4 7 -10 13 -22 13 -26z m-485 21 c11
-16 1 -19 -13 -3 -7 8 -8 14 -3 14 5 0 13 -5 16 -11z m330 -7 c-3 -3 -11 0
-18 7 -9 10 -8 11 6 5 10 -3 15 -9 12 -12z m-3671 -4 c-5 -8 -2 -9 9 -5 17 6
23 -4 10 -16 -7 -8 -33 11 -33 24 0 5 5 9 11 9 5 0 7 -5 3 -12z m251 -11 c8 3
21 -2 30 -10 9 -10 26 -14 42 -11 15 3 24 2 21 -2 -13 -12 -72 -12 -83 1 -7
10 -16 11 -35 3 -14 -6 -36 -13 -50 -15 -19 -3 -22 -1 -10 7 11 7 11 10 2 10
-7 0 -10 5 -7 10 5 8 11 8 20 0 16 -14 45 -2 46 19 1 14 2 14 6 -1 2 -10 10
-15 18 -11z m165 13 c0 -5 -5 -10 -11 -10 -5 0 -7 5 -4 10 3 6 8 10 11 10 2 0
4 -4 4 -10z m2857 -12 c-3 -8 -6 -5 -6 6 -1 11 2 17 5 13 3 -3 4 -12 1 -19z
m333 -7 c3 -2 -3 -1 -12 2 -9 3 -19 1 -21 -6 -3 -7 -4 -2 -4 10 1 21 7 20 37
-6z m-3210 -14 c0 -8 -3 -8 -9 2 -5 7 -14 10 -20 7 -6 -4 -11 0 -11 9 0 13 4
14 20 5 11 -6 20 -16 20 -23z m2919 -12 c0 -5 -4 -3 -9 5 -5 8 -9 22 -9 30 0
16 17 -16 18 -35z m-2992 29 c-3 -3 -12 -4 -19 -1 -8 3 -5 6 6 6 11 1 17 -2
13 -5z m288 -4 c3 -6 -1 -7 -9 -4 -18 7 -21 14 -7 14 6 0 13 -4 16 -10z m2905
0 c13 -9 13 -10 0 -10 -8 0 -22 5 -30 10 -13 9 -13 10 0 10 8 0 22 -5 30 -10z
m-3080 -11 c13 -9 13 -10 -2 -6 -9 3 -19 1 -22 -6 -2 -7 -5 -4 -5 6 -1 20 7
21 29 6z m2947 -11 c-3 -8 -6 -5 -6 6 -1 11 2 17 5 13 3 -3 4 -12 1 -19z
m-3228 -31 c1 9 8 10 24 4 28 -10 47 -4 40 15 -6 17 -5 17 35 3 33 -11 34 -34
1 -24 -10 4 -27 2 -36 -4 -10 -6 -13 -11 -8 -12 50 -6 72 -2 86 15 15 18 17
18 39 3 22 -15 22 -16 2 -14 -11 0 -18 5 -16 9 3 4 0 8 -5 8 -11 0 -15 -13
-12 -37 2 -16 -15 -17 -24 -3 -5 8 -11 7 -21 -1 -18 -15 -18 -39 1 -39 8 0 15
6 15 13 0 8 3 7 9 -3 7 -10 3 -18 -12 -29 -12 -8 -24 -16 -26 -17 -2 -2 2 -10
9 -19 9 -11 9 -15 1 -15 -7 0 -9 -5 -6 -10 4 -6 11 -7 17 -4 7 4 8 2 4 -4 -4
-7 -3 -12 3 -12 16 0 19 24 4 38 -10 10 -10 16 0 27 10 11 15 11 34 -1 19 -12
23 -12 30 1 9 15 53 10 53 -6 0 -5 7 -5 17 -2 10 4 14 2 10 -4 -11 -18 -47
-23 -47 -7 0 18 -14 18 -29 0 -8 -10 -9 -16 -1 -21 6 -3 7 -11 4 -17 -4 -7 -9
-7 -13 1 -5 7 -16 6 -35 -4 -15 -8 -33 -12 -39 -8 -6 4 -8 0 -5 -8 5 -12 -1
-15 -26 -12 l-31 3 35 -13 c33 -13 34 -14 13 -21 -13 -4 -23 -12 -23 -19 0 -8
3 -8 12 1 7 7 21 12 32 12 16 0 13 -4 -12 -17 -25 -12 -30 -18 -20 -25 9 -7 8
-8 -5 -4 -10 3 -23 6 -28 6 -5 0 -2 11 7 25 18 27 16 35 -10 39 -9 1 -16 6
-15 11 0 4 -5 12 -13 17 -10 7 -10 11 4 22 10 7 15 16 12 19 -3 3 -1 14 6 24
11 17 11 17 6 0 -4 -11 -2 -16 5 -12 6 4 13 -3 16 -15 4 -16 8 -18 14 -8 13
20 11 28 -8 28 -14 0 -15 2 -5 9 10 6 8 10 -9 14 -14 4 -27 1 -31 -6 -5 -7 -6
0 -2 15 5 23 3 26 -15 21 -11 -3 -18 -9 -15 -14 3 -5 -2 -9 -10 -9 -17 0 -20
9 -8 25 6 10 31 15 83 18 9 1 22 8 30 16 11 13 11 14 -3 8 -9 -3 -31 1 -47 9
-17 9 -35 13 -40 9 -13 -8 -30 26 -23 45 4 10 8 5 13 -15 4 -16 7 -24 8 -18z
m334 30 c3 -8 -1 -14 -8 -14 -7 0 -11 6 -8 14 3 7 6 13 8 13 2 0 5 -6 8 -13z
m2782 3 c-3 -5 -12 -10 -18 -10 -7 0 -6 4 3 10 19 12 23 12 15 0z m189 -19
c-2 -3 -12 3 -22 13 -16 17 -16 18 5 5 12 -7 20 -15 17 -18z m-3064 -4 c10 -4
8 -6 -7 -6 -16 -1 -23 5 -23 17 0 10 3 13 8 6 4 -6 14 -14 22 -17z m3216 10
c5 -4 1 -5 -8 -2 -9 4 -19 1 -23 -4 -7 -12 -25 -6 -25 8 0 9 46 8 56 -2z m114
3 c0 -5 -5 -10 -11 -10 -5 0 -7 5 -4 10 3 6 8 10 11 10 2 0 4 -4 4 -10z m125
0 c4 -6 -1 -7 -11 -3 -12 4 -15 3 -10 -5 4 -7 2 -12 -3 -12 -12 0 -14 13 -4
23 9 10 21 9 28 -3z m-425 -10 c0 -5 -2 -10 -4 -10 -3 0 -8 5 -11 10 -3 6 -1
10 4 10 6 0 11 -4 11 -10z m-195 -18 c-3 -3 -11 0 -18 7 -9 10 -8 11 6 5 10
-3 15 -9 12 -12z m822 12 c-3 -3 -12 -4 -19 -1 -8 3 -5 6 6 6 11 1 17 -2 13
-5z m-3577 -30 c0 -8 -10 -14 -22 -14 -17 0 -19 3 -9 9 7 5 11 14 7 20 -5 7
-1 9 8 5 9 -3 16 -12 16 -20z m124 10 c3 -8 2 -12 -4 -9 -6 3 -10 10 -10 16 0
14 7 11 14 -7z m-74 -15 c0 -6 -4 -7 -10 -4 -5 3 -10 11 -10 16 0 6 5 7 10 4
6 -3 10 -11 10 -16z m2990 11 c-8 -5 -19 -10 -25 -10 -5 0 -3 5 5 10 8 5 20
10 25 10 6 0 3 -5 -5 -10z m258 -15 c-3 -3 -9 2 -12 12 -6 14 -5 15 5 6 7 -7
10 -15 7 -18z m447 15 c3 -5 2 -10 -4 -10 -5 0 -13 5 -16 10 -3 6 -2 10 4 10
5 0 13 -4 16 -10z m-3819 -11 c3 -6 0 -15 -7 -20 -12 -8 -12 -11 1 -18 8 -6
11 -13 8 -17 -4 -3 -14 0 -22 9 -14 13 -14 16 0 28 12 10 12 14 2 20 -9 6 -9
9 -1 9 6 0 15 -5 19 -11z m3334 1 c0 -5 -2 -10 -4 -10 -3 0 -8 5 -11 10 -3 6
-1 10 4 10 6 0 11 -4 11 -10z m-3540 -9 c0 -6 -9 -9 -20 -8 -11 1 -20 5 -20 9
0 4 9 8 20 8 11 0 20 -4 20 -9z m3515 -12 c-8 -11 -42 -12 -49 0 -3 4 6 6 21
3 19 -4 24 -2 18 8 -5 9 -4 11 4 6 6 -4 9 -12 6 -17z m-3345 7 c0 -3 -4 -8
-10 -11 -5 -3 -10 -1 -10 4 0 6 5 11 10 11 6 0 10 -2 10 -4z m135 -16 c-3 -5
-12 -10 -18 -10 -7 0 -6 4 3 10 19 12 23 12 15 0z m35 1 c0 -5 -7 -12 -16 -15
-14 -5 -15 -4 -4 9 14 17 20 19 20 6z m-200 -11 c0 -5 -7 -10 -16 -10 -8 0
-12 5 -9 10 3 6 10 10 16 10 5 0 9 -4 9 -10z m120 0 c0 -5 -2 -10 -4 -10 -3 0
-8 5 -11 10 -3 6 -1 10 4 10 6 0 11 -4 11 -10z m3147 -10 c14 -11 22 -20 18
-20 -4 0 -18 9 -32 20 -14 11 -22 20 -18 20 4 0 18 -9 32 -20z m-3027 -10 c0
-5 -5 -10 -11 -10 -5 0 -7 5 -4 10 3 6 8 10 11 10 2 0 4 -4 4 -10z m30 6 c0
-3 -4 -8 -10 -11 -5 -3 -10 -1 -10 4 0 6 5 11 10 11 6 0 10 -2 10 -4z m3207
-21 c-6 -7 -14 -10 -17 -7 -3 4 -9 11 -15 15 -6 5 -3 7 8 3 9 -3 17 -1 17 5 0
6 4 7 10 4 6 -4 5 -11 -3 -20z m178 15 c3 -5 1 -10 -4 -10 -6 0 -11 5 -11 10
0 6 2 10 4 10 3 0 8 -4 11 -10z m-3441 -15 c3 -8 1 -15 -4 -15 -6 0 -10 7 -10
15 0 8 2 15 4 15 2 0 6 -7 10 -15z m3196 5 c0 -5 -2 -10 -4 -10 -3 0 -8 5 -11
10 -3 6 -1 10 4 10 6 0 11 -4 11 -10z m170 -10 c0 -5 -2 -10 -4 -10 -3 0 -8 5
-11 10 -3 6 -1 10 4 10 6 0 11 -4 11 -10z m-3422 -25 c-3 -3 -9 2 -12 12 -6
14 -5 15 5 6 7 -7 10 -15 7 -18z m2722 21 c0 -2 -7 -7 -16 -10 -8 -3 -12 -2
-9 4 6 10 25 14 25 6z m355 -16 c3 -5 1 -10 -4 -10 -6 0 -11 5 -11 10 0 6 2
10 4 10 3 0 8 -4 11 -10z m212 4 c-3 -3 -12 -4 -19 -1 -8 3 -5 6 6 6 11 1 17
-2 13 -5z m-462 -62 c-6 -6 -34 11 -39 24 -4 11 0 10 18 -3 13 -10 23 -19 21
-21z m195 28 c0 -5 -4 -10 -10 -10 -5 0 -10 5 -10 10 0 6 5 10 10 10 6 0 10
-4 10 -10z m50 0 c0 -5 -4 -10 -10 -10 -5 0 -10 5 -10 10 0 6 5 10 10 10 6 0
10 -4 10 -10z m280 -5 c0 -8 -2 -15 -4 -15 -2 0 -6 7 -10 15 -3 8 -1 15 4 15
6 0 10 -7 10 -15z m-3418 -3 c-7 -2 -9 -9 -5 -15 4 -7 -1 -6 -10 2 -9 7 -24
11 -32 7 -8 -3 -15 -1 -15 4 0 5 17 9 37 8 21 -1 32 -3 25 -6z m3579 -9 c13
-16 12 -17 -3 -4 -10 7 -18 15 -18 17 0 8 8 3 21 -13z m-3451 3 c0 -3 -4 -8
-10 -11 -5 -3 -10 -1 -10 4 0 6 5 11 10 11 6 0 10 -2 10 -4z m2838 -21 c-3 -3
-9 2 -12 12 -6 14 -5 15 5 6 7 -7 10 -15 7 -18z m145 4 c4 -16 3 -18 -9 -8 -7
6 -11 15 -8 20 8 13 11 11 17 -12z m143 7 c-2 -16 -36 -51 -36 -37 0 5 5 13
10 16 15 10 12 23 -7 28 -12 3 -8 5 9 6 17 1 26 -4 24 -13z m-102 -11 c-4 -8
-11 -12 -16 -9 -6 4 -5 10 3 15 19 12 19 11 13 -6z m-206 -20 c-3 -3 -9 2 -12
12 -6 14 -5 15 5 6 7 -7 10 -15 7 -18z m427 15 c3 -6 -1 -7 -9 -4 -18 7 -21
14 -7 14 6 0 13 -4 16 -10z m-3490 -10 c-3 -5 -11 -10 -16 -10 -6 0 -7 5 -4
10 3 6 11 10 16 10 6 0 7 -4 4 -10z m3780 -8 c-3 -3 -11 0 -18 7 -9 10 -8 11
6 5 10 -3 15 -9 12 -12z m-3725 -12 c-8 -5 -19 -10 -25 -10 -5 0 -3 5 5 10 8
5 20 10 25 10 6 0 3 -5 -5 -10z m50 6 c0 -2 -7 -7 -16 -10 -8 -3 -12 -2 -9 4
6 10 25 14 25 6z m2830 -11 c0 -1 -9 -5 -19 -8 -13 -3 -18 -1 -14 9 4 10 33
10 33 -1z m60 -6 c0 -5 -4 -9 -10 -9 -5 0 -10 7 -10 16 0 8 5 12 10 9 6 -3 10
-10 10 -16z m91 8 c-6 -8 -8 -17 -4 -20 3 -4 1 -7 -5 -7 -14 0 -14 2 -6 24 3
9 11 16 16 16 7 0 6 -5 -1 -13z m310 -10 c-10 -9 -11 -8 -5 6 3 10 9 15 12 12
3 -3 0 -11 -7 -18z m79 7 c0 -2 -7 -4 -15 -4 -8 0 -15 4 -15 10 0 5 7 7 15 4
8 -4 15 -8 15 -10z m-3460 -2 c0 -5 -7 -9 -15 -9 -8 0 -12 4 -9 9 3 4 9 8 15
8 5 0 9 -4 9 -8z m160 -12 c0 -5 -4 -10 -10 -10 -5 0 -10 5 -10 10 0 6 5 10
10 10 6 0 10 -4 10 -10z m3025 -10 c-4 -6 -1 -17 5 -25 7 -9 8 -15 2 -15 -12
0 -24 29 -16 41 3 5 7 9 10 9 3 0 2 -5 -1 -10z m455 5 c0 -7 -30 -13 -34 -7
-3 4 4 9 15 9 10 1 19 0 19 -2z m-3659 -24 c18 -11 26 -22 20 -25 -6 -4 -11
-3 -11 3 0 5 -15 7 -32 4 -32 -4 -32 -4 -13 12 17 14 17 16 3 11 -10 -3 -18
-1 -18 4 0 15 16 12 51 -9z m44 9 c-3 -5 -12 -10 -18 -10 -7 0 -6 4 3 10 19
12 23 12 15 0z m42 -24 c-6 -8 -18 -11 -26 -8 -10 4 -12 1 -6 -8 5 -8 4 -11
-3 -6 -16 9 -3 36 14 29 8 -3 14 0 14 7 0 6 4 8 10 5 6 -4 5 -11 -3 -19z
m3062 -10 c-3 -3 -11 5 -18 17 -13 21 -12 21 5 5 10 -10 16 -20 13 -22z m201
12 c0 -6 -6 -5 -15 2 -8 7 -15 14 -15 16 0 2 7 1 15 -2 8 -4 15 -11 15 -16z
m45 12 c3 -5 1 -10 -4 -10 -6 0 -11 5 -11 10 0 6 2 10 4 10 3 0 8 -4 11 -10z
m-3215 -10 c0 -5 -5 -10 -11 -10 -5 0 -7 5 -4 10 3 6 8 10 11 10 2 0 4 -4 4
-10z m2873 -22 c6 -22 5 -22 -8 -4 -17 22 -20 40 -6 32 5 -3 11 -16 14 -28z
m-2826 -4 c-3 -3 -12 -4 -19 -1 -8 3 -5 6 6 6 11 1 17 -2 13 -5z m2878 -15
c11 -17 -1 -21 -15 -4 -8 9 -8 15 -2 15 6 0 14 -5 17 -11z m535 -6 c0 -10 -4
-14 -8 -8 -4 6 -11 13 -16 18 -5 4 -2 7 7 7 10 0 17 -8 17 -17z m-3510 3 c0
-11 -19 -15 -25 -6 -3 5 1 10 9 10 9 0 16 -2 16 -4z m97 -18 c-3 -8 -6 -5 -6
6 -1 11 2 17 5 13 3 -3 4 -12 1 -19z m3036 15 c-7 -2 -19 -2 -25 0 -7 3 -2 5
12 5 14 0 19 -2 13 -5z m131 -9 c9 -24 2 -26 -12 -4 -7 11 -8 20 -3 20 5 0 12
-7 15 -16z m-3328 -23 c-4 -6 -16 -11 -27 -11 -18 0 -18 1 -1 19 17 18 40 12
28 -8z m3024 7 c0 -6 -6 -5 -15 2 -8 7 -15 14 -15 16 0 2 7 1 15 -2 8 -4 15
-11 15 -16z m270 0 c0 -5 -9 -4 -20 2 -11 6 -20 12 -20 14 0 2 9 2 20 -1 11
-3 20 -9 20 -15z m-3346 -3 c-4 -8 -7 -15 -9 -15 -2 0 -5 7 -9 15 -3 9 0 15 9
15 9 0 12 -6 9 -15z m886 -11 c0 -8 -43 -43 -54 -44 -5 0 1 11 14 25 22 24 40
32 40 19z m2140 -16 c0 -6 -6 -5 -15 2 -8 7 -15 14 -15 16 0 2 7 1 15 -2 8 -4
15 -11 15 -16z m607 16 c-3 -3 -12 -4 -19 -1 -8 3 -5 6 6 6 11 1 17 -2 13 -5z
m-462 -14 c3 -6 -1 -7 -9 -4 -18 7 -21 14 -7 14 6 0 13 -4 16 -10z m247 3 c-6
-2 -9 -10 -6 -15 4 -7 2 -8 -5 -4 -13 9 -5 26 12 25 9 0 8 -2 -1 -6z m153 -3
c3 -5 1 -10 -4 -10 -6 0 -11 5 -11 10 0 6 2 10 4 10 3 0 8 -4 11 -10z m-3768
-15 c0 -10 -10 -15 -26 -15 l-26 0 25 14 c14 8 25 14 26 15 0 1 1 -6 1 -14z
m303 4 c12 -9 12 -10 -4 -5 -11 4 -24 0 -33 -11 -13 -16 -13 -16 -3 5 12 25
18 26 40 11z m3195 -15 c9 -15 12 -23 6 -20 -11 7 -35 46 -28 46 3 0 12 -12
22 -26z m26 4 c11 -21 11 -22 -4 -9 -10 7 -17 17 -17 22 0 15 9 10 21 -13z
m-3151 -8 c-12 -22 -21 -26 -17 -7 2 10 17 26 25 27 1 0 -2 -9 -8 -20z m3330
16 c0 -3 -4 -8 -10 -11 -5 -3 -10 -1 -10 4 0 6 5 11 10 11 6 0 10 -2 10 -4z
m-3676 -33 c-2 -16 -1 -20 2 -10 3 9 11 17 18 17 14 0 47 -36 39 -44 -3 -3
-12 2 -18 11 -10 14 -16 15 -27 6 -15 -13 -58 -13 -58 -1 0 4 6 8 14 8 7 0 16
9 19 20 8 29 15 24 11 -7z m146 23 c0 -3 -4 -8 -10 -11 -5 -3 -10 -1 -10 4 0
6 5 11 10 11 6 0 10 -2 10 -4z m124 -24 c3 -5 -1 -9 -9 -9 -8 0 -12 4 -9 9 3
4 7 8 9 8 2 0 6 -4 9 -8z m1926 -17 c22 -27 5 -37 -19 -11 -19 20 -21 26 -9
26 9 0 21 -7 28 -15z m-2060 -27 c0 -4 9 -8 20 -8 23 0 26 -10 8 -29 -8 -8 -1
-7 20 3 17 9 32 13 32 9 0 -5 5 -1 10 7 5 8 10 11 10 5 0 -19 -18 -38 -29 -31
-6 4 -11 3 -11 -3 0 -6 -6 -8 -14 -5 -8 3 -17 1 -20 -4 -3 -5 -17 -7 -31 -4
-16 3 -25 0 -25 -8 0 -7 6 -10 14 -7 16 6 26 -11 19 -30 -3 -8 -17 2 -37 25
-17 21 -37 37 -44 34 -17 -5 -15 -22 2 -22 8 0 16 -6 19 -12 5 -16 -3 -38 -14
-38 -4 0 -6 6 -3 13 2 7 -5 22 -17 33 -13 10 -19 13 -15 7 4 -7 2 -21 -3 -31
-7 -13 -7 -22 0 -29 8 -8 3 -11 -15 -10 -14 1 -24 7 -22 13 2 6 0 17 -5 25 -5
8 -9 9 -9 3 0 -7 -10 -14 -22 -18 -13 -3 -23 -5 -23 -3 0 1 -11 -6 -25 -16
-13 -9 -28 -17 -32 -17 -15 0 -8 28 8 34 8 3 12 2 9 -4 -3 -6 -2 -10 4 -10 5
0 11 5 13 12 2 6 15 13 28 15 13 2 27 7 30 11 10 15 40 22 40 9 1 -7 7 2 15
18 7 17 14 26 14 21 1 -5 7 -4 14 1 16 14 46 12 44 -1 -3 -16 35 -7 53 11 8 9
9 13 3 9 -7 -4 -13 -2 -13 5 0 7 -11 10 -30 7 -29 -4 -37 1 -24 15 9 9 54 5
54 -5z m3485 -8 c3 -6 -4 -10 -17 -10 -18 0 -20 2 -8 10 19 12 18 12 25 0z
m-4311 -25 c20 -8 36 -11 36 -6 0 5 9 11 21 14 16 4 18 3 9 -8 -8 -10 -7 -14
2 -18 9 -3 6 -7 -7 -12 -43 -14 -50 -23 -50 -57 0 -33 -18 -60 -43 -65 -6 -2
-12 6 -12 16 0 23 -19 38 -29 23 -4 -7 -12 -8 -21 -2 -13 8 -12 10 3 10 9 0
17 5 17 11 0 6 -8 8 -19 4 -13 -4 -20 0 -24 15 -5 21 8 29 15 9 2 -6 13 -9 23
-7 17 4 14 7 -12 18 -40 15 -46 45 -8 38 16 -3 30 1 41 13 20 23 14 22 58 4z
m1006 -17 c0 -6 -6 -5 -15 2 -8 7 -15 14 -15 16 0 2 7 1 15 -2 8 -4 15 -11 15
-16z m630 8 c0 -2 -8 -10 -17 -17 -16 -13 -17 -12 -4 4 13 16 21 21 21 13z
m-1489 -26 c13 8 19 7 19 0 0 -6 -6 -13 -14 -16 -8 -3 -17 -12 -20 -21 -4 -10
-2 -13 7 -10 8 3 21 -7 32 -25 17 -30 17 -30 -3 -24 -11 4 -23 2 -27 -4 -3 -5
-1 -10 4 -10 6 0 11 -4 11 -8 0 -5 -7 -9 -15 -9 -8 0 -15 3 -15 7 0 3 -9 6
-21 7 -13 1 -20 -4 -18 -15 3 -33 -1 -53 -10 -48 -4 3 -8 24 -8 46 0 44 -15
71 -28 49 -5 -8 -4 -10 3 -5 15 9 15 1 2 -24 -8 -16 -8 -18 5 -14 8 4 15 1 15
-6 0 -13 -41 -10 -51 4 -4 4 -9 4 -13 -2 -3 -6 8 -16 24 -24 17 -7 33 -23 37
-36 4 -17 9 -20 16 -13 15 15 34 14 40 -3 4 -9 0 -12 -13 -9 -10 3 -21 0 -24
-6 -4 -6 -14 -11 -22 -11 -9 0 -12 5 -8 12 4 7 3 8 -5 4 -6 -4 -14 0 -17 8 -8
20 -21 21 -26 2 -3 -12 -6 -12 -23 1 -16 12 -16 14 -3 10 10 -3 20 -2 23 3 6
10 -15 19 -32 12 -7 -2 -13 -10 -13 -17 0 -7 -11 -20 -25 -29 -14 -9 -25 -23
-25 -32 0 -8 -4 -13 -9 -9 -13 7 -22 -10 -15 -28 3 -9 14 -13 27 -10 21 4 22
4 2 -8 -28 -18 -65 -19 -58 -2 3 7 9 10 14 7 5 -3 9 0 9 5 0 6 -5 11 -12 11
-6 0 0 12 14 28 14 15 24 33 23 40 -2 7 -1 8 2 2 3 -8 9 -7 19 1 22 18 17 30
-10 23 -13 -3 -27 -1 -30 5 -6 10 5 15 25 13 3 -1 4 9 2 22 -3 15 1 25 11 29
9 4 16 2 16 -3 0 -7 52 -4 56 3 0 1 13 19 29 40 22 29 30 35 41 26 8 -6 14
-18 14 -25 0 -23 20 -16 32 12 8 18 9 30 1 42 -7 12 -7 20 1 28 6 6 12 8 14 3
2 -5 12 -4 23 1z m246 -32 c-6 -4 -20 -8 -30 -8 -17 0 -17 1 0 26 16 25 17 25
30 8 10 -14 10 -19 0 -26z m3927 26 c3 -8 2 -12 -4 -9 -6 3 -10 10 -10 16 0
14 7 11 14 -7z m150 0 c3 -8 2 -12 -4 -9 -6 3 -10 10 -10 16 0 14 7 11 14 -7z
m-4404 -20 c0 -10 6 -14 14 -11 19 7 29 -20 15 -41 -9 -14 -10 -14 -6 6 3 12
0 23 -6 23 -7 1 -22 3 -35 4 -30 3 -40 14 -22 25 23 15 40 12 40 -6z m893 3
c3 -8 -1 -14 -8 -14 -7 0 -11 6 -8 14 3 7 6 13 8 13 2 0 5 -6 8 -13z m987 -17
c0 -16 -31 -40 -51 -40 -30 0 -36 30 -10 51 17 14 27 16 42 9 10 -6 19 -15 19
-20z m775 10 c19 -21 14 -50 -8 -50 -21 0 -50 37 -44 55 9 21 30 19 52 -5z
m-1798 -4 c-3 -8 -1 -17 6 -20 9 -3 9 -5 0 -5 -15 -1 -26 16 -18 29 9 15 18
12 12 -4z m3373 4 c0 -5 -2 -10 -4 -10 -3 0 -8 5 -11 10 -3 6 -1 10 4 10 6 0
11 -4 11 -10z m-3434 -37 c-3 -4 -6 0 -6 7 0 9 -5 7 -14 -5 -9 -13 -11 -27 -6
-41 9 -22 4 -34 -12 -34 -5 0 -6 9 -3 20 5 14 2 20 -9 20 -9 0 -16 5 -16 12 0
6 3 9 6 5 8 -8 28 12 38 38 7 19 8 19 18 2 5 -10 7 -21 4 -24z m158 29 c3 -5
-1 -9 -9 -9 -8 0 -15 4 -15 9 0 4 4 8 9 8 6 0 12 -4 15 -8z m1926 -33 c13 -24
13 -29 -4 -29 -17 0 -48 39 -40 51 7 12 33 -1 44 -22z m1111 14 c13 -16 12
-17 -3 -4 -17 13 -22 21 -14 21 2 0 10 -8 17 -17z m-3396 -4 c4 -6 17 -14 29
-19 l21 -9 -22 0 c-12 -1 -27 7 -32 17 -9 15 -12 15 -20 2 -7 -9 -6 -17 0 -21
7 -4 4 -12 -6 -23 -20 -20 -29 -21 -21 -1 3 8 1 15 -3 15 -5 0 -7 9 -4 20 3
11 9 18 13 15 5 -3 11 -1 15 5 8 13 22 13 30 -1z m125 -16 c0 -3 -9 -3 -20 0
-17 4 -20 2 -15 -13 3 -10 1 -21 -4 -25 -7 -4 -8 1 -4 11 5 12 3 15 -6 9 -10
-6 -11 -3 -2 13 7 14 17 18 31 15 11 -3 20 -8 20 -10z m3241 0 c13 -17 13 -17
-6 -3 -11 8 -22 16 -24 17 -2 2 0 3 6 3 6 0 17 -8 24 -17z m114 -1 c-3 -3 -11
0 -18 7 -9 10 -8 11 6 5 10 -3 15 -9 12 -12z m-30 -2 c4 -6 -1 -7 -11 -3 -14
5 -16 3 -10 -13 5 -14 4 -16 -5 -7 -12 12 -5 33 11 33 5 0 12 -4 15 -10z m350
-8 c-3 -3 -11 0 -18 7 -9 10 -8 11 6 5 10 -3 15 -9 12 -12z m-1491 -25 c-3 -9
-18 -24 -32 -33 -27 -18 -27 -17 3 18 32 37 39 41 29 15z m-2236 -15 c25 -25
27 -37 11 -48 -7 -4 -10 -1 -7 7 5 14 -21 49 -36 49 -5 0 -17 -7 -27 -16 -10
-9 -26 -14 -35 -10 -16 6 -16 8 0 25 21 24 67 20 94 -7z m62 13 c11 -13 10
-14 -4 -9 -9 3 -16 10 -16 15 0 13 6 11 20 -6z m110 10 c0 -2 -10 -9 -22 -15
-22 -11 -22 -10 -4 4 21 17 26 19 26 11z m3485 -24 c-6 -5 -25 10 -25 20 0 5
6 4 14 -3 8 -7 12 -15 11 -17z m-3892 -14 c-5 -8 -8 -7 -11 1 -5 17 -29 15
-36 -4 -5 -14 -4 -15 9 -4 8 7 15 8 15 2 0 -15 -31 -37 -54 -38 -12 -1 -32 -6
-46 -11 -14 -6 -27 -8 -30 -5 -3 2 1 7 8 9 7 3 26 16 41 29 16 13 34 24 41 24
6 0 8 5 4 12 -4 6 -3 8 2 5 6 -3 16 -2 24 3 17 11 43 -7 33 -23z m-766 -9 c-3
-8 -6 -5 -6 6 -1 11 2 17 5 13 3 -3 4 -12 1 -19z m967 7 c-4 -8 -11 -15 -16
-15 -6 0 -5 6 2 15 7 8 14 15 16 15 2 0 1 -7 -2 -15z m79 -12 c-6 -15 -4 -16
9 -6 15 13 28 8 28 -11 0 -6 -4 -5 -9 3 -7 11 -11 9 -20 -8 -13 -24 -33 -29
-26 -6 3 8 7 22 10 30 2 8 7 15 9 15 3 0 2 -8 -1 -17z m97 13 c0 -2 -7 -9 -15
-16 -13 -11 -14 -10 -9 4 5 14 24 23 24 12z m3375 -6 c3 -6 -1 -7 -9 -4 -18 7
-21 14 -7 14 6 0 13 -4 16 -10z m-1850 -40 c8 -13 -13 -40 -31 -40 -7 0 -20 7
-29 16 -15 15 -15 18 1 35 17 19 44 13 59 -11z m-1542 -5 c-3 -9 -8 -14 -10
-11 -3 3 -2 9 2 15 9 16 15 13 8 -4z m1215 -7 c-3 -25 -34 -36 -51 -19 -14 14
9 41 35 41 14 0 19 -6 16 -22z m-1325 -12 c11 -12 17 -12 28 -3 8 7 3 -1 -11
-16 -14 -16 -26 -24 -28 -18 -2 5 -15 7 -30 5 -19 -3 -23 -2 -13 5 8 5 26 7
40 5 l26 -4 -24 20 c-13 11 -19 20 -13 20 6 0 17 -6 25 -14z m3764 8 c-3 -3
-12 -4 -19 -1 -8 3 -5 6 6 6 11 1 17 -2 13 -5z m-4509 -22 c19 19 39 -6 22
-27 -20 -25 9 -19 37 7 20 19 25 20 33 8 7 -10 10 -11 10 -2 0 6 4 12 10 12 5
0 7 -7 4 -15 -4 -10 -13 -13 -24 -10 -12 4 -24 -2 -33 -15 -13 -18 -18 -20
-37 -10 -13 7 -19 17 -16 27 5 13 3 13 -20 -2 -25 -16 -26 -16 -19 4 8 27 -6
27 -30 1 -10 -11 -21 -18 -23 -15 -3 3 5 16 18 30 21 22 25 23 40 10 13 -11
19 -12 28 -3z m606 2 c9 -3 16 -12 16 -20 0 -9 6 -11 18 -7 16 7 16 6 0 -11
-10 -9 -18 -25 -19 -34 0 -10 -4 -6 -10 9 -8 20 -15 26 -32 23 -21 -4 -21 -4
-2 5 11 4 23 7 28 4 4 -2 7 0 7 6 0 5 -8 15 -17 20 -20 12 -13 14 11 5z m-454
-48 c0 -2 -9 -6 -20 -9 -11 -3 -20 -1 -20 4 0 5 9 9 20 9 11 0 20 -2 20 -4z
m556 -23 c4 4 14 1 22 -6 13 -10 14 -8 8 13 -6 21 -5 22 4 7 6 -9 9 -21 6 -26
-9 -13 -79 -2 -96 16 -14 14 -13 14 9 3 22 -11 23 -10 17 6 -6 18 -5 18 9 0 8
-11 18 -17 21 -13z m97 7 c3 -11 1 -18 -4 -14 -5 3 -9 12 -9 20 0 20 7 17 13
-6z m2102 -11 c9 -28 -2 -41 -26 -29 -18 10 -26 40 -13 53 10 10 33 -4 39 -24z
m-3092 -17 c-9 -9 -17 -11 -21 -6 -4 6 -17 11 -30 11 -19 2 -22 -2 -16 -19 5
-18 4 -19 -9 -7 -15 13 -14 16 4 31 11 9 27 14 34 11 8 -3 15 0 15 6 0 8 5 8
19 -1 17 -10 17 -13 4 -26z m191 29 c3 -4 -7 -6 -22 -4 -24 4 -25 3 -10 -10
16 -12 15 -14 -11 -14 -16 0 -28 6 -28 13 0 7 4 11 8 8 4 -2 10 0 14 6 8 12
42 13 49 1z m582 0 c-4 -5 -2 -11 3 -13 5 -1 3 -9 -5 -16 -12 -11 -13 -9 -10
10 6 30 5 28 12 28 3 0 3 -4 0 -9z m328 -6 c3 -8 1 -15 -4 -15 -6 0 -10 7 -10
15 0 8 2 15 4 15 2 0 6 -7 10 -15z m-814 -21 c0 -3 -8 -4 -17 -2 -12 2 -17 -3
-15 -14 4 -24 0 -23 -29 9 -13 15 -16 21 -7 14 15 -11 19 -11 24 3 5 12 10 13
25 5 10 -5 19 -12 19 -15z m209 -2 c11 11 13 10 8 -4 -3 -9 -1 -19 6 -22 7 -3
2 -3 -11 0 -15 4 -24 0 -28 -10 -3 -9 -10 -16 -16 -16 -5 0 -7 4 -4 9 3 5 -1
11 -9 15 -8 3 -15 11 -14 18 0 9 2 10 5 1 3 -7 12 -9 20 -6 12 4 13 8 4 13 -7
4 -9 13 -5 20 6 9 11 7 19 -9 10 -17 14 -19 25 -9z m238 -4 c-10 -5 -17 -16
-17 -25 0 -13 3 -13 15 -3 12 10 15 10 15 0 0 -10 4 -9 18 2 9 8 24 18 32 22
8 4 5 -1 -7 -10 -22 -15 -33 -42 -14 -30 5 4 7 -3 4 -14 -3 -11 -9 -20 -14
-20 -5 0 -6 6 -3 14 8 21 -27 29 -42 9 -14 -19 -18 -11 -15 32 2 18 0 18 -19
-5 -21 -25 -21 -25 -10 -1 10 19 9 25 -1 33 -9 5 -4 6 14 2 23 -5 26 -4 21 11
-6 15 -4 16 16 5 21 -11 21 -13 7 -22z m-77 12 c0 -5 -7 -10 -16 -10 -8 0 -12
5 -9 10 3 6 10 10 16 10 5 0 9 -4 9 -10z m-690 -30 c0 -5 -5 -10 -11 -10 -5 0
-7 5 -4 10 3 6 8 10 11 10 2 0 4 -4 4 -10z m165 1 c3 -5 1 -12 -5 -16 -5 -3
-10 1 -10 9 0 18 6 21 15 7z m855 -11 c-8 -5 -17 -7 -19 -4 -3 3 1 9 9 14 8 5
17 7 19 4 3 -3 -1 -9 -9 -14z m-755 0 c3 -6 -1 -7 -9 -4 -18 7 -21 14 -7 14 6
0 13 -4 16 -10z m-165 -25 c14 -19 14 -19 -3 -6 -14 11 -21 11 -29 3 -18 -18
-38 -15 -31 4 4 11 8 12 13 4 5 -8 11 -6 20 5 7 8 13 14 14 13 1 -2 8 -12 16
-23z m275 -2 c17 -11 17 -13 2 -13 -9 0 -17 5 -17 11 0 5 -4 8 -9 5 -5 -3 -14
1 -21 9 -11 13 -10 14 6 9 10 -4 28 -13 39 -21z m62 7 c-28 -23 -37 -25 -37
-9 0 5 4 8 9 5 5 -3 14 1 21 9 7 8 17 15 23 15 5 0 -2 -9 -16 -20z m668 0 c3
-5 -1 -10 -10 -10 -9 0 -13 5 -10 10 3 6 8 10 10 10 2 0 7 -4 10 -10z m-1125
-30 c-6 -12 -14 -20 -17 -17 -2 3 1 14 8 26 17 26 24 19 9 -9z m213 13 c-4 -9
-10 -10 -24 -2 -26 13 -24 19 5 17 15 -1 22 -7 19 -15z m122 -11 c0 -7 -3 -11
-6 -9 -12 4 -49 -35 -42 -46 4 -6 1 -7 -6 -2 -9 5 -6 14 10 32 20 20 21 26 9
34 -11 7 -9 8 10 6 14 -2 25 -9 25 -15z m415 15 c0 -2 -12 -14 -27 -28 -24
-22 -23 -11 2 18 9 11 25 17 25 10z m-647 -22 c-3 -9 -8 -14 -10 -11 -3 3 -2
9 2 15 9 16 15 13 8 -4z m72 -5 c-3 -5 -11 -10 -16 -10 -6 0 -7 5 -4 10 3 6
11 10 16 10 6 0 7 -4 4 -10z m115 6 c0 -3 -4 -8 -10 -11 -5 -3 -10 -1 -10 4 0
6 5 11 10 11 6 0 10 -2 10 -4z m80 -16 c0 -11 -4 -20 -8 -20 -4 0 -8 9 -8 20
0 11 4 20 8 20 4 0 8 -9 8 -20z m80 -5 c0 -8 -4 -16 -9 -19 -5 -3 -8 5 -7 18
1 25 16 26 16 1z m115 16 c-3 -5 5 -11 17 -14 21 -3 21 -4 4 -12 -12 -5 -21
-3 -26 6 -8 12 -5 29 6 29 3 0 3 -4 -1 -9z m-145 -23 c0 -4 -6 -8 -14 -8 -8 0
-17 4 -20 8 -2 4 4 8 15 8 10 0 19 -4 19 -8z m230 2 c0 -5 -13 -16 -30 -25
-17 -9 -30 -11 -30 -5 0 5 6 10 14 10 7 0 19 7 26 15 14 17 20 19 20 5z m2339
-45 c0 -5 -6 1 -14 15 -8 14 -14 30 -14 35 0 6 6 -1 14 -15 8 -14 14 -29 14
-35z m-2788 22 c-10 -9 -11 -8 -5 6 3 10 9 15 12 12 3 -3 0 -11 -7 -18z m291
-7 c5 0 8 6 5 13 -3 7 3 13 13 13 14 0 15 -4 6 -18 -13 -21 -40 -20 -42 2 0 9
1 10 3 3 3 -7 9 -13 15 -13z m352 21 c-8 -8 -43 -8 -38 0 2 4 13 7 24 6 10 -1
17 -3 14 -6z m-442 -33 c-9 -9 -15 -9 -24 1 -11 10 -10 11 5 6 10 -5 17 -2 17
6 0 7 3 9 7 6 4 -4 1 -13 -5 -19z m-171 3 c5 8 9 9 9 3 0 -6 -6 -16 -13 -22
-10 -8 -13 -6 -14 11 0 12 1 16 4 8 5 -11 7 -11 14 0z m124 -11 c3 -6 -1 -7
-9 -4 -18 7 -21 14 -7 14 6 0 13 -4 16 -10z m196 -4 c11 6 11 4 0 -10 -11 -13
-16 -14 -22 -4 -5 7 -9 18 -9 23 0 6 4 4 9 -4 5 -8 14 -10 22 -5z m2609 -11
c15 -18 6 -45 -14 -45 -18 0 -40 36 -31 50 9 15 31 12 45 -5z m-2455 -5 c3 -6
-1 -7 -9 -4 -18 7 -21 14 -7 14 6 0 13 -4 16 -10z m205 6 c0 -3 -4 -8 -10 -11
-5 -3 -10 -1 -10 4 0 6 5 11 10 11 6 0 10 -2 10 -4z m-672 -20 c-7 -8 -15 -12
-17 -11 -5 6 10 25 20 25 5 0 4 -6 -3 -14z m483 -9 c-10 -9 -11 -8 -5 6 3 10
9 15 12 12 3 -3 0 -11 -7 -18z m84 13 c3 -5 1 -10 -4 -10 -6 0 -11 5 -11 10 0
6 2 10 4 10 3 0 8 -4 11 -10z m-172 -15 c-3 -9 -8 -14 -10 -11 -3 3 -2 9 2 15
9 16 15 13 8 -4z m-593 -29 c0 -2 -7 -9 -15 -16 -13 -11 -14 -10 -9 4 5 14 24
23 24 12z m370 -11 c0 -8 -2 -15 -4 -15 -2 0 -6 7 -10 15 -3 8 -1 15 4 15 6 0
10 -7 10 -15z m303 0 c-3 -9 -8 -14 -10 -11 -3 3 -2 9 2 15 9 16 15 13 8 -4z
m51 -1 c3 -8 2 -12 -4 -9 -6 3 -10 10 -10 16 0 14 7 11 14 -7z m-590 -18 c-3
-9 -10 -13 -15 -10 -5 3 -3 11 4 19 15 16 19 13 11 -9z m3161 8 c22 -23 16
-69 -10 -69 -22 0 -42 43 -32 69 8 20 21 20 42 0z m-3212 -27 c3 -8 -1 -14 -8
-14 -7 0 -11 6 -8 14 3 7 6 13 8 13 2 0 5 -6 8 -13z m-93 -27 c-6 -11 -13 -20
-16 -20 -2 0 0 9 6 20 6 11 13 20 16 20 2 0 0 -9 -6 -20z m3207 -366 c7 -20
-14 -67 -29 -62 -26 9 -33 36 -14 57 23 25 35 26 43 5z"/>
<path d="M467 3453 c-11 -11 -8 -20 7 -20 8 0 12 6 9 14 -6 15 -7 15 -16 6z"/>
<path d="M685 3271 c-3 -6 3 -9 12 -9 10 0 27 -3 38 -8 18 -7 18 -6 6 9 -15
18 -46 23 -56 8z"/>
<path d="M755 3240 c-3 -5 -1 -10 4 -10 6 0 11 5 11 10 0 6 -2 10 -4 10 -3 0
-8 -4 -11 -10z"/>
<path d="M635 3230 c-3 -5 -1 -10 4 -10 6 0 11 5 11 10 0 6 -2 10 -4 10 -3 0
-8 -4 -11 -10z"/>
<path d="M402 3149 c-2 -31 18 -38 26 -8 3 11 2 11 -7 -1 -9 -13 -11 -13 -11
3 0 9 7 17 15 17 10 0 15 -10 15 -27 0 -21 3 -24 9 -14 15 23 -6 60 -34 61 -6
0 -12 -14 -13 -31z"/>
<path d="M465 3159 c-4 -6 -5 -13 -2 -16 7 -7 27 6 27 18 0 12 -17 12 -25 -2z"/>
<path d="M524 3155 c3 -8 -2 -21 -10 -30 -19 -19 -14 -19 20 -1 22 11 24 15
11 20 -9 3 -13 10 -10 16 3 5 1 10 -5 10 -7 0 -10 -7 -6 -15z"/>
<path d="M2401 2946 c-15 -18 -11 -58 6 -64 20 -6 37 48 20 65 -12 12 -16 12
-26 -1z"/>
<path d="M2643 2944 c-8 -21 14 -67 30 -62 17 6 21 46 7 64 -16 18 -29 18 -37
-2z"/>
<path d="M2480 2850 c-23 -23 -34 -62 -26 -93 6 -26 43 -47 82 -47 29 0 84 49
84 75 0 24 -27 72 -45 79 -32 12 -75 6 -95 -14z m95 -11 c-3 -4 -12 -6 -20 -3
-8 4 -13 10 -10 15 3 4 12 6 20 3 8 -4 13 -10 10 -15z m25 -31 c-1 -7 -8 -24
-16 -38 l-15 -25 5 25 c3 14 6 31 6 38 0 6 5 12 10 12 6 0 10 -6 10 -12z"/>
<path d="M2743 2663 c11 -18 -89 -80 -152 -94 -20 -4 -53 -2 -84 6 -58 15 -75
12 -31 -6 39 -15 107 -23 137 -15 14 3 52 26 85 51 55 40 63 43 77 29 8 -8 15
-11 15 -6 0 5 -12 17 -26 27 -15 9 -24 13 -21 8z"/>
<path d="M380 3310 c-12 -7 -12 -12 -2 -22 6 -6 12 -9 12 -4 0 4 14 -3 32 -15
17 -13 28 -17 24 -11 -4 7 -3 18 2 25 20 24 -37 46 -68 27z"/>
<path d="M819 3229 c-9 -17 -8 -20 2 -14 9 6 11 3 6 -8 -4 -11 -2 -14 8 -11 7
3 23 0 35 -6 12 -6 24 -9 27 -6 3 3 -5 10 -19 15 -13 5 -30 16 -37 25 -12 14
-12 16 3 10 9 -3 16 -1 16 5 0 19 -29 12 -41 -10z"/>
<path d="M1096 3085 c4 -8 10 -12 15 -9 14 8 10 24 -6 24 -9 0 -12 -6 -9 -15z"/>
<path d="M1026 2915 c-3 -8 -1 -15 4 -15 6 0 10 6 11 13 0 6 4 2 9 -10 7 -16
14 -21 27 -16 14 5 14 8 2 11 -7 3 -18 11 -22 18 -11 18 -23 18 -31 -1z"/>
<path d="M1110 2864 c0 -7 27 -34 34 -34 13 0 5 16 -14 28 -11 7 -20 10 -20 6z"/>
<path d="M1010 2812 c0 -16 13 -20 35 -11 11 4 15 8 8 8 -6 1 -18 4 -27 7 -9
3 -16 1 -16 -4z"/>
<path d="M224 2454 c-13 -20 -15 -28 -5 -33 7 -4 11 -12 10 -17 -4 -22 2 -33
15 -28 8 3 16 17 18 30 2 14 7 24 12 23 5 0 12 5 17 12 5 8 -1 17 -18 26 -32
17 -30 17 -49 -13z m46 0 c0 -3 -6 -12 -14 -19 -12 -12 -15 -12 -19 -1 -3 8
-3 17 0 20 8 8 33 8 33 0z"/>
<path d="M255 2359 c-11 -17 1 -21 15 -4 8 9 8 15 2 15 -6 0 -14 -5 -17 -11z"/>
<path d="M410 2365 c-19 -23 -8 -25 14 -4 11 11 15 19 9 19 -6 0 -16 -7 -23
-15z"/>
<path d="M307 2343 c-4 -3 -7 -11 -7 -17 0 -6 5 -5 12 2 6 6 9 14 7 17 -3 3
-9 2 -12 -2z"/>
<path d="M245 2290 c-4 -6 -10 -8 -15 -5 -4 3 -10 -2 -13 -9 -6 -15 20 -15 43
-1 6 3 24 -3 40 -15 17 -12 30 -16 30 -10 0 6 -11 16 -25 22 -14 6 -25 15 -25
20 0 11 -28 10 -35 -2z"/>
<path d="M656 2423 c-6 -14 -5 -15 5 -6 7 7 10 15 7 18 -3 3 -9 -2 -12 -12z"/>
<path d="M695 2270 c-3 -5 -1 -10 4 -10 6 0 11 5 11 10 0 6 -2 10 -4 10 -3 0
-8 -4 -11 -10z"/>
<path d="M174 3158 c3 -10 1 -18 -4 -18 -19 0 -25 -3 -37 -19 -8 -10 -12 -12
-13 -3 0 6 -5 12 -12 12 -8 0 -6 -6 4 -17 12 -11 32 -16 61 -15 33 2 46 -2 51
-14 9 -24 1 -28 -18 -8 -9 9 -20 13 -24 9 -4 -4 -1 -10 6 -12 6 -3 9 -10 6
-15 -4 -6 -2 -8 4 -4 5 3 12 2 14 -2 1 -5 21 0 43 10 30 14 33 18 13 13 -16
-3 -28 -1 -28 5 0 5 7 10 16 10 10 0 14 7 12 23 -2 15 -9 21 -22 19 -11 -2
-15 1 -11 8 4 7 -1 9 -18 5 -18 -5 -28 -2 -37 12 -10 16 -11 16 -6 1z m16 -38
c0 -5 -7 -10 -16 -10 -8 0 -12 5 -9 10 3 6 10 10 16 10 5 0 9 -4 9 -10z m50
-10 c8 -5 11 -10 5 -10 -5 0 -17 5 -25 10 -8 5 -10 10 -5 10 6 0 17 -5 25 -10z"/>
<path d="M317 3093 c-5 -7 -5 -13 -2 -13 3 0 0 -6 -7 -14 -7 -8 -15 -13 -18
-11 -3 2 -18 -3 -35 -11 l-30 -13 30 2 c40 3 78 30 73 54 -2 13 -6 15 -11 6z"/>
<path d="M309 3033 c-13 -16 -12 -17 4 -4 9 7 17 15 17 17 0 8 -8 3 -21 -13z"/>
<path d="M450 3018 c-12 -22 -12 -22 6 -6 10 10 15 20 12 24 -4 3 -12 -5 -18
-18z"/>
<path d="M94 3019 c-9 -15 29 -18 54 -5 l27 15 -38 -2 c-21 -1 -41 -5 -43 -8z"/>
<path d="M533 3023 c-7 -2 -13 -12 -13 -21 0 -14 2 -14 9 -3 5 7 14 11 20 7 7
-5 9 -1 5 8 -3 9 -7 16 -8 15 0 0 -7 -3 -13 -6z"/>
<path d="M470 3005 c-9 -10 -9 -15 -1 -15 6 0 11 5 11 12 0 6 7 3 15 -8 14
-18 14 -18 8 4 -6 26 -16 28 -33 7z"/>
<path d="M147 2996 c-4 -10 0 -12 14 -9 22 6 26 23 5 23 -8 0 -16 -6 -19 -14z"/>
<path d="M692 2983 c1 -16 7 -31 13 -35 14 -11 35 -10 35 2 0 5 -6 7 -13 4 -8
-3 -13 4 -14 17 -2 20 -1 20 22 -5 12 -13 26 -22 31 -18 4 4 4 2 0 -5 -3 -6
-2 -14 4 -18 6 -4 10 5 10 20 0 14 -4 24 -9 20 -5 -3 -21 6 -35 20 -33 33 -48
32 -44 -2z"/>
<path d="M780 3000 c0 -5 4 -10 10 -10 5 0 7 -8 4 -17 -5 -16 -4 -16 6 -3 9
11 13 12 17 3 5 -14 43 -18 43 -5 0 5 -8 16 -18 25 -20 19 -62 23 -62 7z"/>
<path d="M538 2983 c-17 -4 -23 -20 -19 -50 1 -8 -5 -10 -14 -7 -18 7 -20 30
-2 37 7 3 5 6 -5 6 -10 1 -18 -5 -18 -13 0 -8 -6 -17 -12 -19 -9 -4 -7 -6 3
-6 10 -1 16 -9 15 -23 -1 -15 -7 -22 -18 -20 -8 1 -19 -5 -22 -14 -5 -14 -4
-15 9 -4 8 7 15 9 15 5 0 -4 6 -2 13 4 8 6 17 7 22 3 4 -4 5 3 2 16 -3 12 -1
20 3 17 12 -7 29 26 22 44 -2 8 0 11 6 7 5 -3 12 1 16 9 3 8 4 14 3 14 -1 -1
-10 -3 -19 -6z"/>
<path d="M4 2946 c0 -20 4 -36 9 -36 5 0 4 -7 -3 -15 -6 -8 -10 -22 -7 -32 3
-15 6 -13 15 10 12 29 28 38 18 10 -5 -15 -3 -14 9 2 14 18 14 20 1 23 -13 3
-14 8 -5 25 7 12 8 19 4 15 -4 -4 -15 2 -24 14 -17 20 -17 19 -17 -16z"/>
<path d="M400 2965 c10 -12 7 -17 -14 -26 -14 -7 -26 -16 -26 -21 0 -5 8 -4
19 1 10 6 21 8 24 4 4 -3 9 2 13 11 3 9 10 13 15 10 5 -3 9 -1 9 3 0 14 -22
33 -38 33 -12 0 -12 -3 -2 -15z"/>
<path d="M566 2964 c-5 -14 -4 -15 9 -4 17 14 19 20 6 20 -5 0 -12 -7 -15 -16z"/>
<path d="M200 2949 c-14 -4 -20 -7 -13 -8 7 -1 10 -7 7 -15 -3 -8 -12 -12 -19
-10 -7 3 -16 1 -19 -5 -4 -6 6 -8 25 -6 l32 4 -19 -22 c-11 -12 -23 -25 -29
-29 -6 -5 -5 -8 2 -8 7 0 20 11 29 25 9 14 21 22 27 18 6 -3 7 -1 3 5 -4 7 -2
12 3 12 6 0 11 -8 12 -17 0 -10 3 -13 5 -7 3 7 -1 25 -8 41 -11 25 -17 29 -38
22z"/>
<path d="M617 2944 c-6 -11 19 -35 27 -27 3 4 13 -2 22 -13 8 -10 13 -14 10
-7 -4 6 -1 15 5 19 8 5 10 -1 6 -22 -4 -25 -3 -26 8 -11 7 9 17 17 24 17 6 0
11 5 11 10 0 6 5 10 10 10 7 0 7 -6 1 -19 -6 -10 -7 -21 -4 -25 3 -3 -3 -6
-15 -6 -11 0 -23 -4 -26 -9 -7 -10 45 -2 60 11 6 4 20 6 30 2 18 -5 18 -5 2 9
-10 8 -14 18 -10 23 4 4 -2 2 -12 -6 -18 -14 -19 -13 -13 2 8 22 -10 33 -28
18 -8 -6 -20 -8 -27 -4 -7 4 -23 9 -37 10 -13 2 -27 8 -31 15 -4 6 -10 7 -13
3z"/>
<path d="M331 2926 c-7 -8 -20 -13 -30 -11 -9 2 -22 -5 -29 -15 -12 -19 -5
-21 32 -5 11 5 21 3 26 -4 5 -10 9 -9 13 3 4 9 1 16 -6 16 -8 0 -7 4 3 10 8 5
12 12 9 15 -4 3 -12 -1 -18 -9z"/>
<path d="M540 2930 c0 -5 5 -10 10 -10 6 0 10 5 10 10 0 6 -4 10 -10 10 -5 0
-10 -4 -10 -10z"/>
<path d="M431 2921 c-10 -6 -9 -10 3 -14 8 -3 18 -2 21 3 8 13 -9 20 -24 11z"/>
<path d="M390 2920 c-1 -3 -3 -15 -4 -27 -2 -18 0 -20 11 -12 7 6 20 9 28 5 9
-3 13 -2 10 4 -3 6 -12 10 -20 10 -7 0 -16 6 -18 13 -3 6 -6 10 -7 7z"/>
<path d="M575 2910 c-3 -5 -2 -10 4 -10 5 0 13 5 16 10 3 6 2 10 -4 10 -5 0
-13 -4 -16 -10z"/>
<path d="M76 2897 c-15 -11 -17 -18 -8 -33 10 -16 11 -16 12 -2 0 9 5 18 12
20 6 2 9 10 7 16 -3 10 -9 10 -23 -1z"/>
<path d="M539 2908 c-4 -15 -9 -51 -6 -47 15 16 26 49 17 49 -5 0 -10 -1 -11
-2z"/>
<path d="M605 2900 c-3 -5 -1 -10 4 -10 6 0 11 5 11 10 0 6 -2 10 -4 10 -3 0
-8 -4 -11 -10z"/>
<path d="M300 2875 c-7 -9 -11 -17 -9 -20 3 -2 10 5 17 15 14 24 10 26 -8 5z"/>
<path d="M630 2869 c0 -18 2 -19 15 -9 8 7 15 16 15 21 0 5 -7 9 -15 9 -9 0
-15 -9 -15 -21z"/>
<path d="M100 2860 c-6 -11 -7 -20 -2 -20 6 0 12 9 15 20 3 11 3 20 1 20 -2 0
-8 -9 -14 -20z"/>
<path d="M130 2871 c0 -6 5 -13 10 -16 6 -3 10 1 10 9 0 9 -4 16 -10 16 -5 0
-10 -4 -10 -9z"/>
<path d="M828 2854 c2 -14 9 -23 15 -21 18 6 18 22 -1 34 -17 10 -18 8 -14
-13z"/>
<path d="M242 2854 c-9 -10 -9 -14 -1 -14 6 0 9 -9 6 -20 -4 -17 -2 -18 14 -9
18 9 27 30 12 28 -19 -3 -27 2 -14 10 7 5 9 11 5 14 -5 3 -15 -1 -22 -9z"/>
<path d="M315 2860 c-3 -5 0 -7 9 -4 8 3 27 -2 43 -11 l28 -17 -24 21 c-25 23
-46 27 -56 11z"/>
<path d="M579 2859 c23 -9 23 -10 5 -24 -19 -13 -19 -14 1 -11 11 2 27 -5 37
-18 16 -20 18 -20 35 -3 15 15 15 17 2 12 -10 -4 -27 5 -45 24 -16 17 -36 31
-44 30 -8 0 -4 -5 9 -10z"/>
<path d="M754 2858 c-5 -8 -2 -9 11 -4 15 5 16 4 5 -9 -9 -11 -10 -15 0 -15 6
0 10 -6 7 -12 -2 -7 -10 -12 -16 -10 -7 1 -10 -2 -6 -8 3 -5 13 -10 21 -10 8
0 13 4 9 9 -3 5 -1 12 5 16 6 4 8 11 5 16 -4 5 -1 9 6 9 7 0 4 7 -7 15 -23 18
-31 18 -40 3z"/>
<path d="M890 2856 c0 -9 5 -16 10 -16 6 0 10 4 10 9 0 6 -4 13 -10 16 -5 3
-10 -1 -10 -9z"/>
<path d="M460 2841 c0 -11 -7 -26 -15 -34 -13 -13 -13 -16 1 -21 22 -9 24 -8
18 9 -8 21 6 41 17 24 6 -10 9 -11 9 -1 0 6 5 12 10 12 6 0 10 -6 10 -14 0 -8
5 -18 12 -22 7 -4 8 -3 4 4 -4 7 -2 12 6 12 7 0 2 7 -10 16 -12 8 -27 12 -34
8 -8 -5 -9 -2 -5 9 4 11 1 17 -8 17 -8 0 -15 -9 -15 -19z"/>
<path d="M16 2841 c-4 -7 -5 -15 -2 -18 9 -9 19 4 14 18 -4 11 -6 11 -12 0z"/>
<path d="M425 2841 c19 -8 19 -8 -4 -20 -12 -7 -30 -10 -39 -7 -15 5 -15 5 -1
-6 32 -26 37 -51 14 -74 -12 -11 -27 -18 -34 -16 -8 3 -6 9 6 18 17 13 17 14
-1 7 -13 -4 -17 -2 -14 8 3 8 13 13 22 13 21 -2 20 2 -5 29 l-21 22 7 -24 c5
-15 4 -21 -3 -17 -6 3 -13 2 -17 -4 -3 -5 -15 -10 -26 -10 -11 0 -22 -7 -25
-15 -4 -8 -12 -15 -19 -15 -8 0 -17 -4 -20 -10 -8 -14 27 0 40 15 13 16 60 14
60 -3 0 -7 5 -16 11 -20 6 -4 15 -15 21 -26 7 -12 13 -15 17 -7 4 6 2 11 -3
11 -21 0 -11 19 12 22 12 2 21 9 19 17 -2 8 3 18 10 22 19 13 30 11 22 -3 -5
-10 -4 -10 5 -2 17 15 83 -8 92 -32 11 -29 10 -42 -3 -40 -7 0 -14 -3 -15 -7
-1 -5 -9 -14 -19 -21 -11 -9 -15 -21 -11 -35 4 -17 2 -21 -9 -17 -8 3 -14 1
-14 -4 0 -6 11 -10 25 -10 22 0 24 3 15 19 -15 29 -13 34 20 53 17 9 30 13 30
8 0 -4 9 -6 20 -3 11 3 17 10 14 15 -3 5 -12 7 -19 4 -15 -6 -29 37 -20 64 3
10 1 21 -4 25 -7 3 -8 0 -5 -9 8 -20 1 -20 -38 0 -19 10 -44 14 -65 11 -20 -4
-31 -2 -28 4 4 5 1 9 -4 9 -18 0 -12 25 9 38 23 14 18 32 -8 31 -14 0 -13 -2
3 -8z m-10 -111 c3 -5 1 -10 -4 -10 -6 0 -11 5 -11 10 0 6 2 10 4 10 3 0 8 -4
11 -10z"/>
<path d="M540 2836 c7 -7 13 -7 20 0 6 6 3 10 -10 10 -13 0 -16 -4 -10 -10z"/>
<path d="M663 2836 c9 -7 17 -19 17 -25 0 -7 4 -10 10 -6 15 9 1 32 -23 39
-20 5 -21 4 -4 -8z"/>
<path d="M720 2840 c-20 -12 -10 -19 14 -10 11 3 15 9 10 13 -6 3 -16 2 -24
-3z"/>
<path d="M46 2831 c-3 -5 8 -14 25 -20 19 -6 28 -15 24 -22 -6 -8 -9 -8 -15 1
-5 8 -9 7 -14 -6 -6 -15 -8 -16 -24 0 -21 18 -42 21 -42 6 0 -5 7 -7 15 -4 8
4 15 1 15 -5 0 -6 -8 -11 -17 -11 -15 0 -15 -2 -4 -9 10 -7 12 -14 5 -23 -5
-8 -1 -6 8 4 9 10 30 21 47 24 16 4 32 12 35 20 3 8 11 14 17 14 8 0 8 -4 -1
-15 -7 -9 -8 -15 -2 -15 16 0 24 -33 10 -42 -9 -6 -8 -8 6 -6 10 2 21 -2 23
-8 2 -7 -6 -10 -21 -9 -15 2 -23 -1 -20 -8 2 -7 -5 -23 -16 -37 -14 -19 -22
-22 -30 -14 -9 9 -19 8 -41 -5 -29 -16 -38 -31 -19 -31 14 0 12 -27 -3 -33 -7
-3 -6 -6 5 -6 9 -1 20 4 23 10 4 6 14 8 23 4 8 -3 19 0 24 7 7 9 8 4 5 -14 -2
-17 0 -25 6 -21 6 4 8 -2 5 -13 -4 -14 0 -20 13 -21 10 -1 22 3 25 9 4 7 9 6
15 -3 4 -7 11 -10 14 -7 13 12 -6 28 -33 28 -25 0 -25 1 -6 15 16 12 16 14 2
9 -25 -9 -34 22 -14 45 11 12 13 20 5 28 -8 8 -7 17 4 33 l15 21 30 -29 c24
-23 28 -33 19 -43 -10 -11 -9 -11 5 0 16 12 14 46 -2 36 -9 -6 -22 53 -14 66
3 5 -1 6 -9 3 -8 -3 -17 2 -20 10 -4 9 -2 16 4 16 25 0 -26 50 -57 56 -19 3
-31 10 -28 15 3 5 1 9 -5 9 -5 0 -12 -4 -15 -9z m44 -203 c23 -4 24 -5 5 -13
-11 -5 -23 -13 -27 -19 -5 -8 -8 -7 -8 1 0 7 -7 10 -15 7 -8 -4 -15 -1 -15 5
0 16 24 41 30 31 3 -4 16 -10 30 -12z"/>
<path d="M118 2829 c-10 -7 -10 -9 2 -10 8 0 25 -2 38 -5 12 -2 22 0 22 5 0
12 -46 20 -62 10z"/>
<path d="M290 2814 c-12 -14 -12 -16 -1 -10 9 6 12 4 9 -5 -3 -8 -18 -14 -36
-14 -34 -1 -49 -9 -33 -20 6 -3 11 -2 11 3 0 5 10 7 23 5 30 -6 57 17 48 40
-7 18 -8 18 -21 1z"/>
<path d="M804 2808 c-4 -6 -3 -8 4 -4 6 3 15 -2 21 -11 5 -10 13 -15 16 -11 4
4 0 14 -8 23 -19 18 -24 19 -33 3z"/>
<path d="M600 2803 c0 -5 -15 -7 -32 -5 -39 5 -35 -5 5 -12 25 -4 46 9 33 21
-3 4 -6 2 -6 -4z"/>
<path d="M170 2790 c0 -5 5 -10 11 -10 5 0 7 5 4 10 -3 6 -8 10 -11 10 -2 0
-4 -4 -4 -10z"/>
<path d="M701 2783 c0 -11 3 -13 6 -5 2 6 9 10 13 7 5 -3 11 -1 15 5 3 5 -3
10 -14 10 -14 0 -21 -6 -20 -17z"/>
<path d="M672 2785 c4 -4 3 -17 -3 -28 -7 -12 -7 -17 -1 -13 6 3 12 -2 14 -11
3 -15 5 -14 10 5 4 14 2 20 -5 15 -6 -4 -8 0 -4 10 3 9 1 19 -6 23 -7 4 -9 4
-5 -1z"/>
<path d="M809 2773 c8 -16 8 -23 -2 -26 -9 -4 -9 -7 1 -18 9 -9 12 -10 12 -1
0 7 8 12 18 12 14 0 15 -2 3 -9 -12 -8 -9 -11 13 -17 18 -4 24 -9 16 -14 -9
-6 -9 -9 0 -15 7 -4 16 -2 20 6 11 16 4 29 -16 29 -17 0 -18 12 -3 27 7 7 3
11 -16 11 -14 0 -33 8 -41 18 -14 18 -15 18 -5 -3z"/>
<path d="M610 2776 c0 -7 40 -14 44 -7 3 4 -6 8 -20 9 -13 1 -24 0 -24 -2z"/>
<path d="M772 2773 c-7 -2 -17 -14 -23 -26 -9 -20 -9 -20 4 -4 8 9 19 17 26
17 6 0 11 5 11 10 0 6 -1 10 -2 9 -2 0 -9 -3 -16 -6z"/>
<path d="M586 2755 c-9 -26 -7 -32 5 -12 6 10 9 21 6 23 -2 3 -7 -2 -11 -11z"/>
<path d="M718 2744 c-6 -16 -13 -30 -14 -32 -1 -1 -11 -4 -22 -7 -15 -2 -23 3
-28 17 -4 15 -8 17 -14 8 -16 -25 0 -37 45 -35 25 1 48 4 52 8 3 4 1 7 -4 7
-12 0 -12 18 1 38 4 7 5 16 2 19 -3 3 -11 -7 -18 -23z"/>
<path d="M27 2725 c-18 -25 -18 -25 5 -25 33 0 52 -15 42 -31 -6 -12 -5 -12 9
0 17 13 25 37 10 28 -8 -5 -34 17 -33 28 1 33 -9 33 -33 0z m33 1 c0 -3 -4 -8
-10 -11 -5 -3 -10 -1 -10 4 0 6 5 11 10 11 6 0 10 -2 10 -4z"/>
<path d="M207 2738 c2 -5 10 -8 18 -8 8 0 16 3 18 8 3 4 -5 7 -18 7 -13 0 -21
-3 -18 -7z"/>
<path d="M620 2741 c0 -7 -5 -9 -12 -5 -7 4 -8 3 -4 -4 4 -7 1 -12 -9 -12 -9
0 -13 -5 -9 -11 4 -7 13 -4 27 10 12 11 18 24 14 27 -4 4 -7 2 -7 -5z"/>
<path d="M452 2716 c7 -8 17 -12 22 -9 4 3 2 9 -5 14 -22 13 -31 11 -17 -5z"/>
<path d="M755 2709 c-4 -6 -4 -13 -1 -16 10 -11 56 -11 56 -1 0 6 -9 8 -20 5
-11 -3 -22 -1 -25 3 -3 5 5 11 17 13 23 4 23 4 1 6 -12 0 -25 -4 -28 -10z"/>
<path d="M279 2700 c-1 -5 -2 -16 -3 -22 0 -7 -11 -14 -23 -16 -24 -4 -35 -24
-27 -47 10 -26 25 -16 18 13 -4 15 -3 24 1 19 5 -4 17 0 27 10 14 13 18 13 18
2 0 -9 3 -10 8 -3 4 6 14 14 22 17 10 4 8 6 -7 6 -13 1 -23 5 -23 10 0 4 16 7
36 5 46 -3 36 7 -11 13 -19 2 -36 -1 -36 -7z"/>
<path d="M426 2678 c-4 -22 -9 -29 -14 -21 -6 10 -12 10 -28 -3 -18 -14 -18
-15 6 -8 21 6 23 5 13 -7 -10 -12 -8 -15 8 -16 11 -1 17 2 14 7 -9 15 6 39 21
33 8 -3 14 0 14 7 0 6 -5 8 -11 4 -8 -4 -9 0 -4 15 3 11 2 21 -3 21 -5 0 -12
-15 -16 -32z"/>
<path d="M240 2685 c-7 -9 -8 -15 -2 -15 5 0 12 7 16 15 3 8 4 15 2 15 -2 0
-9 -7 -16 -15z"/>
<path d="M823 2672 c-19 -19 -27 -21 -43 -12 -16 9 -24 7 -37 -5 -13 -13 -17
-14 -24 -3 -5 8 -2 15 9 20 13 5 12 7 -7 7 -23 1 -23 1 -5 -45 3 -6 -2 -11
-11 -11 -9 0 -14 6 -11 14 3 8 2 12 -3 9 -5 -3 -8 -17 -8 -32 0 -14 -7 -30
-14 -35 -8 -5 -9 -9 -3 -9 5 0 15 5 22 12 9 9 15 9 23 1 6 -6 17 -9 25 -6 7 2
21 0 30 -5 14 -8 21 -6 30 6 11 14 15 15 26 4 8 -8 9 -12 2 -10 -12 3 -14 -1
-14 -24 0 -9 4 -8 10 2 8 13 10 12 10 -2 0 -10 -5 -18 -11 -18 -5 0 -7 -5 -4
-10 4 -6 13 -7 23 -1 9 4 25 7 35 6 14 -3 16 0 7 10 -6 7 -7 21 -4 31 5 14 2
12 -14 -6 -14 -16 -21 -20 -22 -11 0 8 7 23 17 33 9 10 11 18 5 18 -6 0 -12
-3 -15 -7 -2 -5 -2 -2 -1 5 4 15 -28 16 -44 0 -19 -19 -42 -18 -42 3 0 10 -5
19 -11 19 -5 0 -8 -4 -5 -9 8 -12 -29 -20 -45 -10 -13 8 -12 10 11 13 6 0 14
6 18 11 4 6 18 10 32 10 14 0 31 4 39 10 11 8 13 6 9 -5 -3 -8 -12 -14 -21
-14 -9 1 -13 -4 -10 -13 5 -11 9 -11 24 3 11 9 19 24 19 32 0 12 2 12 17 1 9
-8 14 -9 10 -2 -4 6 -1 13 7 15 12 2 12 6 3 18 -10 13 -15 12 -34 -8z"/>
<path d="M934 2675 c3 -8 1 -15 -3 -15 -5 0 -11 5 -13 11 -2 5 -11 7 -21 3
-12 -4 -16 -13 -11 -26 4 -15 2 -19 -12 -16 -9 2 -19 -3 -21 -9 -6 -16 23 -17
33 -2 5 8 9 8 14 -1 6 -9 12 -10 26 -1 18 10 17 10 -4 11 -14 0 -21 4 -17 11
4 6 13 8 19 6 7 -3 18 3 24 13 9 14 8 19 -5 24 -11 4 -14 2 -9 -9z"/>
<path d="M3 2665 c-3 -9 -3 -19 1 -22 3 -4 6 1 6 10 0 8 10 18 23 20 l22 4
-23 2 c-12 0 -25 -6 -29 -14z"/>
<path d="M633 2665 c-7 -8 -9 -16 -4 -19 5 -3 12 1 15 10 8 22 4 25 -11 9z"/>
<path d="M130 2660 c0 -5 7 -7 15 -4 8 4 15 8 15 10 0 2 -7 4 -15 4 -8 0 -15
-4 -15 -10z"/>
<path d="M665 2657 c-10 -8 -14 -17 -9 -20 6 -3 15 3 22 14 14 23 12 24 -13 6z"/>
<path d="M306 2643 c-3 -7 -1 -15 5 -18 14 -10 0 -25 -17 -18 -8 3 -14 2 -13
-3 4 -21 -2 -28 -11 -14 -6 10 -10 11 -10 3 0 -7 -7 -13 -15 -13 -8 0 -15 -4
-15 -10 0 -5 -5 -10 -11 -10 -5 0 -7 5 -4 10 3 6 2 10 -3 10 -6 0 -8 10 -5 23
3 13 1 18 -4 12 -4 -6 -17 -11 -28 -10 -11 0 -21 -3 -22 -7 -6 -18 -2 -38 7
-38 5 0 7 6 4 14 -3 7 2 16 10 19 10 4 13 1 9 -9 -3 -7 -1 -14 5 -14 5 0 24
-15 42 -32 18 -18 29 -26 24 -18 -4 8 -9 23 -9 32 -1 14 4 17 26 13 22 -4 27
-2 23 10 -4 10 0 15 10 15 9 0 19 -7 22 -15 4 -8 10 -15 16 -15 5 0 6 5 3 10
-3 6 -1 10 4 10 14 0 14 -23 0 -37 -8 -8 -8 -13 0 -17 6 -4 11 -2 11 5 0 8 6
6 18 -4 10 -10 29 -17 41 -17 12 0 19 -4 16 -10 -3 -5 1 -10 10 -10 10 0 13
-5 9 -12 -4 -7 -3 -8 4 -4 7 4 12 15 12 24 0 17 -11 20 -63 22 -10 1 -20 9
-23 18 -3 9 -9 24 -14 33 -5 10 -4 21 3 29 9 10 9 11 -3 4 -8 -5 -21 -9 -27
-10 -16 -3 -17 23 -1 28 6 2 12 11 13 19 3 17 -43 20 -49 2z m41 -9 c-3 -3
-12 -4 -19 -1 -8 3 -5 6 6 6 11 1 17 -2 13 -5z"/>
<path d="M150 2640 c-9 -6 -10 -10 -3 -10 6 0 15 5 18 10 8 12 4 12 -15 0z"/>
<path d="M440 2635 c0 -16 16 -20 24 -6 3 5 -1 11 -9 15 -9 3 -15 0 -15 -9z"/>
<path d="M546 2641 c-3 -5 1 -11 9 -15 8 -3 15 -1 15 4 0 13 -18 22 -24 11z"/>
<path d="M586 2641 c-4 -5 -2 -12 3 -15 5 -4 12 -2 15 3 4 5 2 12 -3 15 -5 4
-12 2 -15 -3z"/>
<path d="M270 2630 c-13 -8 -12 -10 3 -10 9 0 17 5 17 10 0 12 -1 12 -20 0z"/>
<path d="M632 2610 c-18 -29 -15 -38 4 -12 9 13 14 25 12 27 -2 2 -9 -5 -16
-15z"/>
<path d="M540 2604 c0 -3 7 -12 15 -20 16 -17 18 -14 9 10 -6 15 -24 23 -24
10z"/>
<path d="M580 2600 c0 -6 5 -10 11 -10 5 0 2 -13 -7 -29 -10 -17 -21 -28 -25
-25 -4 2 -10 0 -14 -6 -3 -5 0 -10 9 -10 8 0 24 15 35 34 25 40 25 42 6 50 -8
3 -15 1 -15 -4z"/>
<path d="M405 2587 c-6 -7 -9 -20 -7 -29 4 -22 32 -24 32 -3 0 8 -5 15 -11 15
-8 0 -8 5 1 15 7 8 9 15 4 15 -5 -1 -14 -6 -19 -13z"/>
<path d="M1058 2593 c-10 -2 -18 -9 -18 -14 0 -6 5 -7 10 -4 6 3 10 1 10 -6 0
-16 13 -3 16 16 1 8 2 14 1 14 -1 -1 -10 -3 -19 -6z"/>
<path d="M530 2560 c0 -6 7 -10 15 -10 8 0 15 2 15 4 0 2 -7 6 -15 10 -8 3
-15 1 -15 -4z"/>
<path d="M615 2560 c3 -5 13 -10 21 -10 8 0 14 -6 14 -14 0 -7 7 -19 15 -26
13 -11 14 -9 1 15 -14 27 -33 45 -49 45 -5 0 -5 -4 -2 -10z"/>
<path d="M680 2555 c-7 -9 -11 -17 -8 -20 2 -2 12 4 21 15 9 11 13 20 8 20 -5
0 -14 -7 -21 -15z"/>
<path d="M185 2550 c3 -5 8 -10 11 -10 2 0 4 5 4 10 0 6 -5 10 -11 10 -5 0 -7
-4 -4 -10z"/>
<path d="M732 2544 c-7 -7 -12 -21 -12 -30 0 -13 4 -11 20 7 19 24 19 24 15 2
-3 -16 0 -20 11 -16 9 3 14 -2 15 -13 0 -18 1 -17 9 1 12 28 12 47 0 40 -6 -4
-7 -11 -4 -17 4 -7 2 -8 -4 -4 -6 4 -9 13 -6 20 7 18 -29 26 -44 10z"/>
<path d="M266 2541 c-4 -5 1 -8 9 -7 21 3 31 16 12 16 -9 0 -18 -4 -21 -9z"/>
<path d="M467 2543 c-4 -6 2 -18 12 -27 14 -13 20 -14 23 -5 5 14 28 4 28 -12
0 -6 -4 -7 -10 -4 -5 3 -10 1 -10 -5 0 -6 -4 -9 -9 -5 -5 3 -12 1 -16 -5 -3
-5 -2 -10 4 -10 5 0 8 -11 7 -24 -3 -21 0 -24 27 -20 16 2 39 11 50 21 18 16
20 16 14 2 -4 -13 -1 -16 14 -12 26 7 11 23 -24 27 -16 2 -24 -1 -21 -9 5 -12
-20 -17 -44 -9 -9 3 -4 13 15 31 15 16 26 27 24 25 -2 -1 -13 5 -23 15 -10 9
-21 13 -25 10 -3 -4 -11 1 -18 10 -7 10 -14 12 -18 6z"/>
<path d="M306 2531 c-4 -5 -2 -12 3 -15 5 -4 12 -2 15 3 4 5 2 12 -3 15 -5 4
-12 2 -15 -3z"/>
<path d="M181 2514 c0 -11 3 -14 6 -6 3 7 2 16 -1 19 -3 4 -6 -2 -5 -13z"/>
<path d="M690 2489 c0 -5 5 -7 10 -4 6 3 10 8 10 11 0 2 -4 4 -10 4 -5 0 -10
-5 -10 -11z"/>
<path d="M806 2483 c-4 -11 -1 -11 14 -3 24 13 25 17 5 17 -8 0 -16 -6 -19
-14z"/>
<path d="M726 2481 c-4 -6 -4 -16 0 -22 3 -6 0 -15 -7 -20 -11 -7 -10 -9 4 -9
10 0 20 7 23 15 7 17 34 21 34 4 0 -5 -4 -7 -10 -4 -5 3 -10 -1 -10 -11 0 -13
3 -14 13 -5 8 6 16 9 19 6 3 -3 11 1 18 10 11 13 10 14 -2 10 -8 -3 -21 1 -28
9 -7 9 -17 13 -22 10 -6 -4 -14 -1 -18 6 -5 9 -9 9 -14 1z"/>
<path d="M853 2483 c-15 -5 -17 -23 -4 -23 5 0 11 7 15 15 3 8 4 15 3 14 -1 0
-8 -3 -14 -6z"/>
<path d="M0 2452 c0 -4 5 -13 12 -20 9 -9 9 -12 0 -12 -7 0 -12 -5 -12 -11 0
-8 4 -8 14 0 18 15 17 51 -1 51 -7 0 -13 -4 -13 -8z"/>
<path d="M530 2399 c0 -5 -4 -8 -9 -5 -5 3 -12 -1 -15 -10 -4 -11 0 -15 16
-12 20 3 36 38 17 38 -5 0 -9 -5 -9 -11z"/>
<path d="M565 2383 c-7 -20 -7 -20 14 -26 14 -3 18 1 17 18 -1 24 -22 30 -31
8z"/>
<path d="M655 2369 c-4 -6 -13 -8 -21 -5 -8 3 -14 1 -14 -4 0 -6 5 -10 10 -10
7 0 7 -8 -1 -22 -12 -23 -12 -23 10 -4 23 21 41 15 22 -8 -7 -8 -8 -17 -3 -20
5 -3 14 6 21 20 15 33 15 34 -11 34 -22 1 -23 1 -4 15 11 8 15 15 9 15 -7 0
-15 -5 -18 -11z"/>
<path d="M543 2336 c1 -6 -4 -10 -11 -8 -8 1 -12 -3 -10 -10 3 -7 9 -13 14
-13 5 0 14 -3 19 -7 13 -8 36 25 27 38 -10 13 -42 14 -39 0z m27 -16 c0 -5 -2
-10 -4 -10 -3 0 -8 5 -11 10 -3 6 -1 10 4 10 6 0 11 -4 11 -10z"/>
<path d="M600 2329 c0 -5 5 -7 10 -4 6 3 10 8 10 11 0 2 -4 4 -10 4 -5 0 -10
-5 -10 -11z"/>
<path d="M490 2320 c0 -5 5 -10 11 -10 5 0 7 5 4 10 -3 6 -8 10 -11 10 -2 0
-4 -4 -4 -10z"/>
<path d="M575 2274 c-39 -20 -46 -28 -16 -19 15 5 21 3 17 -3 -4 -6 2 -8 15
-5 14 4 17 8 9 13 -9 6 -9 9 1 12 8 3 12 8 9 11 -3 4 -19 -1 -35 -9z"/>
<path d="M626 2183 c-4 -9 -3 -19 0 -22 4 -3 9 0 11 7 3 6 9 10 14 6 5 -3 9
-1 9 4 0 17 -28 21 -34 5z"/>
<path d="M481 2141 c-9 -6 -10 -11 -2 -15 13 -8 31 1 31 15 0 11 -11 11 -29 0z"/>
<path d="M1867 1977 c-16 -28 -52 -95 -80 -147 l-51 -95 0 -145 c0 -141 0
-147 31 -214 39 -88 71 -128 138 -173 49 -32 57 -34 86 -24 40 14 39 14 39 -3
0 -23 68 -76 98 -76 58 0 69 44 21 84 -23 19 -37 24 -57 20 -23 -5 -22 -3 9
14 82 46 181 121 174 132 -3 5 -20 12 -38 15 -35 8 -192 88 -219 112 -33 30
-80 113 -110 195 -25 71 -29 92 -24 146 4 34 15 90 26 125 24 77 25 87 3 87
-11 0 -29 -20 -46 -53z"/>
<path d="M3098 1043 c7 -3 16 -2 19 1 4 3 -2 6 -13 5 -11 0 -14 -3 -6 -6z"/>
<path d="M3058 1033 c7 -3 16 -2 19 1 4 3 -2 6 -13 5 -11 0 -14 -3 -6 -6z"/>
<path d="M3008 1023 c7 -3 16 -2 19 1 4 3 -2 6 -13 5 -11 0 -14 -3 -6 -6z"/>
<path d="M2168 1013 c12 -2 32 -2 45 0 12 2 2 4 -23 4 -25 0 -35 -2 -22 -4z"/>
<path d="M2938 1013 c6 -2 18 -2 25 0 6 3 1 5 -13 5 -14 0 -19 -2 -12 -5z"/>
<path d="M2258 1003 c12 -2 32 -2 45 0 12 2 2 4 -23 4 -25 0 -35 -2 -22 -4z"/>
<path d="M2863 1003 c9 -2 23 -2 30 0 6 3 -1 5 -18 5 -16 0 -22 -2 -12 -5z"/>
<path d="M2373 993 c26 -2 68 -2 95 0 26 2 4 3 -48 3 -52 0 -74 -1 -47 -3z"/>
<path d="M2598 993 c7 -3 16 -2 19 1 4 3 -2 6 -13 5 -11 0 -14 -3 -6 -6z"/>
<path d="M2728 993 c18 -2 45 -2 60 0 15 2 0 4 -33 4 -33 0 -45 -2 -27 -4z"/>
</g>
</svg>
