<svg width="408" height="109" viewBox="0 0 408 109" fill="none" xmlns="http://www.w3.org/2000/svg">
<g clip-path="url(#clip0_10_14)">
<rect width="408" height="109" rx="54.5" fill="url(#paint0_linear_10_14)"/>
<path d="M128 23.1488C128 23.1488 127.1 26.6488 125.6 31.0488C120.7 31.0488 115.7 31.1488 110.8 31.3488C108.8 26.8488 106.9 23.0488 106.9 23.0488C103.2 22.9488 98 23.3488 94.6 24.5488C95 27.1488 95.7 29.9488 96.4 32.2488C93.2 32.5488 90.3 32.9488 87.6 33.3488C87.5 34.3488 87.8 42.3488 88.2 43.2488C94.5 42.4488 102.4 41.8488 110.7 41.6488V48.8488C102.9 49.0488 95.5 49.5488 89.8 50.4488C89.6 51.3488 90 58.5488 90.4 59.4488C96.2 58.8488 103.3 58.4488 110.7 58.2488V66.3488C101.9 66.3488 93.5 65.9488 86.5 65.2488C86.2 67.5488 86.1 73.0488 86.5 75.4488C93.2 76.5488 101.8 77.1488 110.7 77.2488V87.0488H126.3V77.1488C135.4 76.8488 143.9 76.1488 150 75.3488C150.3 73.1488 150.3 68.1488 150 64.2488C143.2 65.1488 134.9 65.8488 126.3 66.1488V58.1488C133.7 58.1488 140.7 58.4488 146.4 58.8488C146.8 57.2488 146.6 52.1488 146 49.2488C140.5 48.9488 133.6 48.6488 126.3 48.6488V41.4488C134.7 41.5488 142.6 41.9488 148.6 42.5488C148.9 40.8488 148.9 34.8488 148.1 31.7488L139.4 31.3488C140 29.0488 140.6 26.3488 140.7 23.9488C137.3 22.9488 131.8 22.8488 128 23.1488ZM57.3 77.0488C59.6 80.5488 62.9 85.0488 67.2 87.2488C73.4 82.5488 81 73.7488 85 66.0488C83.5 63.8488 80.9 60.5488 78 57.8488C72.2 65.8488 64.2 72.0488 57.3 77.0488ZM57 46.8488C61.4 50.3488 66.6 55.2488 71.2 60.4488C71.2 60.4488 76 56.0488 79.2 50.9488C76.2 47.5488 69.1 41.2488 64.9 38.9488C62 40.8488 59.4 43.5488 57 46.8488ZM63.3 30.9488C67.3 33.6488 72.8 38.0488 77.7 43.2488C77.7 43.2488 82.5 39.1488 85.7 34.0488C82.2 30.9488 76.3 26.2488 71.3 23.2488C68.5 25.0488 65.6 27.6488 63.3 30.9488Z" fill="white"/>
<path d="M181.4 34.8488C197.4 33.5488 224.5 33.0488 232.9 33.2488C233 34.9488 233 38.7488 232.8 39.9488C226.5 40.4488 182.7 42.0488 181.4 38.9488C180.3 47.7488 185.8 49.6488 199.1 50.1488C206.5 50.4488 228.2 50.4488 237.9 48.8488C243.8 47.8488 246.5 46.3488 247.5 42.6488C248.2 39.6488 248.1 33.4488 247.5 30.4488C246.3 25.6488 243.4 24.6488 237.7 24.1488C223 22.7488 198.1 23.7488 187.6 25.6488C182.9 26.5488 181.2 30.6488 181.4 34.8488ZM164.5 79.5488C164.5 81.3488 163.9 84.4488 156.3 86.6488V87.9488C166.2 86.8488 179.1 83.0488 179.1 73.6488V24.7488H164.5V79.5488ZM232.4 52.8488C228.2 52.3488 222.2 52.2488 217.6 52.8488C217.2 60.8488 217.2 67.7488 217.6 76.8488C217.9 82.6488 220.7 84.8488 225.5 85.6488C230.4 86.5488 237.7 86.6488 243.3 85.8488C247.5 85.2488 248.9 83.9488 249.4 79.7488C249.5 77.0488 249.4 73.6488 249.1 70.3488C247.6 74.2488 240 74.6488 232.1 74.5488C232 72.2488 232 70.0488 232 67.7488C237.9 67.0488 243.7 65.8488 248.7 64.3488C248.2 60.9488 247.1 58.2488 245.5 55.7488C241.5 57.1488 236.8 58.3488 232.2 59.2488C232.2 57.2488 232.3 55.1488 232.4 52.8488ZM183.9 53.0488V77.2488C183.9 82.5488 187 85.2488 191.8 85.8488C200.6 86.9488 210.4 84.9488 215.6 83.3488L214.7 72.4488C209.5 74.1488 203.7 75.0488 198.6 75.2488V67.3488C203.8 67.2488 209.2 67.1488 214.6 67.1488C214.6 63.9488 214.1 60.9488 213.3 58.1488C208 58.2488 203.3 58.3488 198.6 58.5488V53.0488H183.9Z" fill="white"/>
<path d="M258.6 38.4488C258.1 41.1488 258.1 44.2488 258.3 47.6488C262.7 47.3488 270.1 46.9488 278.8 46.6488C278.4 47.8488 277.9 48.9488 277.3 50.0488C272.9 49.9488 268.5 49.8488 264.3 49.5488C264.3 49.5488 263.6 52.6488 265.2 57.9488C266.8 58.2488 269.1 58.4488 271.7 58.6488C267.8 62.9488 262.9 66.3488 256.9 68.6488C257.7 73.1488 260.5 79.1488 262.7 82.0488C266.5 80.1488 270 78.0488 273.1 75.6488V86.1488H288.6V62.9488H285C285.8 61.7488 286.5 60.5488 287.2 59.2488C305.2 59.4488 327.1 58.7488 333 57.3488C339.9 56.0488 342 52.5488 342.5 47.6488C342.5 47.2488 342.6 46.5488 342.7 45.7488L350.1 46.1488C350.1 46.1488 350.3 40.0488 349.1 36.4488C347.2 36.4488 345 36.3488 342.7 36.2488C342.7 34.9488 342.6 33.7488 342.5 32.8488C342.1 28.1488 339.7 25.2488 333 23.9488C323.3 22.1488 281.5 23.3488 265.2 25.9488C264.7 28.1488 264.6 32.1488 264.8 34.3488C269.5 33.8488 275.5 33.2488 282 32.8488L281.4 36.8488C272.6 37.2488 264.6 37.7488 258.6 38.4488ZM289.8 72.2488C294.2 71.2488 321.4 70.3488 328.2 70.6488C328.3 72.3488 328.3 75.5488 328.1 76.6488C323.7 77.2488 291.9 78.5488 290.1 75.4488C288.7 82.5488 291.9 86.1488 302.6 86.7488C311.2 87.2488 325.9 87.2488 335 86.0488C338.6 85.4488 342.7 84.1488 343.5 80.2488C344.5 75.6488 344.7 66.3488 341.8 63.6488C340.6 62.5488 337.9 61.6488 333.5 61.3488C321.1 60.3488 300 61.8488 294.6 63.5488C290.3 64.9488 289.8 69.2488 289.8 72.2488ZM326.7 48.6488C318.9 49.6488 305.4 50.2488 291 50.2488C291.5 48.8488 291.9 47.5488 292.2 46.1488C303.5 45.7488 315.8 45.4488 326.8 45.4488C326.8 47.0488 326.7 48.2488 326.7 48.6488ZM327 36.0488C316.6 35.9488 305.1 36.0488 294 36.3488L294.4 32.1488C306.9 31.6488 319.4 31.5488 326.8 32.1488C326.9 32.8488 327 34.4488 327 36.0488Z" fill="white"/>
</g>
<defs>
<linearGradient id="paint0_linear_10_14" x1="0" y1="0" x2="414.907" y2="64.7131" gradientUnits="userSpaceOnUse">
<stop offset="0.182292" stop-color="#268785"/>
<stop offset="0.770833" stop-color="#1E88A8"/>
</linearGradient>
<clipPath id="clip0_10_14">
<rect width="408" height="109" fill="white"/>
</clipPath>
</defs>
</svg>
