<svg width="890" height="536" viewBox="0 0 890 536" fill="none" xmlns="http://www.w3.org/2000/svg">
<g filter="url(#filter0_f)">
<path d="M426.628 413.454C269.228 451.673 193.368 332.039 0 509V38H668C635.096 155.75 665.296 355.503 426.628 413.454Z" fill="#EAEAEA"/>
</g>
<g filter="url(#filter1_f)">
<path d="M673.53 370.788C832.54 332.71 867 63.4629 867 0H296V237.986C351.473 305.954 514.521 408.865 673.53 370.788Z" fill="#F5F5F5"/>
</g>
<g filter="url(#filter2_f)">
<path d="M208.22 266.173C98.5655 321.64 129.452 486.343 -43 512V-25H867C850.292 58.5333 785.395 138.535 612.797 214.86C400.961 308.537 309.662 214.86 208.22 266.173Z" fill="#DCDCDC"/>
</g>
<defs>
<filter id="filter0_f" x="-27" y="11" width="722" height="525" filterUnits="userSpaceOnUse" color-interpolation-filters="sRGB">
<feFlood flood-opacity="0" result="BackgroundImageFix"/>
<feBlend mode="normal" in="SourceGraphic" in2="BackgroundImageFix" result="shape"/>
<feGaussianBlur stdDeviation="13.5" result="effect1_foregroundBlur"/>
</filter>
<filter id="filter1_f" x="273" y="-23" width="617" height="425" filterUnits="userSpaceOnUse" color-interpolation-filters="sRGB">
<feFlood flood-opacity="0" result="BackgroundImageFix"/>
<feBlend mode="normal" in="SourceGraphic" in2="BackgroundImageFix" result="shape"/>
<feGaussianBlur stdDeviation="11.5" result="effect1_foregroundBlur"/>
</filter>
<filter id="filter2_f" x="-61" y="-43" width="946" height="573" filterUnits="userSpaceOnUse" color-interpolation-filters="sRGB">
<feFlood flood-opacity="0" result="BackgroundImageFix"/>
<feBlend mode="normal" in="SourceGraphic" in2="BackgroundImageFix" result="shape"/>
<feGaussianBlur stdDeviation="9" result="effect1_foregroundBlur"/>
</filter>
</defs>
</svg>
